<svg width="683" height="461" viewBox="0 0 683 461" fill="none" xmlns="http://www.w3.org/2000/svg">
<rect x="5" y="43" width="183" height="77" rx="10" fill="#FCFCFC"/>
<path d="M46.9918 74.4545V76.3438H40.1168V89H37.9222V74.4545H46.9918ZM48.1619 93.0909V78.0909H50.2358V79.8594H50.4134C50.5365 79.6321 50.714 79.3693 50.946 79.071C51.178 78.7727 51.5 78.5123 51.9119 78.2898C52.3239 78.0625 52.8684 77.9489 53.5455 77.9489C54.4261 77.9489 55.2121 78.1714 55.9034 78.6165C56.5947 79.0616 57.1368 79.7031 57.5298 80.5412C57.9276 81.3793 58.1264 82.3878 58.1264 83.5668C58.1264 84.7457 57.9299 85.7566 57.5369 86.5994C57.1439 87.4375 56.6042 88.0838 55.9176 88.5384C55.2311 88.9882 54.4474 89.2131 53.5668 89.2131C52.9039 89.2131 52.3617 89.1018 51.9403 88.8793C51.5237 88.6567 51.197 88.3963 50.9602 88.098C50.7235 87.7997 50.5412 87.5346 50.4134 87.3026H50.2855V93.0909H48.1619ZM50.2429 83.5455C50.2429 84.3125 50.3542 84.9848 50.5767 85.5625C50.7992 86.1402 51.1212 86.5923 51.5426 86.919C51.964 87.241 52.4801 87.402 53.0909 87.402C53.7254 87.402 54.2557 87.2339 54.6818 86.8977C55.108 86.5568 55.4299 86.0952 55.6477 85.5128C55.8703 84.9304 55.9815 84.2746 55.9815 83.5455C55.9815 82.8258 55.8726 82.1795 55.6548 81.6065C55.4418 81.0336 55.1198 80.5814 54.6889 80.25C54.2628 79.9186 53.7301 79.7528 53.0909 79.7528C52.4754 79.7528 51.9545 79.9115 51.5284 80.2287C51.107 80.5459 50.7874 80.9886 50.5696 81.5568C50.3518 82.125 50.2429 82.7879 50.2429 83.5455ZM63.6804 89.2415C62.9891 89.2415 62.3641 89.1136 61.8054 88.858C61.2467 88.5975 60.804 88.2211 60.4773 87.7287C60.1553 87.2363 59.9943 86.6326 59.9943 85.9176C59.9943 85.3021 60.1127 84.7955 60.3494 84.3977C60.5862 84 60.9058 83.6851 61.3082 83.4531C61.7107 83.2211 62.1605 83.0459 62.6577 82.9276C63.1548 82.8092 63.6615 82.7192 64.1776 82.6577C64.831 82.5819 65.3613 82.5204 65.7685 82.473C66.1757 82.4209 66.4716 82.3381 66.6562 82.2244C66.8409 82.1108 66.9332 81.9261 66.9332 81.6705V81.6207C66.9332 81.0005 66.758 80.5199 66.4077 80.179C66.062 79.8381 65.5459 79.6676 64.8594 79.6676C64.1444 79.6676 63.581 79.8262 63.169 80.1435C62.7618 80.456 62.4801 80.804 62.3239 81.1875L60.3281 80.733C60.5649 80.0701 60.9105 79.535 61.3651 79.1278C61.8243 78.7159 62.3523 78.4176 62.9489 78.233C63.5455 78.0436 64.1728 77.9489 64.831 77.9489C65.2666 77.9489 65.7282 78.0009 66.2159 78.1051C66.7083 78.2045 67.1676 78.3892 67.5938 78.6591C68.0246 78.929 68.3774 79.3149 68.652 79.8168C68.9266 80.3139 69.0639 80.9602 69.0639 81.7557V89H66.9901V87.5085H66.9048C66.7675 87.7831 66.5616 88.053 66.2869 88.3182C66.0123 88.5833 65.6596 88.8035 65.2287 88.9787C64.7978 89.1539 64.2817 89.2415 63.6804 89.2415ZM64.142 87.5369C64.7292 87.5369 65.2311 87.4209 65.6477 87.1889C66.0691 86.9569 66.3887 86.6539 66.6065 86.2798C66.8291 85.901 66.9403 85.4962 66.9403 85.0653V83.6591C66.8646 83.7348 66.7178 83.8059 66.5 83.8722C66.2869 83.9337 66.0431 83.9882 65.7685 84.0355C65.4938 84.0781 65.2263 84.1184 64.9659 84.1562C64.7055 84.1894 64.4877 84.2178 64.3125 84.2415C63.9006 84.2936 63.5241 84.3812 63.1832 84.5043C62.8471 84.6274 62.5772 84.8049 62.3736 85.0369C62.1747 85.2642 62.0753 85.5672 62.0753 85.946C62.0753 86.4716 62.2694 86.8693 62.6577 87.1392C63.0459 87.4044 63.5407 87.5369 64.142 87.5369ZM78.0146 86.3722L81.5373 78.0909H83.3697L78.8029 89H77.2262L72.7518 78.0909H74.5629L78.0146 86.3722ZM73.9734 78.0909V89H71.8924V78.0909H73.9734ZM82.1126 89V78.0909H84.1793V89H82.1126ZM93.1317 86.3722L96.6545 78.0909H98.4869L93.9201 89H92.3434L87.869 78.0909H89.68L93.1317 86.3722ZM89.0906 78.0909V89H87.0096V78.0909H89.0906ZM97.2298 89V78.0909H99.2965V89H97.2298ZM105.301 89.2415C104.61 89.2415 103.985 89.1136 103.426 88.858C102.868 88.5975 102.425 88.2211 102.098 87.7287C101.776 87.2363 101.615 86.6326 101.615 85.9176C101.615 85.3021 101.734 84.7955 101.971 84.3977C102.207 84 102.527 83.6851 102.929 83.4531C103.332 83.2211 103.782 83.0459 104.279 82.9276C104.776 82.8092 105.283 82.7192 105.799 82.6577C106.452 82.5819 106.982 82.5204 107.39 82.473C107.797 82.4209 108.093 82.3381 108.277 82.2244C108.462 82.1108 108.554 81.9261 108.554 81.6705V81.6207C108.554 81.0005 108.379 80.5199 108.029 80.179C107.683 79.8381 107.167 79.6676 106.48 79.6676C105.766 79.6676 105.202 79.8262 104.79 80.1435C104.383 80.456 104.101 80.804 103.945 81.1875L101.949 80.733C102.186 80.0701 102.532 79.535 102.986 79.1278C103.445 78.7159 103.973 78.4176 104.57 78.233C105.167 78.0436 105.794 77.9489 106.452 77.9489C106.888 77.9489 107.349 78.0009 107.837 78.1051C108.329 78.2045 108.789 78.3892 109.215 78.6591C109.646 78.929 109.998 79.3149 110.273 79.8168C110.548 80.3139 110.685 80.9602 110.685 81.7557V89H108.611V87.5085H108.526C108.389 87.7831 108.183 88.053 107.908 88.3182C107.633 88.5833 107.281 88.8035 106.85 88.9787C106.419 89.1539 105.903 89.2415 105.301 89.2415ZM105.763 87.5369C106.35 87.5369 106.852 87.4209 107.269 87.1889C107.69 86.9569 108.01 86.6539 108.228 86.2798C108.45 85.901 108.561 85.4962 108.561 85.0653V83.6591C108.486 83.7348 108.339 83.8059 108.121 83.8722C107.908 83.9337 107.664 83.9882 107.39 84.0355C107.115 84.0781 106.847 84.1184 106.587 84.1562C106.327 84.1894 106.109 84.2178 105.934 84.2415C105.522 84.2936 105.145 84.3812 104.804 84.5043C104.468 84.6274 104.198 84.8049 103.995 85.0369C103.796 85.2642 103.696 85.5672 103.696 85.946C103.696 86.4716 103.891 86.8693 104.279 87.1392C104.667 87.4044 105.162 87.5369 105.763 87.5369ZM112.161 79.9233V78.0909H121.365V79.9233H117.807V89H115.733V79.9233H112.161ZM125.692 86.0241L130.5 78.0909H132.787V89H130.706V81.0597L125.919 89H123.611V78.0909H125.692V86.0241ZM135.642 89V78.0909H137.766V82.6648H138.789L142.39 78.0909H145.017L140.792 83.3963L145.067 89H142.432L139.144 84.6392H137.766V89H135.642ZM149.891 89.2415C149.2 89.2415 148.575 89.1136 148.016 88.858C147.458 88.5975 147.015 88.2211 146.688 87.7287C146.366 87.2363 146.205 86.6326 146.205 85.9176C146.205 85.3021 146.324 84.7955 146.56 84.3977C146.797 84 147.117 83.6851 147.519 83.4531C147.922 83.2211 148.371 83.0459 148.869 82.9276C149.366 82.8092 149.872 82.7192 150.388 82.6577C151.042 82.5819 151.572 82.5204 151.979 82.473C152.387 82.4209 152.683 82.3381 152.867 82.2244C153.052 82.1108 153.144 81.9261 153.144 81.6705V81.6207C153.144 81.0005 152.969 80.5199 152.619 80.179C152.273 79.8381 151.757 79.6676 151.07 79.6676C150.355 79.6676 149.792 79.8262 149.38 80.1435C148.973 80.456 148.691 80.804 148.535 81.1875L146.539 80.733C146.776 80.0701 147.121 79.535 147.576 79.1278C148.035 78.7159 148.563 78.4176 149.16 78.233C149.756 78.0436 150.384 77.9489 151.042 77.9489C151.478 77.9489 151.939 78.0009 152.427 78.1051C152.919 78.2045 153.379 78.3892 153.805 78.6591C154.236 78.929 154.588 79.3149 154.863 79.8168C155.138 80.3139 155.275 80.9602 155.275 81.7557V89H153.201V87.5085H153.116C152.978 87.7831 152.772 88.053 152.498 88.3182C152.223 88.5833 151.871 88.8035 151.44 88.9787C151.009 89.1539 150.493 89.2415 149.891 89.2415ZM150.353 87.5369C150.94 87.5369 151.442 87.4209 151.859 87.1889C152.28 86.9569 152.6 86.6539 152.817 86.2798C153.04 85.901 153.151 85.4962 153.151 85.0653V83.6591C153.076 83.7348 152.929 83.8059 152.711 83.8722C152.498 83.9337 152.254 83.9882 151.979 84.0355C151.705 84.0781 151.437 84.1184 151.177 84.1562C150.916 84.1894 150.699 84.2178 150.523 84.2415C150.112 84.2936 149.735 84.3812 149.394 84.5043C149.058 84.6274 148.788 84.8049 148.585 85.0369C148.386 85.2642 148.286 85.5672 148.286 85.946C148.286 86.4716 148.48 86.8693 148.869 87.1392C149.257 87.4044 149.752 87.5369 150.353 87.5369Z" fill="#0D0D0D"/>
<rect x="5" y="43" width="183" height="77" rx="10" stroke="#1676D8" stroke-width="4"/>
<rect x="478" y="382" width="183" height="77" rx="10" fill="#FCFCFC"/>
<path d="M544.178 413.455V428H541.99V415.33H535.144V428H532.956V413.455H544.178ZM549.444 425.024L554.252 417.091H556.539V428H554.458V420.06L549.671 428H547.363V417.091H549.444V425.024ZM563.99 428.22C562.934 428.22 562.025 427.981 561.262 427.503C560.505 427.02 559.922 426.355 559.515 425.507C559.108 424.66 558.904 423.689 558.904 422.595C558.904 421.487 559.113 420.509 559.529 419.662C559.946 418.81 560.533 418.144 561.291 417.666C562.048 417.188 562.941 416.949 563.968 416.949C564.797 416.949 565.535 417.103 566.184 417.411C566.833 417.714 567.356 418.14 567.754 418.689C568.156 419.238 568.395 419.88 568.471 420.614H566.404C566.291 420.102 566.03 419.662 565.623 419.293C565.221 418.923 564.681 418.739 564.004 418.739C563.412 418.739 562.893 418.895 562.448 419.207C562.008 419.515 561.665 419.955 561.419 420.528C561.172 421.097 561.049 421.769 561.049 422.545C561.049 423.341 561.17 424.027 561.411 424.605C561.653 425.183 561.994 425.63 562.434 425.947C562.879 426.265 563.402 426.423 564.004 426.423C564.406 426.423 564.771 426.35 565.097 426.203C565.429 426.052 565.706 425.836 565.928 425.557C566.156 425.277 566.314 424.941 566.404 424.548H568.471C568.395 425.254 568.166 425.884 567.782 426.438C567.399 426.991 566.885 427.427 566.241 427.744C565.602 428.062 564.851 428.22 563.99 428.22ZM572.34 420.841H575.508C576.843 420.841 577.87 421.172 578.59 421.835C579.31 422.498 579.67 423.353 579.67 424.399C579.67 425.081 579.509 425.694 579.187 426.239C578.865 426.783 578.394 427.214 577.773 427.531C577.153 427.844 576.398 428 575.508 428H570.742V417.091H572.823V426.168H575.508C576.118 426.168 576.62 426.009 577.013 425.692C577.406 425.37 577.603 424.96 577.603 424.463C577.603 423.937 577.406 423.509 577.013 423.178C576.62 422.841 576.118 422.673 575.508 422.673H572.34V420.841ZM588.173 425.372L591.695 417.091H593.528L588.961 428H587.384L582.91 417.091H584.721L588.173 425.372ZM584.132 417.091V428H582.051V417.091H584.132ZM592.271 428V417.091H594.338V428H592.271ZM601.763 428.22C600.74 428.22 599.848 427.986 599.085 427.517C598.323 427.048 597.731 426.393 597.31 425.55C596.888 424.707 596.678 423.722 596.678 422.595C596.678 421.464 596.888 420.474 597.31 419.626C597.731 418.779 598.323 418.121 599.085 417.652C599.848 417.183 600.74 416.949 601.763 416.949C602.786 416.949 603.678 417.183 604.441 417.652C605.203 418.121 605.795 418.779 606.216 419.626C606.637 420.474 606.848 421.464 606.848 422.595C606.848 423.722 606.637 424.707 606.216 425.55C605.795 426.393 605.203 427.048 604.441 427.517C603.678 427.986 602.786 428.22 601.763 428.22ZM601.77 426.438C602.433 426.438 602.982 426.262 603.418 425.912C603.853 425.562 604.175 425.095 604.384 424.513C604.597 423.93 604.703 423.289 604.703 422.588C604.703 421.892 604.597 421.253 604.384 420.67C604.175 420.083 603.853 419.612 603.418 419.257C602.982 418.902 602.433 418.724 601.77 418.724C601.102 418.724 600.548 418.902 600.108 419.257C599.673 419.612 599.348 420.083 599.135 420.67C598.927 421.253 598.823 421.892 598.823 422.588C598.823 423.289 598.927 423.93 599.135 424.513C599.348 425.095 599.673 425.562 600.108 425.912C600.548 426.262 601.102 426.438 601.77 426.438Z" fill="#0D0D0D"/>
<rect x="478" y="382" width="183" height="77" rx="10" stroke="#6CA9E9" stroke-width="4"/>
<rect x="498" y="147" width="183" height="77" rx="10" fill="#FCFCFC"/>
<path d="M530.692 193.199V191.267H531.566C531.93 191.267 532.231 191.205 532.468 191.082C532.709 190.959 532.906 190.794 533.057 190.585C533.214 190.372 533.344 190.14 533.448 189.889L533.654 189.371L528.54 178.455H530.87L534.684 186.864L538.079 178.455H540.38L535.351 190.479C535.138 190.962 534.892 191.409 534.613 191.821C534.338 192.233 533.971 192.567 533.512 192.822C533.053 193.073 532.444 193.199 531.687 193.199H530.692ZM541.484 193V182.091H550.383V193H548.302V183.923H543.551V193H541.484ZM553.222 197.091V182.091H555.296V183.859H555.474C555.597 183.632 555.775 183.369 556.007 183.071C556.239 182.773 556.561 182.512 556.972 182.29C557.384 182.062 557.929 181.949 558.606 181.949C559.487 181.949 560.273 182.171 560.964 182.616C561.655 183.062 562.197 183.703 562.59 184.541C562.988 185.379 563.187 186.388 563.187 187.567C563.187 188.746 562.99 189.757 562.597 190.599C562.204 191.437 561.665 192.084 560.978 192.538C560.292 192.988 559.508 193.213 558.627 193.213C557.964 193.213 557.422 193.102 557.001 192.879C556.584 192.657 556.258 192.396 556.021 192.098C555.784 191.8 555.602 191.535 555.474 191.303H555.346V197.091H553.222ZM555.303 187.545C555.303 188.312 555.415 188.985 555.637 189.562C555.86 190.14 556.182 190.592 556.603 190.919C557.025 191.241 557.541 191.402 558.151 191.402C558.786 191.402 559.316 191.234 559.742 190.898C560.169 190.557 560.49 190.095 560.708 189.513C560.931 188.93 561.042 188.275 561.042 187.545C561.042 186.826 560.933 186.179 560.715 185.607C560.502 185.034 560.18 184.581 559.749 184.25C559.323 183.919 558.791 183.753 558.151 183.753C557.536 183.753 557.015 183.911 556.589 184.229C556.168 184.546 555.848 184.989 555.63 185.557C555.412 186.125 555.303 186.788 555.303 187.545ZM568.741 193.241C568.05 193.241 567.425 193.114 566.866 192.858C566.307 192.598 565.865 192.221 565.538 191.729C565.216 191.236 565.055 190.633 565.055 189.918C565.055 189.302 565.173 188.795 565.41 188.398C565.647 188 565.966 187.685 566.369 187.453C566.771 187.221 567.221 187.046 567.718 186.928C568.215 186.809 568.722 186.719 569.238 186.658C569.892 186.582 570.422 186.52 570.829 186.473C571.236 186.421 571.532 186.338 571.717 186.224C571.901 186.111 571.994 185.926 571.994 185.67V185.621C571.994 185 571.819 184.52 571.468 184.179C571.123 183.838 570.606 183.668 569.92 183.668C569.205 183.668 568.642 183.826 568.23 184.143C567.822 184.456 567.541 184.804 567.384 185.188L565.389 184.733C565.625 184.07 565.971 183.535 566.426 183.128C566.885 182.716 567.413 182.418 568.009 182.233C568.606 182.044 569.233 181.949 569.892 181.949C570.327 181.949 570.789 182.001 571.276 182.105C571.769 182.205 572.228 182.389 572.654 182.659C573.085 182.929 573.438 183.315 573.713 183.817C573.987 184.314 574.124 184.96 574.124 185.756V193H572.051V191.509H571.965C571.828 191.783 571.622 192.053 571.347 192.318C571.073 192.583 570.72 192.804 570.289 192.979C569.858 193.154 569.342 193.241 568.741 193.241ZM569.203 191.537C569.79 191.537 570.292 191.421 570.708 191.189C571.13 190.957 571.449 190.654 571.667 190.28C571.89 189.901 572.001 189.496 572.001 189.065V187.659C571.925 187.735 571.778 187.806 571.561 187.872C571.347 187.934 571.104 187.988 570.829 188.036C570.554 188.078 570.287 188.118 570.026 188.156C569.766 188.189 569.548 188.218 569.373 188.241C568.961 188.294 568.585 188.381 568.244 188.504C567.908 188.627 567.638 188.805 567.434 189.037C567.235 189.264 567.136 189.567 567.136 189.946C567.136 190.472 567.33 190.869 567.718 191.139C568.106 191.404 568.601 191.537 569.203 191.537ZM576.257 193L580.483 187.418L576.307 182.091H578.778L582.152 186.622H582.912V182.091H585.035V186.622H585.774L589.148 182.091H591.619L587.464 187.418L591.669 193H589.148L585.746 188.455H585.035V193H582.912V188.455H582.202L578.778 193H576.257ZM601.221 186.629V188.469H595.312V186.629H601.221ZM595.909 182.091V193H593.828V182.091H595.909ZM602.706 182.091V193H600.632V182.091H602.706ZM610.248 193.22C609.174 193.22 608.248 192.991 607.471 192.531C606.7 192.067 606.103 191.416 605.682 190.578C605.265 189.735 605.057 188.748 605.057 187.616C605.057 186.499 605.265 185.514 605.682 184.662C606.103 183.81 606.69 183.144 607.443 182.666C608.201 182.188 609.086 181.949 610.099 181.949C610.715 181.949 611.311 182.051 611.889 182.254C612.467 182.458 612.985 182.777 613.444 183.213C613.904 183.649 614.266 184.214 614.531 184.911C614.796 185.602 614.929 186.442 614.929 187.432V188.185H606.257V186.594H612.848C612.848 186.035 612.734 185.54 612.507 185.109C612.28 184.674 611.96 184.33 611.548 184.08C611.141 183.829 610.663 183.703 610.113 183.703C609.517 183.703 608.996 183.85 608.551 184.143C608.111 184.432 607.77 184.811 607.528 185.28C607.291 185.744 607.173 186.248 607.173 186.793V188.036C607.173 188.765 607.301 189.385 607.557 189.896C607.817 190.408 608.179 190.798 608.643 191.068C609.107 191.333 609.649 191.466 610.27 191.466C610.672 191.466 611.039 191.409 611.371 191.295C611.702 191.177 611.988 191.002 612.23 190.77C612.471 190.538 612.656 190.251 612.784 189.911L614.794 190.273C614.633 190.865 614.344 191.383 613.927 191.828C613.515 192.268 612.997 192.612 612.372 192.858C611.752 193.099 611.044 193.22 610.248 193.22ZM624.678 186.629V188.469H618.769V186.629H624.678ZM619.366 182.091V193H617.285V182.091H619.366ZM626.163 182.091V193H624.089V182.091H626.163ZM631.085 190.024L635.893 182.091H638.18V193H636.099V185.06L631.312 193H629.004V182.091H631.085V190.024ZM647.541 193V183.902H644.927C644.307 183.902 643.824 184.046 643.478 184.335C643.133 184.624 642.96 185.003 642.96 185.472C642.96 185.936 643.118 186.31 643.436 186.594C643.758 186.873 644.207 187.013 644.785 187.013H648.159V188.732H644.785C643.98 188.732 643.284 188.599 642.697 188.334C642.115 188.064 641.665 187.683 641.347 187.19C641.035 186.698 640.879 186.116 640.879 185.443C640.879 184.757 641.04 184.165 641.362 183.668C641.688 183.166 642.155 182.777 642.761 182.503C643.372 182.228 644.094 182.091 644.927 182.091H649.536V193H647.541ZM640.382 193L643.457 187.489H645.63L642.555 193H640.382Z" fill="#0D0D0D"/>
<rect x="498" y="147" width="183" height="77" rx="10" stroke="#7F5DC1" stroke-width="4"/>
<rect x="297" y="2" width="183" height="77" rx="10" fill="#FCFCFC"/>
<path d="M354.295 33.4545H356.462V38.2557C356.462 38.9233 356.578 39.4512 356.81 39.8395C357.042 40.223 357.378 40.4953 357.818 40.6562C358.263 40.8172 358.803 40.8977 359.438 40.8977C359.774 40.8977 360.115 40.8859 360.46 40.8622C360.811 40.8338 361.159 40.7959 361.504 40.7486C361.85 40.6965 362.184 40.6373 362.506 40.571C362.832 40.5 363.135 40.4219 363.415 40.3366V42.2045C363.14 42.2945 362.849 42.375 362.541 42.446C362.238 42.5123 361.921 42.5715 361.589 42.6236C361.258 42.6709 360.912 42.7088 360.553 42.7372C360.193 42.7656 359.821 42.7798 359.438 42.7798C358.377 42.7798 357.461 42.6283 356.689 42.3253C355.922 42.0175 355.33 41.5322 354.913 40.8693C354.501 40.2064 354.295 39.3352 354.295 38.2557V33.4545ZM363.088 33.4545H365.261V48H363.088V33.4545ZM367.852 38.9233V37.0909H377.056V38.9233H373.498V48H371.424V38.9233H367.852ZM383.496 48.2202C382.422 48.2202 381.496 47.9905 380.719 47.5312C379.948 47.0672 379.351 46.4162 378.93 45.5781C378.513 44.7353 378.305 43.7481 378.305 42.6165C378.305 41.4991 378.513 40.5142 378.93 39.6619C379.351 38.8097 379.938 38.1444 380.691 37.6662C381.449 37.188 382.334 36.9489 383.347 36.9489C383.963 36.9489 384.559 37.0507 385.137 37.2543C385.715 37.4579 386.233 37.7775 386.692 38.2131C387.152 38.6487 387.514 39.2145 387.779 39.9105C388.044 40.6018 388.177 41.4422 388.177 42.4318V43.1847H379.505V41.5938H386.096C386.096 41.035 385.982 40.5402 385.755 40.1094C385.528 39.6738 385.208 39.3305 384.796 39.0795C384.389 38.8286 383.911 38.7031 383.362 38.7031C382.765 38.7031 382.244 38.8499 381.799 39.1435C381.359 39.4323 381.018 39.8111 380.776 40.2798C380.54 40.7438 380.421 41.2481 380.421 41.7926V43.0355C380.421 43.7647 380.549 44.3849 380.805 44.8963C381.065 45.4077 381.427 45.7983 381.891 46.0682C382.355 46.3333 382.897 46.4659 383.518 46.4659C383.92 46.4659 384.287 46.4091 384.619 46.2955C384.95 46.1771 385.237 46.0019 385.478 45.7699C385.719 45.5379 385.904 45.2514 386.032 44.9105L388.042 45.2727C387.881 45.8646 387.592 46.383 387.175 46.8281C386.763 47.2685 386.245 47.6117 385.62 47.858C385 48.0994 384.292 48.2202 383.496 48.2202ZM397.926 41.6293V43.4688H392.017V41.6293H397.926ZM392.614 37.0909V48H390.533V37.0909H392.614ZM399.411 37.0909V48H397.337V37.0909H399.411ZM404.333 45.0241L409.141 37.0909H411.428V48H409.347V40.0597L404.56 48H402.252V37.0909H404.333V45.0241ZM418.985 48.2202C417.91 48.2202 416.984 47.9905 416.208 47.5312C415.436 47.0672 414.839 46.4162 414.418 45.5781C414.001 44.7353 413.793 43.7481 413.793 42.6165C413.793 41.4991 414.001 40.5142 414.418 39.6619C414.839 38.8097 415.426 38.1444 416.179 37.6662C416.937 37.188 417.822 36.9489 418.836 36.9489C419.451 36.9489 420.048 37.0507 420.625 37.2543C421.203 37.4579 421.721 37.7775 422.181 38.2131C422.64 38.6487 423.002 39.2145 423.267 39.9105C423.533 40.6018 423.665 41.4422 423.665 42.4318V43.1847H414.993V41.5938H421.584C421.584 41.035 421.471 40.5402 421.243 40.1094C421.016 39.6738 420.696 39.3305 420.284 39.0795C419.877 38.8286 419.399 38.7031 418.85 38.7031C418.253 38.7031 417.732 38.8499 417.287 39.1435C416.847 39.4323 416.506 39.8111 416.265 40.2798C416.028 40.7438 415.909 41.2481 415.909 41.7926V43.0355C415.909 43.7647 416.037 44.3849 416.293 44.8963C416.553 45.4077 416.916 45.7983 417.38 46.0682C417.844 46.3333 418.386 46.4659 419.006 46.4659C419.408 46.4659 419.775 46.4091 420.107 46.2955C420.438 46.1771 420.725 46.0019 420.966 45.7699C421.208 45.5379 421.392 45.2514 421.52 44.9105L423.53 45.2727C423.369 45.8646 423.08 46.383 422.664 46.8281C422.252 47.2685 421.733 47.6117 421.108 47.858C420.488 48.0994 419.78 48.2202 418.985 48.2202Z" fill="#0D0D0D"/>
<rect x="297" y="2" width="183" height="77" rx="10" stroke="#E28731" stroke-width="4"/>
<rect x="2" y="262" width="183" height="77" rx="10" fill="#FCFCFC"/>
<path d="M65.856 308H63.5265L68.7608 293.455H71.2963L76.5307 308H74.2012L70.089 296.097H69.9753L65.856 308ZM66.2466 302.304H73.8034V304.151H66.2466V302.304ZM78.4359 312.091C78.1187 312.091 77.8298 312.065 77.5694 312.013C77.309 311.965 77.1149 311.913 76.987 311.857L77.4984 310.116C77.8867 310.221 78.2323 310.266 78.5353 310.251C78.8384 310.237 79.1059 310.124 79.3379 309.911C79.5746 309.697 79.783 309.349 79.9629 308.866L80.2257 308.142L76.2342 297.091H78.5069L81.2697 305.557H81.3833L84.1461 297.091H86.426L81.9302 309.456C81.7219 310.024 81.4567 310.505 81.1348 310.898C80.8128 311.295 80.4293 311.594 79.9842 311.793C79.5391 311.991 79.023 312.091 78.4359 312.091ZM86.4579 311.146V306.161H87.3457C87.573 305.952 87.7647 305.704 87.921 305.415C88.082 305.126 88.2169 304.783 88.3258 304.385C88.4395 303.987 88.5342 303.523 88.6099 302.993C88.6857 302.458 88.752 301.847 88.8088 301.161L89.1497 297.091H96.5645V306.161H98.2406V311.146H96.1667V308H88.5602V311.146H86.4579ZM89.6184 306.161H94.4906V298.909H91.0531L90.8258 301.161C90.7169 302.306 90.5796 303.301 90.4139 304.143C90.2482 304.982 89.983 305.654 89.6184 306.161ZM102.397 305.024L107.205 297.091H109.492V308H107.411V300.06L102.624 308H100.316V297.091H102.397V305.024ZM116.943 308.22C115.92 308.22 115.027 307.986 114.265 307.517C113.503 307.048 112.911 306.393 112.49 305.55C112.068 304.707 111.857 303.722 111.857 302.595C111.857 301.464 112.068 300.474 112.49 299.626C112.911 298.779 113.503 298.121 114.265 297.652C115.027 297.183 115.92 296.949 116.943 296.949C117.965 296.949 118.858 297.183 119.62 297.652C120.383 298.121 120.974 298.779 121.396 299.626C121.817 300.474 122.028 301.464 122.028 302.595C122.028 303.722 121.817 304.707 121.396 305.55C120.974 306.393 120.383 307.048 119.62 307.517C118.858 307.986 117.965 308.22 116.943 308.22ZM116.95 306.438C117.613 306.438 118.162 306.262 118.597 305.912C119.033 305.562 119.355 305.095 119.563 304.513C119.776 303.93 119.883 303.289 119.883 302.588C119.883 301.892 119.776 301.253 119.563 300.67C119.355 300.083 119.033 299.612 118.597 299.257C118.162 298.902 117.613 298.724 116.95 298.724C116.282 298.724 115.728 298.902 115.288 299.257C114.852 299.612 114.528 300.083 114.315 300.67C114.106 301.253 114.002 301.892 114.002 302.588C114.002 303.289 114.106 303.93 114.315 304.513C114.528 305.095 114.852 305.562 115.288 305.912C115.728 306.262 116.282 306.438 116.95 306.438Z" fill="#0D0D0D"/>
<rect x="2" y="262" width="183" height="77" rx="10" stroke="#48C61C" stroke-width="4"/>
</svg>
