<svg width="130" height="214" viewBox="0 0 130 214" fill="none" xmlns="http://www.w3.org/2000/svg">
<rect x="1" y="1" width="128" height="38" rx="11" fill="#FCFCFC"/>
<path d="M29.8443 15.8182V17.1406H25.0318V26H23.4956V15.8182H29.8443ZM30.6634 28.8636V18.3636H32.1151V19.6016H32.2393C32.3255 19.4425 32.4498 19.2585 32.6122 19.0497C32.7746 18.8409 33 18.6586 33.2884 18.5028C33.5767 18.3438 33.9579 18.2642 34.4318 18.2642C35.0483 18.2642 35.5985 18.42 36.0824 18.7315C36.5663 19.0431 36.9458 19.4922 37.2209 20.0788C37.4993 20.6655 37.6385 21.3714 37.6385 22.1967C37.6385 23.022 37.5009 23.7296 37.2259 24.3196C36.9508 24.9062 36.5729 25.3587 36.0923 25.6768C35.6117 25.9917 35.0632 26.1491 34.4467 26.1491C33.9827 26.1491 33.6032 26.0713 33.3082 25.9155C33.0166 25.7597 32.7879 25.5774 32.6222 25.3686C32.4564 25.1598 32.3288 24.9742 32.2393 24.8118H32.1499V28.8636H30.6634ZM32.12 22.1818C32.12 22.7187 32.1979 23.1894 32.3537 23.5938C32.5095 23.9981 32.7348 24.3146 33.0298 24.5433C33.3248 24.7687 33.6861 24.8814 34.1136 24.8814C34.5578 24.8814 34.929 24.7637 35.2273 24.5284C35.5256 24.2898 35.7509 23.9666 35.9034 23.5589C36.0592 23.1513 36.1371 22.6922 36.1371 22.1818C36.1371 21.678 36.0608 21.2256 35.9084 20.8246C35.7592 20.4235 35.5339 20.107 35.2322 19.875C34.9339 19.643 34.5611 19.527 34.1136 19.527C33.6828 19.527 33.3182 19.638 33.0199 19.8601C32.7249 20.0821 32.5012 20.392 32.3487 20.7898C32.1963 21.1875 32.12 21.6515 32.12 22.1818ZM41.5263 26.169C41.0424 26.169 40.6049 26.0795 40.2138 25.9006C39.8227 25.7183 39.5128 25.4548 39.2841 25.1101C39.0587 24.7654 38.946 24.3428 38.946 23.8423C38.946 23.4115 39.0289 23.0568 39.1946 22.7784C39.3603 22.5 39.584 22.2796 39.8658 22.1172C40.1475 21.9548 40.4624 21.8321 40.8104 21.7493C41.1584 21.6664 41.513 21.6035 41.8743 21.5604C42.3317 21.5073 42.7029 21.4643 42.9879 21.4311C43.273 21.3946 43.4801 21.3366 43.6094 21.2571C43.7386 21.1776 43.8033 21.0483 43.8033 20.8693V20.8345C43.8033 20.4003 43.6806 20.0639 43.4354 19.8253C43.1934 19.5866 42.8321 19.4673 42.3516 19.4673C41.8511 19.4673 41.4567 19.5784 41.1683 19.8004C40.8833 20.0192 40.6861 20.2628 40.5767 20.5312L39.1797 20.2131C39.3454 19.7491 39.5874 19.3745 39.9055 19.0895C40.227 18.8011 40.5966 18.5923 41.0142 18.4631C41.4318 18.3305 41.871 18.2642 42.3317 18.2642C42.6366 18.2642 42.9598 18.3007 43.3011 18.3736C43.6458 18.4432 43.9673 18.5724 44.2656 18.7614C44.5672 18.9503 44.8142 19.2204 45.0064 19.5717C45.1986 19.9197 45.2947 20.3722 45.2947 20.929V26H43.843V24.956H43.7834C43.6873 25.1482 43.5431 25.3371 43.3509 25.5227C43.1586 25.7083 42.9117 25.8625 42.6101 25.9851C42.3085 26.1077 41.9472 26.169 41.5263 26.169ZM41.8494 24.9759C42.2604 24.9759 42.6117 24.8946 42.9034 24.7322C43.1984 24.5698 43.4221 24.3577 43.5746 24.0959C43.7304 23.8307 43.8082 23.5473 43.8082 23.2457V22.2614C43.7552 22.3144 43.6525 22.3641 43.5 22.4105C43.3509 22.4536 43.1802 22.4917 42.9879 22.5249C42.7957 22.5547 42.6084 22.5829 42.4261 22.6094C42.2438 22.6326 42.0914 22.6525 41.9688 22.669C41.6804 22.7055 41.4169 22.7668 41.1783 22.853C40.9429 22.9392 40.754 23.0634 40.6115 23.2259C40.4723 23.3849 40.4027 23.5971 40.4027 23.8622C40.4027 24.2301 40.5386 24.5085 40.8104 24.6974C41.0821 24.883 41.4285 24.9759 41.8494 24.9759ZM51.5602 24.1605L54.0261 18.3636H55.3088L52.112 26H51.0083L47.8762 18.3636H49.144L51.5602 24.1605ZM48.7314 18.3636V26H47.2747V18.3636H48.7314ZM54.4288 26V18.3636H55.8755V26H54.4288ZM62.1422 24.1605L64.6081 18.3636H65.8908L62.6941 26H61.5904L58.4583 18.3636H59.726L62.1422 24.1605ZM59.3134 18.3636V26H57.8567V18.3636H59.3134ZM65.0108 26V18.3636H66.4576V26H65.0108ZM70.661 26.169C70.1771 26.169 69.7396 26.0795 69.3485 25.9006C68.9574 25.7183 68.6475 25.4548 68.4189 25.1101C68.1935 24.7654 68.0808 24.3428 68.0808 23.8423C68.0808 23.4115 68.1636 23.0568 68.3294 22.7784C68.4951 22.5 68.7188 22.2796 69.0005 22.1172C69.2823 21.9548 69.5971 21.8321 69.9451 21.7493C70.2931 21.6664 70.6478 21.6035 71.0091 21.5604C71.4664 21.5073 71.8377 21.4643 72.1227 21.4311C72.4077 21.3946 72.6149 21.3366 72.7441 21.2571C72.8734 21.1776 72.938 21.0483 72.938 20.8693V20.8345C72.938 20.4003 72.8154 20.0639 72.5701 19.8253C72.3282 19.5866 71.9669 19.4673 71.4863 19.4673C70.9859 19.4673 70.5914 19.5784 70.3031 19.8004C70.0181 20.0192 69.8208 20.2628 69.7115 20.5312L68.3145 20.2131C68.4802 19.7491 68.7221 19.3745 69.0403 19.0895C69.3618 18.8011 69.7314 18.5923 70.149 18.4631C70.5666 18.3305 71.0057 18.2642 71.4664 18.2642C71.7714 18.2642 72.0945 18.3007 72.4359 18.3736C72.7806 18.4432 73.1021 18.5724 73.4004 18.7614C73.702 18.9503 73.9489 19.2204 74.1412 19.5717C74.3334 19.9197 74.4295 20.3722 74.4295 20.929V26H72.9778V24.956H72.9181C72.822 25.1482 72.6779 25.3371 72.4856 25.5227C72.2934 25.7083 72.0465 25.8625 71.7449 25.9851C71.4432 26.1077 71.082 26.169 70.661 26.169ZM70.9842 24.9759C71.3952 24.9759 71.7465 24.8946 72.0382 24.7322C72.3332 24.5698 72.5569 24.3577 72.7093 24.0959C72.8651 23.8307 72.943 23.5473 72.943 23.2457V22.2614C72.89 22.3144 72.7872 22.3641 72.6348 22.4105C72.4856 22.4536 72.3149 22.4917 72.1227 22.5249C71.9305 22.5547 71.7432 22.5829 71.5609 22.6094C71.3786 22.6326 71.2261 22.6525 71.1035 22.669C70.8152 22.7055 70.5517 22.7668 70.313 22.853C70.0777 22.9392 69.8888 23.0634 69.7463 23.2259C69.6071 23.3849 69.5375 23.5971 69.5375 23.8622C69.5375 24.2301 69.6734 24.5085 69.9451 24.6974C70.2169 24.883 70.5633 24.9759 70.9842 24.9759ZM75.4624 19.6463V18.3636H81.9055V19.6463H79.4148V26H77.9631V19.6463H75.4624ZM84.9345 23.9169L88.3002 18.3636H89.9011V26H88.4444V20.4418L85.0936 26H83.4778V18.3636H84.9345V23.9169ZM91.8997 26V18.3636H93.3862V21.5653H94.1021L96.6227 18.3636H98.4622L95.5041 22.0774L98.497 26H96.6525L94.3507 22.9474H93.3862V26H91.8997ZM101.874 26.169C101.39 26.169 100.953 26.0795 100.561 25.9006C100.17 25.7183 99.8604 25.4548 99.6317 25.1101C99.4064 24.7654 99.2937 24.3428 99.2937 23.8423C99.2937 23.4115 99.3765 23.0568 99.5423 22.7784C99.708 22.5 99.9317 22.2796 100.213 22.1172C100.495 21.9548 100.81 21.8321 101.158 21.7493C101.506 21.6664 101.861 21.6035 102.222 21.5604C102.679 21.5073 103.051 21.4643 103.336 21.4311C103.621 21.3946 103.828 21.3366 103.957 21.2571C104.086 21.1776 104.151 21.0483 104.151 20.8693V20.8345C104.151 20.4003 104.028 20.0639 103.783 19.8253C103.541 19.5866 103.18 19.4673 102.699 19.4673C102.199 19.4673 101.804 19.5784 101.516 19.8004C101.231 20.0192 101.034 20.2628 100.924 20.5312L99.5273 20.2131C99.6931 19.7491 99.935 19.3745 100.253 19.0895C100.575 18.8011 100.944 18.5923 101.362 18.4631C101.779 18.3305 102.219 18.2642 102.679 18.2642C102.984 18.2642 103.307 18.3007 103.649 18.3736C103.993 18.4432 104.315 18.5724 104.613 18.7614C104.915 18.9503 105.162 19.2204 105.354 19.5717C105.546 19.9197 105.642 20.3722 105.642 20.929V26H104.191V24.956H104.131C104.035 25.1482 103.891 25.3371 103.699 25.5227C103.506 25.7083 103.259 25.8625 102.958 25.9851C102.656 26.1077 102.295 26.169 101.874 26.169ZM102.197 24.9759C102.608 24.9759 102.959 24.8946 103.251 24.7322C103.546 24.5698 103.77 24.3577 103.922 24.0959C104.078 23.8307 104.156 23.5473 104.156 23.2457V22.2614C104.103 22.3144 104 22.3641 103.848 22.4105C103.699 22.4536 103.528 22.4917 103.336 22.5249C103.143 22.5547 102.956 22.5829 102.774 22.6094C102.592 22.6326 102.439 22.6525 102.316 22.669C102.028 22.7055 101.765 22.7668 101.526 22.853C101.291 22.9392 101.102 23.0634 100.959 23.2259C100.82 23.3849 100.75 23.5971 100.75 23.8622C100.75 24.2301 100.886 24.5085 101.158 24.6974C101.43 24.883 101.776 24.9759 102.197 24.9759Z" fill="#0D0D0D"/>
<rect x="1" y="1" width="128" height="38" rx="11" stroke="#1676D8" stroke-width="2"/>
<rect x="1" y="45" width="128" height="38" rx="11" fill="#FCFCFC"/>
<path d="M40.5568 59.8182H42.0732V63.179C42.0732 63.6463 42.1544 64.0159 42.3168 64.2876C42.4792 64.5561 42.7145 64.7467 43.0227 64.8594C43.3343 64.9721 43.7121 65.0284 44.1562 65.0284C44.3916 65.0284 44.6302 65.0201 44.8722 65.0036C45.1174 64.9837 45.361 64.9571 45.603 64.924C45.8449 64.8875 46.0786 64.8461 46.304 64.7997C46.5327 64.75 46.7448 64.6953 46.9403 64.6357V65.9432C46.7481 66.0062 46.5443 66.0625 46.3288 66.1122C46.1167 66.1586 45.8946 66.2 45.6626 66.2365C45.4306 66.2696 45.1887 66.2962 44.9368 66.3161C44.6849 66.3359 44.4247 66.3459 44.1562 66.3459C43.4138 66.3459 42.7725 66.2398 42.2322 66.0277C41.6953 65.8123 41.281 65.4725 40.9893 65.0085C40.701 64.5445 40.5568 63.9347 40.5568 63.179V59.8182ZM46.7116 59.8182H48.233V70H46.7116V59.8182ZM50.0463 63.6463V62.3636H56.4895V63.6463H53.9988V70H52.5471V63.6463H50.0463ZM60.9975 70.1541C60.2451 70.1541 59.5972 69.9934 59.0536 69.6719C58.5134 69.3471 58.0958 68.8913 57.8008 68.3047C57.5091 67.7147 57.3633 67.0237 57.3633 66.2315C57.3633 65.4493 57.5091 64.7599 57.8008 64.1634C58.0958 63.5668 58.5067 63.1011 59.0337 62.7663C59.564 62.4316 60.1838 62.2642 60.8931 62.2642C61.324 62.2642 61.7416 62.3355 62.146 62.478C62.5503 62.6205 62.9132 62.8442 63.2347 63.1491C63.5562 63.4541 63.8098 63.8501 63.9954 64.3374C64.181 64.8213 64.2738 65.4096 64.2738 66.1023V66.6293H58.2035V65.5156H62.8171C62.8171 65.1245 62.7376 64.7782 62.5785 64.4766C62.4194 64.1716 62.1957 63.9313 61.9073 63.7557C61.6223 63.58 61.2875 63.4922 60.9031 63.4922C60.4854 63.4922 60.1209 63.5949 59.8093 63.8004C59.5011 64.0026 59.2624 64.2678 59.0934 64.5959C58.9277 64.9207 58.8448 65.2737 58.8448 65.6548V66.5249C58.8448 67.0353 58.9343 67.4695 59.1133 67.8274C59.2956 68.1854 59.5491 68.4588 59.8739 68.6477C60.1987 68.8333 60.5782 68.9261 61.0124 68.9261C61.2942 68.9261 61.551 68.8864 61.783 68.8068C62.015 68.724 62.2156 68.6013 62.3846 68.4389C62.5536 68.2765 62.6829 68.076 62.7724 67.8374L64.1793 68.0909C64.0666 68.5052 63.8645 68.8681 63.5728 69.1797C63.2844 69.4879 62.9215 69.7282 62.484 69.9006C62.0498 70.0696 61.5543 70.1541 60.9975 70.1541ZM71.0985 65.5405V66.8281H66.9622V65.5405H71.0985ZM67.3798 62.3636V70H65.9231V62.3636H67.3798ZM72.1376 62.3636V70H70.6859V62.3636H72.1376ZM75.5829 67.9169L78.9487 62.3636H80.5495V70H79.0929V64.4418L75.742 70H74.1262V62.3636H75.5829V67.9169ZM85.8393 70.1541C85.0869 70.1541 84.439 69.9934 83.8954 69.6719C83.3552 69.3471 82.9376 68.8913 82.6426 68.3047C82.3509 67.7147 82.2051 67.0237 82.2051 66.2315C82.2051 65.4493 82.3509 64.7599 82.6426 64.1634C82.9376 63.5668 83.3485 63.1011 83.8755 62.7663C84.4058 62.4316 85.0256 62.2642 85.7349 62.2642C86.1658 62.2642 86.5834 62.3355 86.9877 62.478C87.3921 62.6205 87.755 62.8442 88.0765 63.1491C88.398 63.4541 88.6516 63.8501 88.8372 64.3374C89.0228 64.8213 89.1156 65.4096 89.1156 66.1023V66.6293H83.0453V65.5156H87.6589C87.6589 65.1245 87.5794 64.7782 87.4203 64.4766C87.2612 64.1716 87.0375 63.9313 86.7491 63.7557C86.4641 63.58 86.1293 63.4922 85.7449 63.4922C85.3272 63.4922 84.9627 63.5949 84.6511 63.8004C84.3429 64.0026 84.1042 64.2678 83.9352 64.5959C83.7695 64.9207 83.6866 65.2737 83.6866 65.6548V66.5249C83.6866 67.0353 83.7761 67.4695 83.9551 67.8274C84.1374 68.1854 84.3909 68.4588 84.7157 68.6477C85.0405 68.8333 85.42 68.9261 85.8542 68.9261C86.1359 68.9261 86.3928 68.8864 86.6248 68.8068C86.8568 68.724 87.0574 68.6013 87.2264 68.4389C87.3954 68.2765 87.5247 68.076 87.6142 67.8374L89.0211 68.0909C88.9084 68.5052 88.7063 68.8681 88.4146 69.1797C88.1262 69.4879 87.7633 69.7282 87.3258 69.9006C86.8916 70.0696 86.3961 70.1541 85.8393 70.1541Z" fill="#0D0D0D"/>
<rect x="1" y="45" width="128" height="38" rx="11" stroke="#E28731" stroke-width="2"/>
<rect x="1" y="89" width="128" height="38" rx="11" fill="#FCFCFC"/>
<path d="M23.3346 114.139V112.787H23.9461C24.2013 112.787 24.4118 112.744 24.5775 112.658C24.7465 112.571 24.8841 112.455 24.9901 112.31C25.0995 112.161 25.1907 111.998 25.2636 111.822L25.4078 111.46L21.8282 103.818H23.4589L26.1286 109.705L28.5051 103.818H30.1159L26.596 112.235C26.4468 112.573 26.2745 112.886 26.0789 113.175C25.8867 113.463 25.6298 113.697 25.3083 113.876C24.9868 114.051 24.5609 114.139 24.0306 114.139H23.3346ZM30.8889 114V106.364H37.1183V114H35.6617V107.646H32.3357V114H30.8889ZM39.1057 116.864V106.364H40.5574V107.602H40.6817C40.7679 107.442 40.8922 107.259 41.0546 107.05C41.217 106.841 41.4424 106.659 41.7307 106.503C42.0191 106.344 42.4002 106.264 42.8742 106.264C43.4907 106.264 44.0409 106.42 44.5248 106.732C45.0087 107.043 45.3882 107.492 45.6633 108.079C45.9417 108.665 46.0809 109.371 46.0809 110.197C46.0809 111.022 45.9433 111.73 45.6682 112.32C45.3931 112.906 45.0153 113.359 44.5347 113.677C44.0541 113.992 43.5056 114.149 42.8891 114.149C42.4251 114.149 42.0456 114.071 41.7506 113.915C41.459 113.76 41.2303 113.577 41.0645 113.369C40.8988 113.16 40.7712 112.974 40.6817 112.812H40.5922V116.864H39.1057ZM40.5624 110.182C40.5624 110.719 40.6403 111.189 40.7961 111.594C40.9519 111.998 41.1772 112.315 41.4722 112.543C41.7672 112.769 42.1285 112.881 42.556 112.881C43.0001 112.881 43.3714 112.764 43.6697 112.528C43.968 112.29 44.1933 111.967 44.3458 111.559C44.5016 111.151 44.5795 110.692 44.5795 110.182C44.5795 109.678 44.5032 109.226 44.3508 108.825C44.2016 108.424 43.9762 108.107 43.6746 107.875C43.3763 107.643 43.0035 107.527 42.556 107.527C42.1251 107.527 41.7606 107.638 41.4623 107.86C41.1673 108.082 40.9436 108.392 40.7911 108.79C40.6386 109.187 40.5624 109.652 40.5624 110.182ZM49.9687 114.169C49.4848 114.169 49.0473 114.08 48.6562 113.901C48.2651 113.718 47.9552 113.455 47.7265 113.11C47.5011 112.765 47.3884 112.343 47.3884 111.842C47.3884 111.411 47.4713 111.057 47.637 110.778C47.8027 110.5 48.0264 110.28 48.3081 110.117C48.5899 109.955 48.9047 109.832 49.2528 109.749C49.6008 109.666 49.9554 109.603 50.3167 109.56C50.7741 109.507 51.1453 109.464 51.4303 109.431C51.7153 109.395 51.9225 109.337 52.0518 109.257C52.181 109.178 52.2456 109.048 52.2456 108.869V108.835C52.2456 108.4 52.123 108.064 51.8778 107.825C51.6358 107.587 51.2745 107.467 50.7939 107.467C50.2935 107.467 49.8991 107.578 49.6107 107.8C49.3257 108.019 49.1285 108.263 49.0191 108.531L47.6221 108.213C47.7878 107.749 48.0297 107.375 48.3479 107.089C48.6694 106.801 49.039 106.592 49.4566 106.463C49.8742 106.33 50.3134 106.264 50.7741 106.264C51.079 106.264 51.4021 106.301 51.7435 106.374C52.0882 106.443 52.4097 106.572 52.708 106.761C53.0096 106.95 53.2565 107.22 53.4488 107.572C53.641 107.92 53.7371 108.372 53.7371 108.929V114H52.2854V112.956H52.2258C52.1296 113.148 51.9855 113.337 51.7932 113.523C51.601 113.708 51.3541 113.862 51.0525 113.985C50.7509 114.108 50.3896 114.169 49.9687 114.169ZM50.2918 112.976C50.7028 112.976 51.0541 112.895 51.3458 112.732C51.6408 112.57 51.8645 112.358 52.017 112.096C52.1727 111.831 52.2506 111.547 52.2506 111.246V110.261C52.1976 110.314 52.0948 110.364 51.9424 110.411C51.7932 110.454 51.6225 110.492 51.4303 110.525C51.2381 110.555 51.0508 110.583 50.8685 110.609C50.6862 110.633 50.5338 110.652 50.4111 110.669C50.1228 110.705 49.8593 110.767 49.6206 110.853C49.3853 110.939 49.1964 111.063 49.0539 111.226C48.9147 111.385 48.8451 111.597 48.8451 111.862C48.8451 112.23 48.981 112.509 49.2528 112.697C49.5245 112.883 49.8709 112.976 50.2918 112.976ZM55.2298 114L58.1879 110.092L55.2646 106.364H56.9948L59.3563 109.536H59.8882V106.364H61.3747V109.536H61.8918L64.2533 106.364H65.9834L63.075 110.092L66.0182 114H64.2533L61.8719 110.818H61.3747V114H59.8882V110.818H59.3911L56.9948 114H55.2298ZM72.705 109.54V110.828H68.5686V109.54H72.705ZM68.9862 106.364V114H67.5296V106.364H68.9862ZM73.7441 106.364V114H72.2923V106.364H73.7441ZM79.0239 114.154C78.2715 114.154 77.6236 113.993 77.08 113.672C76.5397 113.347 76.1221 112.891 75.8271 112.305C75.5355 111.715 75.3896 111.024 75.3896 110.232C75.3896 109.449 75.5355 108.76 75.8271 108.163C76.1221 107.567 76.5331 107.101 77.0601 106.766C77.5904 106.432 78.2102 106.264 78.9195 106.264C79.3503 106.264 79.768 106.335 80.1723 106.478C80.5767 106.621 80.9396 106.844 81.2611 107.149C81.5826 107.454 81.8361 107.85 82.0218 108.337C82.2074 108.821 82.3002 109.41 82.3002 110.102V110.629H76.2298V109.516H80.8435C80.8435 109.125 80.7639 108.778 80.6048 108.477C80.4458 108.172 80.222 107.931 79.9337 107.756C79.6486 107.58 79.3139 107.492 78.9294 107.492C78.5118 107.492 78.1472 107.595 77.8357 107.8C77.5274 108.003 77.2888 108.268 77.1198 108.596C76.954 108.921 76.8712 109.274 76.8712 109.655V110.525C76.8712 111.035 76.9607 111.469 77.1396 111.827C77.3219 112.185 77.5755 112.459 77.9003 112.648C78.2251 112.833 78.6046 112.926 79.0388 112.926C79.3205 112.926 79.5774 112.886 79.8094 112.807C80.0414 112.724 80.2419 112.601 80.411 112.439C80.58 112.277 80.7093 112.076 80.7987 111.837L82.2057 112.091C82.093 112.505 81.8908 112.868 81.5992 113.18C81.3108 113.488 80.9479 113.728 80.5104 113.901C80.0762 114.07 79.5807 114.154 79.0239 114.154ZM89.1249 109.54V110.828H84.9885V109.54H89.1249ZM85.4062 106.364V114H83.9495V106.364H85.4062ZM90.164 106.364V114H88.7123V106.364H90.164ZM93.6093 111.917L96.9751 106.364H98.5759V114H97.1192V108.442L93.7684 114H92.1526V106.364H93.6093V111.917ZM105.128 114V107.631H103.299C102.865 107.631 102.527 107.732 102.285 107.935C102.043 108.137 101.922 108.402 101.922 108.73C101.922 109.055 102.033 109.317 102.255 109.516C102.48 109.711 102.795 109.809 103.199 109.809H105.561V111.012H103.199C102.636 111.012 102.149 110.919 101.738 110.734C101.33 110.545 101.015 110.278 100.793 109.933C100.574 109.589 100.465 109.181 100.465 108.71C100.465 108.23 100.578 107.815 100.803 107.467C101.032 107.116 101.358 106.844 101.783 106.652C102.21 106.46 102.716 106.364 103.299 106.364H106.525V114H105.128ZM100.117 114L102.27 110.142H103.791L101.638 114H100.117Z" fill="#0D0D0D"/>
<rect x="1" y="89" width="128" height="38" rx="11" stroke="#7F5DC1" stroke-width="2"/>
<rect x="1" y="133" width="128" height="38" rx="11" fill="#FCFCFC"/>
<path d="M44.9992 158H43.3685L47.0326 147.818H48.8074L52.4715 158H50.8408L47.9623 149.668H47.8827L44.9992 158ZM45.2726 154.013H50.5624V155.305H45.2726V154.013ZM53.8051 160.864C53.5831 160.864 53.3809 160.845 53.1986 160.809C53.0163 160.776 52.8804 160.739 52.7909 160.7L53.1489 159.482C53.4207 159.554 53.6626 159.586 53.8747 159.576C54.0869 159.566 54.2741 159.487 54.4365 159.337C54.6022 159.188 54.7481 158.945 54.874 158.607L55.058 158.099L52.2639 150.364H53.8548L55.7888 156.29H55.8683L57.8023 150.364H59.3982L56.2512 159.019C56.1053 159.417 55.9197 159.753 55.6943 160.028C55.469 160.307 55.2005 160.516 54.8889 160.655C54.5774 160.794 54.2161 160.864 53.8051 160.864ZM59.4205 160.202V156.712H60.042C60.2011 156.567 60.3353 156.393 60.4447 156.19C60.5574 155.988 60.6518 155.748 60.7281 155.469C60.8076 155.191 60.8739 154.866 60.9269 154.495C60.98 154.121 61.0264 153.693 61.0661 153.212L61.3048 150.364H66.4951V156.712H67.6684V160.202H66.2167V158H60.8921V160.202H59.4205ZM61.6329 156.712H65.0434V151.636H62.6372L62.4781 153.212C62.4018 154.014 62.3057 154.71 62.1897 155.3C62.0737 155.887 61.8881 156.358 61.6329 156.712ZM70.578 155.917L73.9438 150.364H75.5447V158H74.088V152.442L70.7371 158H69.1214V150.364H70.578V155.917ZM80.7599 158.154C80.0439 158.154 79.4192 157.99 78.8856 157.662C78.3519 157.334 77.9376 156.875 77.6427 156.285C77.3477 155.695 77.2002 155.005 77.2002 154.217C77.2002 153.424 77.3477 152.732 77.6427 152.138C77.9376 151.545 78.3519 151.085 78.8856 150.756C79.4192 150.428 80.0439 150.264 80.7599 150.264C81.4758 150.264 82.1005 150.428 82.6341 150.756C83.1678 151.085 83.5821 151.545 83.877 152.138C84.172 152.732 84.3195 153.424 84.3195 154.217C84.3195 155.005 84.172 155.695 83.877 156.285C83.5821 156.875 83.1678 157.334 82.6341 157.662C82.1005 157.99 81.4758 158.154 80.7599 158.154ZM80.7648 156.906C81.2288 156.906 81.6133 156.784 81.9182 156.538C82.2232 156.293 82.4485 155.967 82.5944 155.559C82.7435 155.151 82.8181 154.702 82.8181 154.212C82.8181 153.724 82.7435 153.277 82.5944 152.869C82.4485 152.458 82.2232 152.129 81.9182 151.88C81.6133 151.631 81.2288 151.507 80.7648 151.507C80.2975 151.507 79.9097 151.631 79.6015 151.88C79.2965 152.129 79.0695 152.458 78.9204 152.869C78.7745 153.277 78.7016 153.724 78.7016 154.212C78.7016 154.702 78.7745 155.151 78.9204 155.559C79.0695 155.967 79.2965 156.293 79.6015 156.538C79.9097 156.784 80.2975 156.906 80.7648 156.906Z" fill="#0D0D0D"/>
<rect x="1" y="133" width="128" height="38" rx="11" stroke="#48C61C" stroke-width="2"/>
<rect x="1" y="177" width="128" height="36" rx="11" fill="#FCFCFC"/>
<path d="M46.2744 190.818V201H44.7432V192.131H39.9506V201H38.4193V190.818H46.2744ZM49.9608 198.917L53.3266 193.364H54.9275V201H53.4708V195.442L50.1199 201H48.5042V193.364H49.9608V198.917ZM60.1427 201.154C59.4036 201.154 58.7672 200.987 58.2336 200.652C57.7033 200.314 57.2956 199.848 57.0106 199.255C56.7255 198.662 56.583 197.982 56.583 197.217C56.583 196.441 56.7288 195.757 57.0205 195.163C57.3122 194.567 57.7232 194.101 58.2535 193.766C58.7838 193.432 59.4085 193.264 60.1278 193.264C60.7078 193.264 61.2248 193.372 61.6789 193.587C62.133 193.799 62.4992 194.098 62.7776 194.482C63.0593 194.867 63.2267 195.316 63.2797 195.83H61.833C61.7535 195.472 61.5712 195.163 61.2861 194.905C61.0044 194.646 60.6266 194.517 60.1526 194.517C59.7383 194.517 59.3754 194.626 59.0638 194.845C58.7556 195.061 58.5153 195.369 58.343 195.77C58.1706 196.168 58.0844 196.638 58.0844 197.182C58.0844 197.739 58.1689 198.219 58.338 198.624C58.507 199.028 58.7457 199.341 59.0539 199.563C59.3654 199.785 59.7317 199.896 60.1526 199.896C60.4343 199.896 60.6895 199.845 60.9182 199.742C61.1502 199.636 61.3441 199.485 61.4999 199.29C61.659 199.094 61.77 198.859 61.833 198.584H63.2797C63.2267 199.078 63.066 199.518 62.7975 199.906C62.529 200.294 62.1694 200.599 61.7187 200.821C61.2712 201.043 60.7459 201.154 60.1427 201.154ZM65.988 195.989H68.2053C69.14 195.989 69.8592 196.221 70.363 196.685C70.8668 197.149 71.1187 197.747 71.1187 198.479C71.1187 198.957 71.006 199.386 70.7806 199.767C70.5553 200.148 70.2255 200.45 69.7913 200.672C69.3571 200.891 68.8285 201 68.2053 201H64.8694V193.364H66.3261V199.717H68.2053C68.6329 199.717 68.9842 199.606 69.2593 199.384C69.5344 199.159 69.672 198.872 69.672 198.524C69.672 198.156 69.5344 197.856 69.2593 197.624C68.9842 197.389 68.6329 197.271 68.2053 197.271H65.988V195.989ZM77.0709 199.161L79.5368 193.364H80.8195L77.6228 201H76.5191L73.387 193.364H74.6547L77.0709 199.161ZM74.2421 193.364V201H72.7854V193.364H74.2421ZM79.9395 201V193.364H81.3863V201H79.9395ZM86.5841 201.154C85.8682 201.154 85.2434 200.99 84.7098 200.662C84.1762 200.334 83.7619 199.875 83.4669 199.285C83.1719 198.695 83.0244 198.005 83.0244 197.217C83.0244 196.424 83.1719 195.732 83.4669 195.138C83.7619 194.545 84.1762 194.085 84.7098 193.756C85.2434 193.428 85.8682 193.264 86.5841 193.264C87.3 193.264 87.9247 193.428 88.4584 193.756C88.992 194.085 89.4063 194.545 89.7013 195.138C89.9962 195.732 90.1437 196.424 90.1437 197.217C90.1437 198.005 89.9962 198.695 89.7013 199.285C89.4063 199.875 88.992 200.334 88.4584 200.662C87.9247 200.99 87.3 201.154 86.5841 201.154ZM86.589 199.906C87.0531 199.906 87.4375 199.784 87.7425 199.538C88.0474 199.293 88.2728 198.967 88.4186 198.559C88.5677 198.151 88.6423 197.702 88.6423 197.212C88.6423 196.724 88.5677 196.277 88.4186 195.869C88.2728 195.458 88.0474 195.129 87.7425 194.88C87.4375 194.631 87.0531 194.507 86.589 194.507C86.1217 194.507 85.7339 194.631 85.4257 194.88C85.1208 195.129 84.8937 195.458 84.7446 195.869C84.5988 196.277 84.5258 196.724 84.5258 197.212C84.5258 197.702 84.5988 198.151 84.7446 198.559C84.8937 198.967 85.1208 199.293 85.4257 199.538C85.7339 199.784 86.1217 199.906 86.589 199.906Z" fill="#0D0D0D"/>
<rect x="1" y="177" width="128" height="36" rx="11" stroke="#6CA9E9" stroke-width="2"/>
</svg>
