<svg width="60" height="60" viewBox="0 0 60 60" fill="none" xmlns="http://www.w3.org/2000/svg">
<circle cx="30" cy="30" r="30" fill="#1676D8"/>
<path fill-rule="evenodd" clip-rule="evenodd" d="M28.7268 17.0193C25.409 17.3555 22.4435 18.6775 20.1123 20.8599C17.9945 22.8426 16.6055 25.4093 16.1254 28.2276C16.0086 28.9137 15.9589 30.808 16.0395 31.5098C16.2351 33.2141 16.6461 34.5481 17.449 36.0841C19.4259 39.8659 23.2397 42.5397 27.7091 43.2773C28.6717 43.4362 30.5144 43.4984 31.4501 43.4036C33.2643 43.2199 34.6842 42.8337 36.319 42.0793C40.3459 40.2214 43.1612 36.6791 43.9802 32.4401C44.1145 31.7448 44.125 31.5843 44.125 30.2176C44.125 28.8509 44.1145 28.6904 43.9802 27.9951C42.8824 22.3127 38.2439 18.03 32.1928 17.1115C31.659 17.0305 29.2493 16.9664 28.7268 17.0193ZM31.7802 18.7777C36.5793 19.3798 40.635 22.7294 41.9353 27.1649C42.5016 29.0969 42.5016 31.3383 41.9353 33.2703C40.6413 37.684 36.6838 40.9756 31.8662 41.6451C30.3439 41.8566 28.4202 41.7627 26.9939 41.4073C22.1586 40.2024 18.5985 36.444 17.8877 31.794C17.7602 30.9595 17.7602 29.4757 17.8877 28.6411C18.388 25.3682 20.2995 22.4917 23.2028 20.6427C25.7182 19.0408 28.7035 18.3917 31.7802 18.7777ZM29.6466 19.8599C29.2979 20.027 29.2242 20.1953 29.2037 20.8713C29.1889 21.3628 29.2032 21.51 29.2811 21.6642C29.4997 22.0969 30.1287 22.254 30.5627 21.9841C30.881 21.7862 30.955 21.5891 30.955 20.939C30.955 20.3312 30.8759 20.1126 30.5824 19.9086C30.3839 19.7706 29.8869 19.7447 29.6466 19.8599ZM22.4253 22.687C22.2616 22.7683 22.1457 22.8772 22.0591 23.031C21.8279 23.4417 21.9159 23.7405 22.4118 24.2292C22.7889 24.6008 23.051 24.7388 23.38 24.7388C23.8303 24.7388 24.2431 24.351 24.2431 23.9279C24.2431 23.6188 24.0962 23.3726 23.7007 23.0183C23.1805 22.5524 22.8625 22.4698 22.4253 22.687ZM36.9159 22.6742C36.6361 22.8043 36.0965 23.326 35.987 23.5723C35.6904 24.2391 36.3562 24.9144 37.0868 24.6879C37.3523 24.6055 37.9595 24.0689 38.1036 23.7891C38.2504 23.5045 38.2469 23.3091 38.0904 23.031C38.0038 22.8772 37.8879 22.7683 37.7241 22.687C37.4283 22.54 37.2119 22.5365 36.9159 22.6742ZM29.688 22.8393C29.5532 22.9032 29.387 23.0346 29.3187 23.1312L29.1945 23.3068L29.1937 26.5942L29.1928 29.8816L27.4066 31.7887C25.5174 33.8059 25.5155 33.8083 25.5786 34.2501C25.6361 34.6529 25.9855 34.9211 26.4529 34.9211C26.5849 34.9211 26.7715 34.8804 26.8674 34.8307C27.0511 34.7354 30.6187 30.9619 30.8309 30.6384L30.9544 30.4502L30.9547 26.8785L30.955 23.3068L30.8308 23.1312C30.6939 22.9377 30.2962 22.723 30.0747 22.723C29.9968 22.723 29.8228 22.7753 29.688 22.8393ZM19.4137 29.4766C19.1115 29.6165 18.9891 29.8302 18.9891 30.2176C18.9891 30.6031 19.0825 30.7632 19.4092 30.9377C19.5771 31.0274 19.7039 31.0446 20.1986 31.0446C20.8906 31.0446 21.1003 30.9751 21.311 30.6761C21.5955 30.2722 21.4314 29.6775 20.98 29.4762C20.7125 29.357 19.6715 29.3572 19.4137 29.4766ZM39.1605 29.4761C38.5407 29.7704 38.552 30.6837 39.179 30.9632C39.4753 31.0953 40.6016 31.0642 40.806 30.9183C41.1839 30.6484 41.3001 30.1847 41.0805 29.8218C40.8631 29.4623 40.75 29.4183 40.0051 29.4025C39.4728 29.3913 39.3092 29.4055 39.1605 29.4761ZM22.8677 35.8395C22.5514 36.0322 22.1139 36.4738 22.0116 36.7037C21.9 36.9548 21.9128 37.1443 22.0591 37.4042C22.1457 37.558 22.2616 37.6669 22.4253 37.7482C22.8548 37.9616 23.1774 37.8828 23.6713 37.444C24.116 37.0488 24.2633 36.7909 24.23 36.4654C24.1851 36.0265 23.8774 35.7442 23.4063 35.7099C23.1563 35.6917 23.0803 35.71 22.8677 35.8395ZM36.4115 35.7834C36.0198 35.9647 35.8225 36.4121 35.9606 36.8054C36.0482 37.0548 36.6195 37.6253 36.9172 37.7607C37.2202 37.8985 37.4281 37.8953 37.7241 37.7482C37.8879 37.6669 38.0038 37.558 38.0904 37.4042C38.3206 36.9951 38.2333 36.6943 37.7445 36.2129C37.2531 35.7288 36.8262 35.5913 36.4115 35.7834ZM29.8748 38.332C29.6244 38.3852 29.3868 38.5618 29.2793 38.7746C29.1387 39.0529 29.175 40.1082 29.332 40.306C29.7051 40.776 30.4376 40.7728 30.8206 40.2995C30.9759 40.1075 31.009 39.0494 30.8684 38.771C30.7044 38.4465 30.2603 38.2502 29.8748 38.332Z" fill="#FCFCFC"/>
</svg>
