<svg width="392" height="348" viewBox="0 0 392 348" fill="none" xmlns="http://www.w3.org/2000/svg">
<g clip-path="url(#clip0_82_181)">
<rect width="392" height="348" rx="62" fill="#E2EAF3"/>
<path d="M96.476 133.984H286.744C289.12 133.984 291.398 134.928 293.077 136.607C294.757 138.287 295.701 140.565 295.701 142.941V266.333C295.701 267.62 295.447 268.894 294.955 270.082C294.463 271.271 293.741 272.35 292.832 273.26C291.922 274.17 290.842 274.891 289.654 275.384C288.465 275.876 287.191 276.129 285.905 276.129H97.3154C96.029 276.129 94.7552 275.876 93.5667 275.384C92.3782 274.891 91.2983 274.17 90.3887 273.26C89.479 272.35 88.7575 271.271 88.2652 270.082C87.7729 268.894 87.5195 267.62 87.5195 266.333V142.941C87.5195 140.565 88.4632 138.287 90.1428 136.607C91.8225 134.928 94.1006 133.984 96.476 133.984Z" fill="white" stroke="#2E353A" stroke-linecap="round" stroke-linejoin="round"/>
<path d="M166.113 147.977H154.395V155.674H166.113V147.977Z" fill="#2E353A"/>
<path d="M128.147 195.462H117.268V206.257H128.147V195.462Z" fill="#2E353A"/>
<path d="M176.211 157.521H165.249V168.316H176.211V157.521Z" fill="#2E353A"/>
<path d="M152.54 147.977H140.822V155.674H152.54V147.977Z" fill="#2E353A"/>
<path d="M189.021 157.521H178.058V168.316H189.021V157.521Z" fill="#2E353A"/>
<path d="M179.678 147.977H167.96V155.674H179.678V147.977Z" fill="#2E353A"/>
<path d="M121.574 182.812H100.958V193.607H121.574V182.812Z" fill="#2E353A"/>
<path d="M150.584 157.521H139.622V168.316H150.584V157.521Z" fill="#2E353A"/>
<path d="M115.421 195.462H100.958V206.257H115.421V195.462Z" fill="#2E353A"/>
<path d="M193.251 147.977H181.533V155.674H193.251V147.977Z" fill="#2E353A"/>
<path d="M124.957 157.521H113.994V168.316H124.957V157.521Z" fill="#2E353A"/>
<path d="M125.402 147.977H113.684V155.674H125.402V147.977Z" fill="#2E353A"/>
<path d="M138.975 147.977H127.257V155.674H138.975V147.977Z" fill="#2E353A"/>
<path d="M137.767 157.521H126.804V168.316H137.767V157.521Z" fill="#2E353A"/>
<path d="M163.394 157.521H152.431V168.316H163.394V157.521Z" fill="#2E353A"/>
<path d="M247.536 147.977H235.817V155.674H247.536V147.977Z" fill="#2E353A"/>
<path d="M261.1 147.977H249.382V155.674H261.1V147.977Z" fill="#2E353A"/>
<path d="M253.093 157.521H242.13V168.316H253.093V157.521Z" fill="#2E353A"/>
<path d="M265.91 157.521H254.948V168.316H265.91V157.521Z" fill="#2E353A"/>
<path d="M286.182 195.462H270.04V206.257H286.182V195.462Z" fill="#2E353A"/>
<path d="M274.674 147.977H262.956V155.674H274.674V147.977Z" fill="#2E353A"/>
<path d="M112.148 157.521H100.958V168.316H112.148V157.521Z" fill="#2E353A"/>
<path d="M206.824 147.977H195.106V155.674H206.824V147.977Z" fill="#2E353A"/>
<path d="M220.389 147.977H208.671V155.674H220.389V147.977Z" fill="#2E353A"/>
<path d="M214.656 157.521H203.693V168.316H214.656V157.521Z" fill="#2E353A"/>
<path d="M240.283 157.521H229.321V168.316H240.283V157.521Z" fill="#2E353A"/>
<path d="M201.838 157.521H190.875V168.316H201.838V157.521Z" fill="#2E353A"/>
<path d="M227.465 157.521H216.503V168.316H227.465V157.521Z" fill="#2E353A"/>
<path d="M233.962 147.977H222.244V155.674H233.962V147.977Z" fill="#2E353A"/>
<path d="M217.267 195.462H206.388V206.257H217.267V195.462Z" fill="#2E353A"/>
<path d="M274.346 182.812H263.468V193.607H274.346V182.812Z" fill="#2E353A"/>
<path d="M261.612 182.812H250.734V193.607H261.612V182.812Z" fill="#2E353A"/>
<path d="M268.185 195.462H257.306V206.257H268.185V195.462Z" fill="#2E353A"/>
<path d="M255.46 195.462H244.581V206.257H255.46V195.462Z" fill="#2E353A"/>
<path d="M229.992 195.462H219.113V206.257H229.992V195.462Z" fill="#2E353A"/>
<path d="M242.726 195.462H231.847V206.257H242.726V195.462Z" fill="#2E353A"/>
<path d="M248.879 182.812H238V193.607H248.879V182.812Z" fill="#2E353A"/>
<path d="M236.153 182.812H225.275V193.607H236.153V182.812Z" fill="#2E353A"/>
<path d="M286.19 147.977H276.529V155.674H286.19V147.977Z" fill="#2E353A"/>
<path d="M111.837 147.977H100.958V155.674H111.837V147.977Z" fill="#2E353A"/>
<path d="M286.19 208.104H100.958V219.327H286.19V208.104Z" fill="#2E353A"/>
<path d="M286.182 157.521H267.757V168.316H286.182V157.521Z" fill="#2E353A"/>
<path d="M286.182 182.812H276.193V193.607H286.182V182.812Z" fill="#2E353A"/>
<path d="M273.121 180.882H271.266V170.171H260.387V180.882H258.54V170.171H247.662V180.882H245.807V170.171H234.928V180.882H233.073V170.171H222.194V180.882H220.347V170.171H209.469V180.882H207.614V170.171H196.735V180.882H194.88V170.171H184.001V180.882H182.154V170.171H171.276V180.882H169.42V170.171H158.542V180.882H156.687V170.171H145.808V180.882H143.961V170.171H133.083V180.882H131.227V170.171H120.349V180.882H118.494V170.171H100.958V180.966H286.182V170.171H273.121V180.882Z" fill="#2E353A"/>
<path d="M185.226 182.812H174.348V193.607H185.226V182.812Z" fill="#2E353A"/>
<path d="M223.419 182.812H212.541V193.607H223.419V182.812Z" fill="#2E353A"/>
<path d="M159.767 182.812H148.889V193.607H159.767V182.812Z" fill="#2E353A"/>
<path d="M166.34 195.462H155.461V206.257H166.34V195.462Z" fill="#2E353A"/>
<path d="M172.493 182.812H161.614V193.607H172.493V182.812Z" fill="#2E353A"/>
<path d="M147.033 182.812H136.155V193.607H147.033V182.812Z" fill="#2E353A"/>
<path d="M140.881 195.462H130.002V206.257H140.881V195.462Z" fill="#2E353A"/>
<path d="M153.606 195.462H142.727V206.257H153.606V195.462Z" fill="#2E353A"/>
<path d="M197.96 182.812H187.082V193.607H197.96V182.812Z" fill="#2E353A"/>
<path d="M204.533 195.462H193.654V206.257H204.533V195.462Z" fill="#2E353A"/>
<path d="M210.686 182.812H199.807V193.607H210.686V182.812Z" fill="#2E353A"/>
<path d="M179.074 195.462H168.195V206.257H179.074V195.462Z" fill="#2E353A"/>
<path d="M191.799 195.462H180.92V206.257H191.799V195.462Z" fill="#2E353A"/>
<path d="M134.3 182.812H123.421V193.607H134.3V182.812Z" fill="#2E353A"/>
<path d="M307.587 56.7585H74.5172C73.3742 56.7594 72.2467 57.0232 71.222 57.5294C70.1972 58.0355 69.3025 58.7706 68.6072 59.6777C67.9118 60.5848 67.4344 61.6397 67.2118 62.7608C66.9892 63.8819 67.0274 65.0391 67.3235 66.1431L84.3634 129.585C84.7881 131.169 85.7231 132.569 87.0236 133.567C88.3241 134.566 89.9175 135.107 91.5571 135.109H115.346V139.499H267.858V135.134H290.522C292.161 135.133 293.755 134.591 295.055 133.592C296.356 132.594 297.291 131.194 297.715 129.611L314.755 66.1683C315.055 65.0647 315.098 63.9069 314.879 62.7845C314.659 61.662 314.185 60.6051 313.492 59.6954C312.799 58.7856 311.906 58.0476 310.882 57.5383C309.858 57.0291 308.73 56.7623 307.587 56.7585Z" fill="#2E353A" stroke="#2E353A" stroke-linecap="round" stroke-linejoin="round"/>
<path d="M281.229 129.51H100.875L82.8357 64.5986H299.26L281.229 129.51Z" fill="#E1E1E1"/>
<path d="M112.844 101.021V101.86H109.663V101.021H112.844Z" fill="#2E353A"/>
<path d="M116.806 101.021V101.86H113.617V101.021H116.806Z" fill="#2E353A"/>
<path d="M120.769 101.021V101.86H117.604V101.021H120.769Z" fill="#2E353A"/>
<path d="M124.722 101.021V101.86H121.541V101.021H124.722Z" fill="#2E353A"/>
<path d="M128.684 101.021V101.86H125.494V101.021H128.684Z" fill="#2E353A"/>
<path d="M132.646 101.021V101.86H129.456V101.021H132.646Z" fill="#2E353A"/>
<path d="M136.6 101.021V101.86H133.418V101.021H136.6Z" fill="#2E353A"/>
<path d="M140.52 105.444L137.011 96.093H137.85L141.359 105.444H140.52Z" fill="#2E353A"/>
<path d="M109.638 87.4053V88.2447H106.457V87.4053H109.638Z" fill="#2E353A"/>
<path d="M113.6 87.4053V88.2447H110.419V87.4053H113.6Z" fill="#2E353A"/>
<path d="M117.604 87.4053V88.2447H114.414V87.4053H117.604Z" fill="#2E353A"/>
<path d="M121.524 87.4053V88.2447H118.334V87.4053H121.524Z" fill="#2E353A"/>
<path d="M125.478 87.4053V88.2447H122.296V87.4053H125.478Z" fill="#2E353A"/>
<path d="M132.176 87.4053V88.2447H128.986V87.4053H132.176Z" fill="#2E353A"/>
<path d="M136.13 87.4053V88.2447H132.948V87.4053H136.13Z" fill="#2E353A"/>
<path d="M140.092 87.4053V88.2447H136.91V87.4053H140.092Z" fill="#2E353A"/>
<path d="M144.054 87.4053V88.2447H140.864V87.4053H144.054Z" fill="#2E353A"/>
<path d="M148.007 87.4053V88.2447H144.826V87.4053H148.007Z" fill="#2E353A"/>
<path d="M151.969 87.4053V88.2447H148.788V87.4053H151.969Z" fill="#2E353A"/>
<path d="M155.931 87.4053V88.2447H152.741V87.4053H155.931Z" fill="#2E353A"/>
<path d="M162.621 87.4053V88.2447H159.44V87.4053H162.621Z" fill="#2E353A"/>
<path d="M166.583 87.4053V88.2447H163.394V87.4053H166.583Z" fill="#2E353A"/>
<path d="M170.545 87.4053V88.2447H167.355V87.4053H170.545Z" fill="#2E353A"/>
<path d="M177.202 87.4053V88.2447H174.021V87.4053H177.202Z" fill="#2E353A"/>
<path d="M181.197 87.4053V88.2447H178.041V87.4053H181.197Z" fill="#2E353A"/>
<path d="M185.159 87.4053V88.2447H181.97V87.4053H185.159Z" fill="#2E353A"/>
<path d="M200.05 87.4053V88.2447H196.869V87.4053H200.05Z" fill="#2E353A"/>
<path d="M204.012 87.4053V88.2447H200.823V87.4053H204.012Z" fill="#2E353A"/>
<path d="M207.974 87.4053V88.2447H204.785V87.4053H207.974Z" fill="#2E353A"/>
<path d="M211.928 87.4053V88.2447H208.747V87.4053H211.928Z" fill="#2E353A"/>
<path d="M215.89 87.4053V88.2447H212.7V87.4053H215.89Z" fill="#2E353A"/>
<path d="M222.58 87.4053V88.2447H219.399V87.4053H222.58Z" fill="#2E353A"/>
<path d="M226.542 87.4053V88.2447H223.369V87.4053H226.542Z" fill="#2E353A"/>
<path d="M230.504 87.4053V88.2447H227.314V87.4053H230.504Z" fill="#2E353A"/>
<path d="M237.194 87.4053V88.2447H234.013V87.4053H237.194Z" fill="#2E353A"/>
<path d="M243.893 87.4053V88.2447H240.703V87.4053H243.893Z" fill="#2E353A"/>
<path d="M296.976 225.362L287.995 260.013L296.489 262.506L296.976 225.362Z" fill="white" stroke="#2E353A" stroke-linecap="round" stroke-linejoin="round"/>
<path d="M301.006 188.739C299.992 187.181 299.622 185.292 299.973 183.467C300.435 180.051 304.556 179.27 304.556 179.27C304.556 179.27 305.454 178.59 308.753 179.841C312.052 181.092 337.562 184.55 353.863 186.758C370.164 188.965 375.444 187.538 375.218 193.137C374.991 198.736 360.687 248.983 360.469 250.561C360.251 252.139 301.006 188.739 301.006 188.739Z" fill="white" stroke="#2E353A" stroke-miterlimit="10"/>
<path d="M369.572 198.036L300.999 188.74L289.918 270.481L358.491 279.777L369.572 198.036Z" fill="white" stroke="#2E353A" stroke-linecap="round" stroke-linejoin="round"/>
<path d="M356.826 214.34L360.813 214.886" stroke="#2E353A" stroke-width="0.5" stroke-linecap="round" stroke-linejoin="round"/>
<path d="M331.854 210.958L353.67 213.921" stroke="#2E353A" stroke-width="0.5" stroke-linecap="round" stroke-linejoin="round"/>
<path d="M305.412 207.373L328.698 210.53" stroke="#2E353A" stroke-width="0.5" stroke-linecap="round" stroke-linejoin="round"/>
<path d="M350.581 220.896L359.831 222.155" stroke="#2E353A" stroke-width="0.5" stroke-linecap="round" stroke-linejoin="round"/>
<path d="M304.43 214.643L341.121 219.612" stroke="#2E353A" stroke-width="0.5" stroke-linecap="round" stroke-linejoin="round"/>
<path d="M323.048 224.564L358.849 229.416" stroke="#2E353A" stroke-width="0.5" stroke-linecap="round" stroke-linejoin="round"/>
<path d="M303.44 221.904L319.363 224.069" stroke="#2E353A" stroke-width="0.5" stroke-linecap="round" stroke-linejoin="round"/>
<path d="M334.943 233.58L357.858 236.686" stroke="#2E353A" stroke-width="0.5" stroke-linecap="round" stroke-linejoin="round"/>
<path d="M315.494 230.936L332.315 233.219" stroke="#2E353A" stroke-width="0.5" stroke-linecap="round" stroke-linejoin="round"/>
<path d="M302.458 229.173L312.598 230.549" stroke="#2E353A" stroke-width="0.5" stroke-linecap="round" stroke-linejoin="round"/>
<path d="M348.675 242.839L356.876 243.947" stroke="#2E353A" stroke-width="0.5" stroke-linecap="round" stroke-linejoin="round"/>
<path d="M301.476 236.442L343.161 242.091" stroke="#2E353A" stroke-width="0.5" stroke-linecap="round" stroke-linejoin="round"/>
<path d="M332.71 248.068L355.894 251.216" stroke="#2E353A" stroke-width="0.5" stroke-linecap="round" stroke-linejoin="round"/>
<path d="M300.485 243.703L328.765 247.539" stroke="#2E353A" stroke-width="0.5" stroke-linecap="round" stroke-linejoin="round"/>
<path d="M339.87 256.445L354.904 258.476" stroke="#2E353A" stroke-width="0.5" stroke-linecap="round" stroke-linejoin="round"/>
<path d="M309.383 252.307L336.193 255.942" stroke="#2E353A" stroke-width="0.5" stroke-linecap="round" stroke-linejoin="round"/>
<path d="M299.503 250.972L306.227 251.879" stroke="#2E353A" stroke-width="0.5" stroke-linecap="round" stroke-linejoin="round"/>
<path d="M369.577 198.039C369.577 198.039 370.752 186.64 374.949 191.223" stroke="#2E353A" stroke-linecap="round" stroke-linejoin="round"/>
<path d="M346.325 285.85L346.249 293.094L342.027 287.134L325.08 230.13L329.377 228.846L346.325 285.85Z" fill="white" stroke="#2E353A" stroke-linecap="round" stroke-linejoin="round"/>
<path d="M327.695 231.281L325.35 231.965L342.002 289.058L344.347 288.374L327.695 231.281Z" fill="#92E3A9" stroke="#2E353A" stroke-width="0.5" stroke-linecap="round" stroke-linejoin="round"/>
<path d="M346.325 285.866L342.036 287.142L346.249 293.094L346.325 285.866Z" stroke="#2E353A" stroke-linecap="round" stroke-linejoin="round"/>
<path d="M344.143 290.114L346.249 293.094L346.291 289.476L344.143 290.114Z" fill="#2E353A" stroke="#2E353A" stroke-linecap="round" stroke-linejoin="round"/>
<path d="M325.331 223.104C324.763 223.275 324.285 223.664 324.002 224.186C323.719 224.708 323.654 225.321 323.821 225.891L325.08 230.13L329.377 228.854L328.118 224.615C327.947 224.046 327.558 223.568 327.036 223.285C326.514 223.002 325.901 222.937 325.331 223.104Z" fill="white" stroke="#2E353A" stroke-linecap="round" stroke-linejoin="round"/>
<path d="M325.331 223.104C324.763 223.275 324.285 223.664 324.002 224.186C323.719 224.708 323.654 225.321 323.821 225.891L324.425 227.914L328.714 226.638L328.118 224.615C327.947 224.046 327.558 223.568 327.036 223.285C326.514 223.002 325.901 222.937 325.331 223.104Z" fill="#2E353A" stroke="#2E353A" stroke-linecap="round" stroke-linejoin="round"/>
<path d="M113.952 189.435C113.415 190.191 112.886 190.98 112.357 191.811" stroke="white" stroke-linecap="round" stroke-linejoin="round"/>
<path d="M122.732 179.328C120.393 181.496 118.229 183.846 116.26 186.354" stroke="white" stroke-linecap="round" stroke-linejoin="round"/>
<path d="M113.205 183.786C110.912 187.002 108.834 190.367 106.985 193.859" stroke="white" stroke-linecap="round" stroke-linejoin="round"/>
<path d="M172.409 202.244C171.88 203 171.343 203.789 170.814 204.611" stroke="white" stroke-linecap="round" stroke-linejoin="round"/>
<path d="M181.189 192.138C178.854 194.308 176.693 196.657 174.725 199.164" stroke="white" stroke-linecap="round" stroke-linejoin="round"/>
<path d="M171.67 196.578C169.378 199.813 167.3 203.195 165.45 206.701" stroke="white" stroke-linecap="round" stroke-linejoin="round"/>
<path d="M256.198 181.469C255.434 180.949 254.628 180.428 253.797 179.908" stroke="white" stroke-linecap="round" stroke-linejoin="round"/>
<path d="M266.439 190.098C264.231 187.799 261.849 185.674 259.312 183.744" stroke="white" stroke-linecap="round" stroke-linejoin="round"/>
<path d="M261.839 180.63C258.572 178.387 255.163 176.359 251.632 174.561" stroke="white" stroke-linecap="round" stroke-linejoin="round"/>
<path d="M169.857 233.512C169.42 236.668 168.766 241.067 168.111 243.677" stroke="#2E353A" stroke-linecap="round" stroke-linejoin="round"/>
<path d="M170.343 229.676C170.343 229.676 170.276 230.272 170.15 231.238" stroke="#2E353A" stroke-linecap="round" stroke-linejoin="round"/>
<path d="M172.585 238.633C171.668 241.69 170.546 244.683 169.227 247.589" stroke="#2E353A" stroke-linecap="round" stroke-linejoin="round"/>
<path d="M214.555 243.107C214.555 243.107 215.118 250.384 219.029 254.304" stroke="#2E353A" stroke-linecap="round" stroke-linejoin="round"/>
<path d="M213.993 250.384C213.993 250.384 215.671 255.421 219.029 257.662" stroke="#2E353A" stroke-linecap="round" stroke-linejoin="round"/>
<g style="mix-blend-mode:multiply">
<path d="M99.9763 289.282C99.9763 289.282 103.703 286.286 103.703 260.524C103.703 234.763 107.993 215.943 113.281 207.692C118.569 199.441 123.513 196.133 125.83 196.133C128.147 196.133 126.485 199.105 123.186 203.394C119.887 207.684 116.916 210 115.589 215.289C114.263 220.577 114.271 227.175 115.925 226.511C117.579 225.848 120.214 212.644 122.523 207.692C124.831 202.739 130.455 196.461 133.754 193.489C137.053 190.518 144.322 181.603 147.621 183.912C150.92 186.22 148.947 189.527 146.966 190.845C144.985 192.163 137.053 200.079 133.427 205.048C129.8 210.017 127.484 222.549 129.465 222.877C131.446 223.204 137.389 204.72 140.688 200.758C143.986 196.796 157.199 185.893 160.17 185.565C163.142 185.238 163.477 189.855 160.833 192.171C158.189 194.488 149.275 204.385 146.303 210.328C143.332 216.271 142.005 227.175 144.624 224.53C147.243 221.886 151.558 210.991 155.192 207.356C158.827 203.722 169.723 192.171 172.367 193.489C175.011 194.807 174.348 198.114 172.039 200.423C169.731 202.731 160.808 215.289 158.5 221.886C156.191 228.484 153.539 246.985 154.865 244.349C156.191 241.713 160.481 228.165 162.789 222.524C165.097 216.883 169.723 214.273 170.386 216.909C171.049 219.544 169.723 220.871 168.069 226.822C166.415 232.773 166.39 248.647 161.471 257.528C156.552 266.408 136.809 285.413 134.174 292.01C132.265 296.555 129.985 300.934 127.358 305.105" fill="#92E3A9"/>
</g>
<g style="mix-blend-mode:multiply">
<path d="M283.429 291.515C283.429 291.515 279.609 286.286 279.609 260.524C279.609 234.763 275.311 215.943 270.032 207.692C264.752 199.441 259.791 196.133 257.482 196.133C255.174 196.133 256.819 199.105 260.127 203.394C263.434 207.684 266.397 210 267.681 215.289C268.966 220.577 269.008 227.175 267.354 226.511C265.7 225.848 263.065 212.644 260.748 207.692C258.431 202.739 252.824 196.461 249.525 193.489C246.226 190.518 238.957 181.603 235.649 183.912C232.342 186.22 234.332 189.527 236.313 190.845C238.294 192.163 246.218 200.079 249.852 205.048C253.487 210.017 255.795 222.549 253.814 222.877C251.833 223.204 245.915 204.72 242.617 200.775C239.318 196.83 226.097 185.909 223.126 185.582C220.154 185.255 219.827 189.871 222.471 192.188C225.115 194.505 234.029 204.401 237.001 210.344C239.972 216.287 241.29 227.191 238.68 224.547C236.069 221.903 231.746 211.008 228.12 207.373C224.494 203.738 213.59 192.188 210.946 193.506C208.302 194.824 208.965 198.131 211.273 200.439C213.581 202.748 222.504 215.305 224.813 221.903C227.121 228.501 229.765 247.001 228.447 244.366C227.13 241.73 222.832 228.182 220.523 222.541C218.215 216.9 213.59 214.29 212.927 216.925C212.264 219.561 213.59 220.887 215.235 226.839C216.88 232.79 216.914 248.663 221.841 257.544C226.769 266.425 245.949 283.759 248.593 290.365C251.237 296.971 256.022 307.38 256.022 307.38" fill="#92E3A9"/>
</g>
<path d="M98.717 295.628C98.717 295.628 103.67 279.453 103.67 253.658C103.67 227.863 107.959 209.077 113.247 200.826C118.535 192.574 123.48 189.267 125.796 189.267C128.113 189.267 126.451 192.239 123.152 196.528C119.853 200.817 116.882 203.134 115.556 208.414C114.229 213.694 114.238 220.308 115.891 219.645C117.545 218.982 120.181 205.778 122.489 200.826C124.797 195.873 130.421 189.594 133.72 186.623C137.019 183.651 144.288 174.737 147.587 177.045C150.886 179.354 148.914 182.661 146.933 183.979C144.952 185.297 137.019 193.212 133.393 198.182C129.767 203.151 127.45 215.683 129.431 216.011C131.412 216.338 137.355 197.854 140.654 193.884C143.953 189.913 157.165 179.026 160.136 178.699C163.108 178.372 163.444 182.988 160.8 185.305C158.155 187.622 149.241 197.518 146.269 203.461C143.298 209.404 141.972 220.308 144.591 217.664C147.21 215.02 151.524 204.125 155.159 200.49C158.793 196.855 169.689 185.305 172.333 186.623C174.977 187.941 174.314 191.248 172.006 193.556C169.697 195.865 160.774 208.414 158.466 215.02C156.158 221.626 153.505 240.118 154.831 237.474C156.158 234.83 160.447 221.299 162.755 215.65C165.064 210 169.689 207.39 170.352 210.034C171.015 212.678 169.689 213.996 168.035 219.939C166.382 225.882 166.356 241.764 161.438 250.653C156.519 259.542 137.33 283.675 134.686 290.281C132.041 296.887 126.098 311.417 126.098 311.417" fill="white"/>
<path d="M98.717 295.628C98.717 295.628 103.67 279.453 103.67 253.658C103.67 227.863 107.959 209.077 113.247 200.826C118.535 192.574 123.48 189.267 125.796 189.267C128.113 189.267 126.451 192.239 123.152 196.528C119.853 200.817 116.882 203.134 115.556 208.414C114.229 213.694 114.238 220.308 115.891 219.645C117.545 218.982 120.181 205.778 122.489 200.826C124.797 195.873 130.421 189.594 133.72 186.623C137.019 183.651 144.288 174.737 147.587 177.045C150.886 179.354 148.914 182.661 146.933 183.979C144.952 185.297 137.019 193.212 133.393 198.182C129.767 203.151 127.45 215.683 129.431 216.011C131.412 216.338 137.355 197.854 140.654 193.884C143.953 189.913 157.165 179.026 160.136 178.699C163.108 178.372 163.444 182.988 160.8 185.305C158.155 187.622 149.241 197.518 146.269 203.461C143.298 209.404 141.972 220.308 144.591 217.664C147.21 215.02 151.524 204.125 155.159 200.49C158.793 196.855 169.689 185.305 172.333 186.623C174.977 187.941 174.314 191.248 172.006 193.556C169.697 195.865 160.774 208.414 158.466 215.02C156.158 221.626 153.505 240.118 154.831 237.474C156.158 234.83 160.447 221.299 162.755 215.65C165.064 210 169.689 207.39 170.352 210.034C171.015 212.678 169.689 213.996 168.035 219.939C166.382 225.882 166.356 241.764 161.438 250.653C156.519 259.542 137.33 283.675 134.686 290.281C132.041 296.887 126.098 311.417 126.098 311.417" stroke="#2E353A" stroke-linecap="round" stroke-linejoin="round"/>
<path d="M284.553 295.628C284.553 295.628 279.601 279.453 279.601 253.658C279.601 227.863 275.303 209.077 270.023 200.826C264.743 192.574 259.782 189.267 257.474 189.267C255.166 189.267 256.811 192.239 260.118 196.528C263.425 200.817 266.388 203.134 267.673 208.414C268.957 213.694 268.999 220.308 267.345 219.645C265.692 218.982 263.056 205.778 260.739 200.826C258.422 195.873 252.815 189.594 249.516 186.623C246.218 183.651 238.948 174.737 235.641 177.045C232.334 179.354 234.323 182.661 236.304 183.979C238.285 185.297 246.209 193.212 249.844 198.182C253.478 203.151 255.787 215.683 253.806 216.011C251.825 216.338 245.882 197.854 242.583 193.884C239.284 189.913 226.063 179.026 223.092 178.699C220.12 178.372 219.793 182.988 222.437 185.305C225.081 187.622 233.996 197.518 236.967 203.461C239.939 209.404 241.257 220.308 238.646 217.664C236.036 215.02 231.713 204.125 228.086 200.49C224.46 196.855 213.556 185.305 210.912 186.623C208.268 187.941 208.931 191.248 211.239 193.556C213.548 195.865 222.471 208.414 224.779 215.02C227.087 221.626 229.732 240.118 228.414 237.474C227.096 234.83 222.798 221.299 220.49 215.65C218.181 210 213.556 207.39 212.893 210.034C212.23 212.678 213.556 213.996 215.201 219.939C216.847 225.882 216.88 241.764 221.808 250.653C226.735 259.542 245.915 283.675 248.559 290.281C251.204 296.887 257.147 311.417 257.147 311.417" fill="white"/>
<path d="M284.553 295.628C284.553 295.628 279.601 279.453 279.601 253.658C279.601 227.863 275.303 209.077 270.023 200.826C264.743 192.574 259.782 189.267 257.474 189.267C255.166 189.267 256.811 192.239 260.118 196.528C263.425 200.817 266.388 203.134 267.673 208.414C268.957 213.694 268.999 220.308 267.345 219.645C265.692 218.982 263.056 205.778 260.739 200.826C258.422 195.873 252.815 189.594 249.516 186.623C246.218 183.651 238.948 174.737 235.641 177.045C232.334 179.354 234.323 182.661 236.304 183.979C238.285 185.297 246.209 193.212 249.844 198.182C253.478 203.151 255.787 215.683 253.806 216.011C251.825 216.338 245.882 197.854 242.583 193.884C239.284 189.913 226.063 179.026 223.092 178.699C220.12 178.372 219.793 182.988 222.437 185.305C225.081 187.622 233.996 197.518 236.967 203.461C239.939 209.404 241.257 220.308 238.646 217.664C236.036 215.02 231.713 204.125 228.086 200.49C224.46 196.855 213.556 185.305 210.912 186.623C208.268 187.941 208.931 191.248 211.239 193.556C213.548 195.865 222.471 208.414 224.779 215.02C227.087 221.626 229.732 240.118 228.414 237.474C227.096 234.83 222.798 221.299 220.49 215.65C218.181 210 213.556 207.39 212.893 210.034C212.23 212.678 213.556 213.996 215.201 219.939C216.847 225.882 216.88 241.764 221.808 250.653C226.735 259.542 245.915 283.675 248.559 290.281C251.204 296.887 257.147 311.417 257.147 311.417" stroke="#2E353A" stroke-linecap="round" stroke-linejoin="round"/>
<path d="M77.8157 345.993H128.18C128.835 343.475 129.657 340.654 130.698 337.599C134.66 325.729 147.486 310.889 147.486 310.889C138.294 302.793 127.492 296.734 115.79 293.11C96.4841 287.167 82.3485 288.913 82.3485 288.913C84.9506 299.642 85.2368 310.802 83.1879 321.65C80.6697 333.872 78.9908 341.603 77.8157 345.993Z" fill="#2E353A" stroke="#2E353A" stroke-linecap="round" stroke-linejoin="round"/>
<path d="M254.763 345.993H307.091C305.412 341.645 301.786 332.201 298.16 322.758C293.207 309.898 295.188 292.59 293.207 292.59C291.226 292.59 268.974 291.104 258.095 294.562C247.216 298.021 234.844 307.917 234.844 307.917C240.445 314.425 245.259 321.57 249.189 329.205C251.715 334.556 253.586 340.193 254.763 345.993Z" fill="#2E353A" stroke="#2E353A" stroke-linecap="round" stroke-linejoin="round"/>
<path d="M109.277 299.154C108.916 297.727 103.544 299.876 103.544 299.876C103.544 299.876 105.34 293.077 102.478 293.077C99.6154 293.077 99.2544 298.113 99.2544 298.113C99.2544 298.113 93.8822 295.972 93.8822 299.187C93.8822 302.402 97.4581 302.344 97.4581 302.344C97.4581 302.344 93.1603 307.716 96.3837 308.782C99.607 309.848 101.747 305.919 101.747 305.919C101.747 305.919 103.896 309.504 106.784 308.068C109.671 306.633 107.497 303.418 107.497 303.418C107.497 303.418 109.63 300.589 109.277 299.154ZM102.117 304.526C101.847 304.466 101.599 304.331 101.402 304.136C101.206 303.941 101.068 303.695 101.005 303.425C100.942 303.156 100.957 302.874 101.047 302.612C101.138 302.351 101.3 302.12 101.516 301.947C101.732 301.773 101.992 301.665 102.267 301.633C102.542 301.601 102.821 301.648 103.07 301.767C103.32 301.887 103.531 302.075 103.678 302.309C103.826 302.543 103.904 302.814 103.905 303.091C103.844 303.512 103.626 303.895 103.294 304.161C102.962 304.428 102.541 304.558 102.117 304.526ZM117.151 339.277C116.79 337.85 111.417 339.999 111.417 339.999C111.417 339.999 113.214 333.2 110.343 333.2C107.472 333.2 107.128 338.237 107.128 338.237C107.128 338.237 101.756 336.088 101.756 339.303C101.756 342.518 105.34 342.526 105.34 342.526C105.34 342.526 101.042 347.898 104.266 348.973C107.489 350.047 109.63 346.102 109.63 346.102C109.63 346.102 111.778 349.686 114.666 348.251C117.554 346.815 115.379 343.6 115.379 343.6C115.379 343.6 117.503 340.671 117.151 339.277ZM109.99 344.65C109.72 344.59 109.473 344.454 109.276 344.26C109.079 344.065 108.942 343.819 108.879 343.549C108.816 343.279 108.831 342.998 108.921 342.736C109.011 342.474 109.174 342.244 109.39 342.07C109.606 341.897 109.866 341.788 110.141 341.757C110.416 341.725 110.694 341.771 110.944 341.891C111.194 342.01 111.404 342.198 111.552 342.432C111.7 342.666 111.778 342.938 111.778 343.214C111.718 343.632 111.498 344.011 111.165 344.271C110.831 344.53 110.411 344.651 109.99 344.608V344.65ZM85.6477 344.65C85.2867 343.214 79.9229 345.363 79.9229 345.363C79.9229 345.363 81.7108 338.564 78.8485 338.564C75.9861 338.564 75.6251 343.6 75.6251 343.6C75.6251 343.6 70.2529 341.452 70.2529 344.675C70.2529 347.898 73.8372 347.898 73.8372 347.898C73.8372 347.898 69.5394 353.262 72.7628 354.336C75.9861 355.411 78.1266 351.474 78.1266 351.474C78.1266 351.474 80.2754 355.05 83.163 353.623C86.0506 352.196 83.8849 348.973 83.8849 348.973C83.8849 348.973 86.0086 346.035 85.656 344.608L85.6477 344.65ZM78.4875 350.014C78.217 349.953 77.969 349.818 77.7722 349.623C77.5754 349.428 77.4378 349.181 77.3753 348.911C77.3129 348.641 77.3281 348.358 77.4192 348.097C77.5103 347.835 77.6736 347.604 77.8902 347.431C78.1068 347.259 78.3679 347.151 78.6433 347.12C78.9187 347.089 79.1973 347.137 79.4467 347.257C79.6962 347.378 79.9063 347.567 80.053 347.802C80.1996 348.037 80.2768 348.309 80.2754 348.587C80.2129 349.001 79.9934 349.377 79.6622 349.634C79.3311 349.892 78.9135 350.013 78.4959 349.972L78.4875 350.014ZM124.655 316.731H128.592C131.454 316.731 133.242 319.954 133.242 319.954C127.165 321.7 124.663 316.689 124.663 316.689L124.655 316.731ZM120.718 344.65H124.655C127.517 344.65 129.305 347.873 129.305 347.873C123.228 349.619 120.726 344.608 120.726 344.608L120.718 344.65ZM86.3695 339.277H90.3064C93.1687 339.277 94.9567 342.501 94.9567 342.501C88.871 344.247 86.3695 339.277 86.3695 339.277ZM105.399 314.02L107.699 317.218C109.378 319.551 107.791 322.875 107.791 322.875C102.788 318.939 105.399 313.978 105.399 313.978V314.02ZM85.7064 324.714L87.5027 321.213C88.8206 318.695 92.4972 318.544 92.4972 318.544C91.2633 324.773 85.7064 324.714 85.7064 324.714Z" fill="white"/>
<path d="M277.838 305.953C277.477 304.526 272.105 306.675 272.105 306.675C272.105 306.675 273.901 299.876 271.039 299.876C268.176 299.876 267.815 304.912 267.815 304.912C267.815 304.912 262.443 302.772 262.443 305.987C262.443 309.202 266.027 309.21 266.027 309.21C266.027 309.21 261.73 314.582 264.953 315.657C268.176 316.731 270.317 312.786 270.317 312.786C270.317 312.786 272.466 316.37 275.353 314.935C278.241 313.499 276.067 310.284 276.067 310.284C276.067 310.284 278.19 307.38 277.838 305.953ZM270.678 311.325C270.408 311.265 270.16 311.13 269.963 310.935C269.766 310.74 269.629 310.494 269.566 310.224C269.503 309.955 269.518 309.673 269.608 309.411C269.699 309.15 269.861 308.919 270.077 308.746C270.293 308.573 270.553 308.464 270.828 308.432C271.103 308.4 271.382 308.447 271.631 308.566C271.881 308.686 272.092 308.874 272.239 309.108C272.387 309.342 272.465 309.613 272.466 309.89C272.415 310.316 272.199 310.704 271.865 310.973C271.531 311.241 271.104 311.368 270.678 311.325ZM294.651 333.872C294.299 332.436 288.926 334.585 288.926 334.585C288.926 334.585 290.714 327.786 287.852 327.786C284.99 327.786 284.637 332.822 284.637 332.822C284.637 332.822 279.265 330.674 279.265 333.897C279.265 337.12 282.841 337.12 282.841 337.12C282.841 337.12 278.551 342.484 281.775 343.558C284.998 344.633 287.139 340.696 287.139 340.696C287.139 340.696 289.287 344.272 292.175 342.845C295.063 341.418 292.888 338.195 292.888 338.195C292.888 338.195 295.012 335.299 294.651 333.872ZM287.499 339.277C287.229 339.217 286.981 339.082 286.784 338.887C286.587 338.692 286.45 338.445 286.387 338.175C286.325 337.905 286.34 337.622 286.431 337.361C286.522 337.099 286.685 336.868 286.902 336.695C287.119 336.523 287.38 336.414 287.655 336.384C287.931 336.353 288.209 336.401 288.459 336.521C288.708 336.642 288.918 336.831 289.065 337.066C289.212 337.301 289.289 337.573 289.287 337.85C289.235 338.275 289.018 338.662 288.684 338.928C288.35 339.195 287.925 339.32 287.499 339.277ZM276.763 344.65C276.402 343.214 271.039 345.363 271.039 345.363C271.039 345.363 272.827 338.564 269.964 338.564C267.102 338.564 266.741 343.6 266.741 343.6C266.741 343.6 261.369 341.452 261.369 344.675C261.369 347.898 264.953 347.898 264.953 347.898C264.953 347.898 260.655 353.262 263.879 354.336C267.102 355.411 269.242 351.474 269.242 351.474C269.242 351.474 271.391 355.05 274.279 353.623C277.166 352.196 275.001 348.973 275.001 348.973C275.001 348.973 277.091 346.035 276.763 344.608V344.65ZM269.603 350.014C269.333 349.953 269.085 349.818 268.888 349.623C268.691 349.428 268.554 349.181 268.491 348.911C268.429 348.641 268.444 348.358 268.535 348.097C268.626 347.835 268.789 347.604 269.006 347.431C269.223 347.259 269.484 347.151 269.759 347.12C270.035 347.089 270.313 347.137 270.563 347.257C270.812 347.378 271.022 347.567 271.169 347.802C271.315 348.037 271.393 348.309 271.391 348.587C271.329 349.003 271.108 349.379 270.775 349.637C270.442 349.895 270.022 350.015 269.603 349.972V350.014ZM293.224 323.53H297.161C300.023 323.53 301.811 326.754 301.811 326.754C295.726 328.499 293.224 323.488 293.224 323.488V323.53ZM250.994 343.894H254.93C257.793 343.894 259.581 347.109 259.581 347.109C253.495 348.905 250.994 343.894 250.994 343.894ZM273.96 320.811L276.26 324.009C277.939 326.342 276.352 329.666 276.352 329.666C271.349 325.738 273.96 320.811 273.96 320.811ZM297.237 340.822L299.528 344.02C301.207 346.345 299.62 349.678 299.62 349.678C294.618 345.775 297.237 340.822 297.237 340.822ZM254.234 331.513L256.03 328.013C257.348 325.494 261.067 325.343 261.067 325.343C259.824 331.572 254.225 331.513 254.225 331.513H254.234Z" fill="white"/>
</g>
<defs>
<clipPath id="clip0_82_181">
<rect width="392" height="348" rx="62" fill="white"/>
</clipPath>
</defs>
</svg>
