<svg width="169" height="166" viewBox="0 0 169 166" fill="none" xmlns="http://www.w3.org/2000/svg">
<path fill-rule="evenodd" clip-rule="evenodd" d="M44.3617 30.4333C59.0986 23.6974 73.4402 41.1288 89.0449 46.2199C99.2977 49.5649 108.702 49.4321 118.948 54.7672C130.672 60.8725 144.344 73.9198 145.486 88.7077C146.738 104.925 138.011 121.224 124.779 130.301C112.193 138.936 95.7813 135.712 80.546 133.26C66.2083 130.953 51.6496 127.734 41.7397 116.938C31.2126 105.469 26.309 90.1087 26.7766 74.6814C27.2799 58.0777 29.4099 37.2675 44.3617 30.4333Z" fill="#E2EAF3"/>
<path d="M86.3379 109H69.2344V83.793H74.6484V104.148H86.3379V109ZM99.1172 109L99.0996 107.207C98.959 107.383 98.7656 107.576 98.5195 107.822C98.2734 108.068 97.7109 108.385 96.8672 108.771C96.0234 109.158 95.1445 109.352 94.2305 109.352C92.4727 109.352 91.0488 108.877 89.9414 107.893C88.8516 106.908 88.2891 105.73 88.2891 104.324C88.2891 102.883 88.7637 101.688 89.6777 100.721C90.6094 99.7715 91.8926 99.1387 93.5098 98.8398L99.0996 97.8379C99.0996 97.0996 98.8359 96.502 98.291 96.0273C97.7637 95.5703 97.0078 95.3242 96.041 95.3242C95.25 95.3242 94.5293 95.4824 93.8613 95.7812C93.2109 96.0801 92.7539 96.3789 92.4727 96.6953L92.0684 97.1172L89.3789 94.4277C89.4492 94.3398 89.5547 94.2168 89.6777 94.0586C89.8008 93.9004 90.082 93.6191 90.5039 93.2324C90.9258 92.8457 91.4004 92.5117 91.8926 92.2129C92.4023 91.9141 93.0703 91.6328 93.8789 91.3867C94.7051 91.1406 95.5488 91 96.4102 91C98.625 91 100.453 91.668 101.859 93.0039C103.266 94.3398 103.969 96.0098 103.969 98.0137V109H99.1172ZM95.4961 105.396C96.6035 105.396 97.4824 105.062 98.1328 104.359C98.7832 103.656 99.0996 102.689 99.0996 101.441V100.896L95.1445 101.617C93.8262 101.828 93.1582 102.496 93.1582 103.604C93.1582 104.799 93.9492 105.396 95.4961 105.396ZM113.514 91.3516L113.496 93.5312C113.637 93.3379 113.848 93.1094 114.094 92.8281C114.357 92.5469 114.92 92.1777 115.799 91.7031C116.678 91.2461 117.592 91 118.541 91C120.562 91 122.215 91.7031 123.48 93.0918C124.746 94.498 125.379 96.3789 125.379 98.7344V109H120.527V99.2793C120.527 98.207 120.211 97.3457 119.578 96.6777C118.945 96.0098 118.119 95.6758 117.117 95.6758C116.01 95.6758 115.131 96.0449 114.48 96.7656C113.83 97.4863 113.514 98.5059 113.514 99.8242V109H108.662V91.3516H113.514ZM142.131 107.559V106.135C142.078 106.205 142.008 106.293 141.902 106.398C141.797 106.504 141.586 106.715 141.27 106.996C140.953 107.277 140.602 107.541 140.232 107.77C139.863 107.998 139.371 108.209 138.773 108.385C138.176 108.561 137.543 108.666 136.91 108.666C134.889 108.666 133.061 107.787 131.426 106.029C129.791 104.271 128.982 102.215 128.982 99.8418C128.982 97.4512 129.791 95.3945 131.426 93.6367C133.061 91.8789 134.889 91.0176 136.91 91.0176C137.912 91.0176 138.861 91.2285 139.74 91.6504C140.619 92.0723 141.234 92.4766 141.586 92.8809L142.131 93.5312V91.3691H146.982V107.576C146.982 110.107 146.086 112.252 144.311 113.975C142.535 115.697 140.303 116.576 137.631 116.576C136.611 116.576 135.645 116.436 134.73 116.172C133.799 115.908 133.025 115.592 132.41 115.24C131.812 114.889 131.268 114.52 130.811 114.15C130.354 113.764 130.037 113.447 129.844 113.201L129.51 112.797L132.568 109.914C132.691 110.072 132.867 110.283 133.113 110.564C133.359 110.828 133.904 111.18 134.748 111.602C135.592 112.023 136.488 112.234 137.455 112.234C138.896 112.234 140.021 111.83 140.865 110.986C141.709 110.143 142.131 109 142.131 107.559ZM134.027 99.8242C134.027 101.072 134.396 102.109 135.17 102.936C135.943 103.744 136.875 104.166 137.982 104.166C139.09 104.166 140.057 103.744 140.883 102.9C141.709 102.057 142.131 101.02 142.131 99.8242C142.131 98.6289 141.709 97.6094 140.883 96.7656C140.057 95.9219 139.09 95.5176 137.982 95.5176C136.875 95.5176 135.943 95.9219 135.17 96.7305C134.396 97.5391 134.027 98.5762 134.027 99.8242ZM155.789 110.072L156.334 108.824L149.496 91.3516H154.541L158.672 103.059L162.82 91.3516H167.848L160.834 110.072C159.217 114.396 156.949 116.559 153.996 116.559C153.469 116.559 152.941 116.523 152.432 116.418C151.904 116.33 151.535 116.242 151.289 116.137L150.938 116.014V111.707C151.412 111.953 152.01 112.059 152.73 112.059C154.189 112.059 155.209 111.408 155.789 110.072Z" fill="black"/>
</svg>
