<svg width="75" height="20" viewBox="0 0 75 20" fill="none" xmlns="http://www.w3.org/2000/svg">
<path d="M0.393311 0H5.51134V11.4031H13.6863V15.3229H0.393311V0Z" fill="#1676D8"/>
<path d="M21.56 3.29621C23.4281 3.29621 24.9489 3.60059 26.1222 4.20935C27.2956 4.80327 27.8823 5.7758 27.8823 7.12695V11.7149C27.8823 11.9673 27.944 12.1752 28.0675 12.3385C28.1911 12.5019 28.3763 12.5835 28.6233 12.5835H29.4571V15.1448C29.4107 15.1745 29.2872 15.2264 29.0865 15.3007C28.9012 15.3601 28.6311 15.4194 28.276 15.4788C27.9209 15.5531 27.5117 15.5902 27.0486 15.5902C26.1531 15.5902 25.412 15.464 24.8253 15.2116C24.2541 14.9443 23.8604 14.5806 23.6443 14.1203C23.0576 14.5657 22.4014 14.922 21.6758 15.1893C20.9502 15.4566 20.101 15.5902 19.1284 15.5902C16.2567 15.5902 14.8209 14.4915 14.8209 12.294C14.8209 11.1507 15.1374 10.2821 15.7704 9.6882C16.4188 9.07944 17.3452 8.6637 18.5494 8.44098C19.7536 8.21826 21.3284 8.1069 23.2737 8.1069V7.52784C23.2737 7.06756 23.1039 6.71863 22.7642 6.48107C22.44 6.2435 22.0155 6.12472 21.4905 6.12472C21.0119 6.12472 20.5951 6.20639 20.24 6.36971C19.9003 6.53304 19.7305 6.79287 19.7305 7.14922V7.23831H15.1914C15.176 7.16407 15.1683 7.06013 15.1683 6.9265C15.1683 5.81292 15.7163 4.92947 16.8125 4.27617C17.9241 3.62287 19.5066 3.29621 21.56 3.29621ZM23.2737 10.2004C21.9614 10.2004 20.9888 10.3415 20.3558 10.6236C19.7382 10.8909 19.4294 11.2546 19.4294 11.7149C19.4294 12.4573 19.9543 12.8285 21.0042 12.8285C21.6063 12.8285 22.1312 12.6726 22.579 12.3608C23.0421 12.049 23.2737 11.663 23.2737 11.2027V10.2004Z" fill="#1676D8"/>
<path d="M39.3919 3.29621C40.8123 3.29621 41.8775 3.67483 42.5877 4.43207C43.2979 5.18931 43.653 6.28062 43.653 7.70601V15.3229H39.0445V8.24053C39.0445 7.73571 38.9055 7.33482 38.6276 7.03786C38.3652 6.72606 37.9869 6.57016 37.4929 6.57016C36.9216 6.57016 36.4585 6.74833 36.1034 7.10468C35.7483 7.46102 35.5707 7.89903 35.5707 8.41871V15.3229H30.9622V3.56347H34.737L35.0381 5.34521C35.5167 4.7216 36.142 4.2242 36.9139 3.85301C37.7013 3.48181 38.5273 3.29621 39.3919 3.29621Z" fill="#1676D8"/>
<path d="M60.1649 1.35857C60.1649 2.26429 59.9256 2.96214 59.4469 3.45212C58.9838 3.94209 58.2813 4.30587 57.3395 4.54343C57.7873 4.87008 58.1346 5.25612 58.3817 5.70156C58.6441 6.13215 58.7754 6.59243 58.7754 7.08241C58.7754 8.32962 58.2813 9.27246 57.2932 9.91091C56.3206 10.5494 55.1009 10.8686 53.6342 10.8686H51.8741C50.9015 10.8686 50.4151 11.0839 50.4151 11.5145C50.4151 11.7223 50.5232 11.8931 50.7393 12.0267C50.9555 12.1455 51.3338 12.2049 51.8741 12.2049H56.0427C57.4013 12.2049 58.428 12.5464 59.1227 13.2294C59.8175 13.9124 60.1649 14.8255 60.1649 15.9688C60.1649 16.8151 59.9333 17.5427 59.4701 18.1514C59.0069 18.7602 58.3817 19.2205 57.5943 19.5323C56.8069 19.8441 55.95 20 55.0237 20H48.2151C47.6593 20 47.1421 19.8738 46.6635 19.6214C46.2003 19.369 45.8298 19.02 45.5518 18.5746C45.2739 18.144 45.135 17.6615 45.135 17.1269C45.135 16.5479 45.3203 16.0208 45.6908 15.5457C46.0613 15.0854 46.5245 14.7365 47.0803 14.4989C46.7098 14.2465 46.4164 13.9421 46.2003 13.5857C45.9841 13.2294 45.8761 12.8434 45.8761 12.4276C45.8761 11.8486 46.0999 11.3289 46.5477 10.8686C46.9954 10.3935 47.5512 10.0742 48.2151 9.91091C47.6129 9.53972 47.1343 9.11656 46.7792 8.64143C46.4241 8.15145 46.2466 7.6392 46.2466 7.10468C46.2466 5.73868 46.8178 4.76615 47.9603 4.18708C49.1183 3.59317 50.6467 3.29621 52.5457 3.29621C53.3794 3.29621 54.051 3.34076 54.5605 3.42984C55.317 2.96956 55.8033 2.55382 56.0195 2.18263C56.2511 1.79658 56.3669 1.5219 56.3669 1.35857H60.1649ZM52.4994 5.61247C51.9899 5.61247 51.5731 5.73868 51.2488 5.99109C50.9246 6.24351 50.7625 6.60728 50.7625 7.08241C50.7625 7.57238 50.9092 7.94358 51.2025 8.19599C51.5113 8.43356 51.9436 8.55234 52.4994 8.55234C53.0552 8.55234 53.4875 8.43356 53.7963 8.19599C54.1205 7.94358 54.2826 7.57238 54.2826 7.08241C54.2826 6.59243 54.1205 6.22866 53.7963 5.99109C53.4875 5.73868 53.0552 5.61247 52.4994 5.61247ZM50.7162 15.3229C50.3611 15.3229 50.0678 15.412 49.8362 15.5902C49.62 15.7832 49.512 16.0505 49.512 16.392C49.512 16.7335 49.6277 17.0082 49.8593 17.216C50.0909 17.4239 50.3765 17.5278 50.7162 17.5278H54.3289C54.6686 17.5278 54.9542 17.4239 55.1858 17.216C55.4328 17.023 55.5563 16.7558 55.5563 16.4143C55.5563 16.0728 55.4405 15.8055 55.2089 15.6125C54.9774 15.4195 54.684 15.3229 54.3289 15.3229H50.7162Z" fill="#1676D8"/>
<path d="M70.6463 14.9666C70.0133 16.6147 69.2336 17.8619 68.3072 18.7082C67.3963 19.5694 66.1149 20 64.4629 20C63.4594 20 62.5717 19.8664 61.7997 19.5991V16.9488H63.6524C64.8103 16.9488 65.4973 16.4068 65.7135 15.3229L60.8502 3.56347H65.8061L68.1451 11.3808H68.3072L70.461 3.56347H75.0001L70.6463 14.9666Z" fill="#1676D8"/>
</svg>
