<svg width="103" height="45" viewBox="0 0 103 45" fill="none" xmlns="http://www.w3.org/2000/svg">
<path d="M2 35C2 35 12.8669 43.5234 21.7871 42.9746C29.9344 42.4733 39 35 39 35" stroke="#FCFCFC" stroke-width="4" stroke-linecap="round" stroke-linejoin="round"/>
<path d="M12.072 4.736H18.26V19.072H28.144V24H12.072V4.736ZM37.6638 8.88C39.9224 8.88 41.7611 9.26267 43.1798 10.028C44.5984 10.7747 45.3078 11.9973 45.3078 13.696V19.464C45.3078 19.7813 45.3824 20.0427 45.5318 20.248C45.6811 20.4533 45.9051 20.556 46.2038 20.556H47.2118V23.776C47.1558 23.8133 47.0064 23.8787 46.7638 23.972C46.5398 24.0467 46.2131 24.1213 45.7838 24.196C45.3544 24.2893 44.8598 24.336 44.2998 24.336C43.2171 24.336 42.3211 24.1773 41.6118 23.86C40.9211 23.524 40.4451 23.0667 40.1838 22.488C39.4744 23.048 38.6811 23.496 37.8038 23.832C36.9264 24.168 35.8998 24.336 34.7238 24.336C31.2518 24.336 29.5158 22.9547 29.5158 20.192C29.5158 18.7547 29.8984 17.6627 30.6638 16.916C31.4478 16.1507 32.5678 15.628 34.0238 15.348C35.4798 15.068 37.3838 14.928 39.7358 14.928V14.2C39.7358 13.6213 39.5304 13.1827 39.1198 12.884C38.7278 12.5853 38.2144 12.436 37.5798 12.436C37.0011 12.436 36.4971 12.5387 36.0678 12.744C35.6571 12.9493 35.4518 13.276 35.4518 13.724V13.836H29.9638C29.9451 13.7427 29.9358 13.612 29.9358 13.444C29.9358 12.044 30.5984 10.9333 31.9238 10.112C33.2678 9.29067 35.1811 8.88 37.6638 8.88ZM39.7358 17.56C38.1491 17.56 36.9731 17.7373 36.2078 18.092C35.4611 18.428 35.0878 18.8853 35.0878 19.464C35.0878 20.3973 35.7224 20.864 36.9918 20.864C37.7198 20.864 38.3544 20.668 38.8958 20.276C39.4558 19.884 39.7358 19.3987 39.7358 18.82V17.56ZM59.2236 8.88C60.9409 8.88 62.2289 9.356 63.0876 10.308C63.9462 11.26 64.3756 12.632 64.3756 14.424V24H58.8036V15.096C58.8036 14.4613 58.6356 13.9573 58.2996 13.584C57.9822 13.192 57.5249 12.996 56.9276 12.996C56.2369 12.996 55.6769 13.22 55.2476 13.668C54.8182 14.116 54.6036 14.6667 54.6036 15.32V24H49.0316V9.216H53.5956L53.9596 11.456C54.5382 10.672 55.2942 10.0467 56.2276 9.58C57.1796 9.11333 58.1782 8.88 59.2236 8.88ZM84.3393 6.444C84.3393 7.58267 84.05 8.46 83.4713 9.076C82.9113 9.692 82.062 10.1493 80.9233 10.448C81.4647 10.8587 81.8847 11.344 82.1833 11.904C82.5007 12.4453 82.6593 13.024 82.6593 13.64C82.6593 15.208 82.062 16.3933 80.8673 17.196C79.6913 17.9987 78.2167 18.4 76.4433 18.4H74.3153C73.1393 18.4 72.5513 18.6707 72.5513 19.212C72.5513 19.4733 72.682 19.688 72.9433 19.856C73.2047 20.0053 73.662 20.08 74.3153 20.08H79.3553C80.998 20.08 82.2393 20.5093 83.0793 21.368C83.9193 22.2267 84.3393 23.3747 84.3393 24.812C84.3393 25.876 84.0593 26.7907 83.4993 27.556C82.9393 28.3213 82.1833 28.9 81.2313 29.292C80.2793 29.684 79.2433 29.88 78.1233 29.88H69.8913C69.2193 29.88 68.594 29.7213 68.0153 29.404C67.4553 29.0867 67.0073 28.648 66.6713 28.088C66.3353 27.5467 66.1673 26.94 66.1673 26.268C66.1673 25.54 66.3913 24.8773 66.8393 24.28C67.2873 23.7013 67.8473 23.2627 68.5193 22.964C68.0713 22.6467 67.7167 22.264 67.4553 21.816C67.194 21.368 67.0633 20.8827 67.0633 20.36C67.0633 19.632 67.334 18.9787 67.8753 18.4C68.4167 17.8027 69.0887 17.4013 69.8913 17.196C69.1633 16.7293 68.5847 16.1973 68.1553 15.6C67.726 14.984 67.5113 14.34 67.5113 13.668C67.5113 11.9507 68.202 10.728 69.5833 10C70.9833 9.25333 72.8313 8.88 75.1273 8.88C76.1353 8.88 76.9473 8.936 77.5633 9.048C78.478 8.46933 79.066 7.94667 79.3273 7.48C79.6073 6.99467 79.7473 6.64933 79.7473 6.444H84.3393ZM75.0713 11.792C74.4553 11.792 73.9513 11.9507 73.5593 12.268C73.1673 12.5853 72.9713 13.0427 72.9713 13.64C72.9713 14.256 73.1487 14.7227 73.5033 15.04C73.8767 15.3387 74.3993 15.488 75.0713 15.488C75.7433 15.488 76.266 15.3387 76.6393 15.04C77.0313 14.7227 77.2273 14.256 77.2273 13.64C77.2273 13.024 77.0313 12.5667 76.6393 12.268C76.266 11.9507 75.7433 11.792 75.0713 11.792ZM72.9153 24C72.486 24 72.1313 24.112 71.8513 24.336C71.59 24.5787 71.4593 24.9147 71.4593 25.344C71.4593 25.7733 71.5993 26.1187 71.8793 26.38C72.1593 26.6413 72.5047 26.772 72.9153 26.772H77.2833C77.694 26.772 78.0393 26.6413 78.3193 26.38C78.618 26.1373 78.7673 25.8013 78.7673 25.372C78.7673 24.9427 78.6273 24.6067 78.3473 24.364C78.0673 24.1213 77.7127 24 77.2833 24H72.9153ZM97.012 23.552C96.2466 25.624 95.304 27.192 94.184 28.256C93.0826 29.3387 91.5333 29.88 89.536 29.88C88.3226 29.88 87.2493 29.712 86.316 29.376V26.044H88.556C89.956 26.044 90.7866 25.3627 91.048 24L85.168 9.216H91.16L93.988 19.044H94.184L96.788 9.216H102.276L97.012 23.552Z" fill="#FCFCFC"/>
</svg>
