<svg width="350" height="350" viewBox="0 0 350 350" fill="none" xmlns="http://www.w3.org/2000/svg">
<path fill-rule="evenodd" clip-rule="evenodd" d="M259.755 72.996C229.064 53.9962 195.671 86.6369 161.376 92.5746C138.843 96.4759 119.83 103.939 100.259 115.106C73.3308 130.47 38.4239 134.205 33.7963 165.368C28.7212 199.544 45.0871 237.034 72.1984 260.552C97.9858 282.922 133.742 281.218 166.854 280.79C198.016 280.387 229.787 278.111 252.677 258.219C276.994 237.087 289.793 205.888 291.055 172.855C292.414 137.304 290.893 92.273 259.755 72.996Z" fill="#E2EAF3"/>
<path d="M250.042 220.023H205.498L173.318 236.858H221.89L250.042 220.023Z" fill="white" stroke="#263238" stroke-width="1.25474" stroke-linecap="round" stroke-linejoin="round"/>
<path d="M205.039 224.098H238.711" stroke="#263238" stroke-width="1.25474" stroke-linecap="round" stroke-linejoin="round"/>
<path d="M199.863 226.716H233.535" stroke="#263238" stroke-width="1.25474" stroke-linecap="round" stroke-linejoin="round"/>
<path d="M194.698 229.335H228.37" stroke="#263238" stroke-width="1.25474" stroke-linecap="round" stroke-linejoin="round"/>
<path d="M189.533 231.964H223.205" stroke="#263238" stroke-width="1.25474" stroke-linecap="round" stroke-linejoin="round"/>
<path d="M173.318 236.858V239.759H222.902L221.89 236.858H173.318Z" fill="white" stroke="#263238" stroke-width="1.25474" stroke-linecap="round" stroke-linejoin="round"/>
<path d="M222.903 239.759L251.347 222.5L250.043 220.023L221.89 236.858L222.903 239.759Z" fill="white" stroke="#263238" stroke-width="1.25474" stroke-linecap="round" stroke-linejoin="round"/>
<path d="M174.121 235.978C174.045 235.687 174.007 235.388 174.007 235.088C174.007 234.426 174.209 233.78 174.589 233.229C174.969 232.679 175.508 232.25 176.139 231.997C176.77 231.744 177.464 231.678 178.134 231.807C178.804 231.936 179.419 232.254 179.902 232.722" stroke="#263238" stroke-width="1.25474" stroke-linecap="round" stroke-linejoin="round"/>
<path d="M178.639 233.956C178.564 233.668 178.526 233.373 178.525 233.076C178.525 232.414 178.728 231.767 179.107 231.217C179.487 230.667 180.026 230.238 180.657 229.985C181.288 229.732 181.982 229.666 182.652 229.795C183.322 229.924 183.937 230.242 184.42 230.71" stroke="#263238" stroke-width="1.25474" stroke-linecap="round" stroke-linejoin="round"/>
<path d="M182.802 231.934C182.724 231.647 182.682 231.351 182.677 231.054C182.68 230.392 182.885 229.746 183.266 229.197C183.647 228.648 184.187 228.22 184.818 227.967C185.449 227.714 186.143 227.648 186.813 227.776C187.483 227.904 188.099 228.222 188.583 228.688" stroke="#263238" stroke-width="1.25474" stroke-linecap="round" stroke-linejoin="round"/>
<path d="M186.789 229.821C186.705 229.534 186.662 229.238 186.663 228.941C186.666 228.279 186.871 227.633 187.252 227.084C187.633 226.535 188.173 226.107 188.804 225.854C189.435 225.601 190.129 225.535 190.799 225.663C191.469 225.791 192.085 226.109 192.569 226.575" stroke="#263238" stroke-width="1.25474" stroke-linecap="round" stroke-linejoin="round"/>
<path d="M191.213 227.333C191.138 227.046 191.099 226.75 191.098 226.454C191.098 225.792 191.301 225.145 191.681 224.595C192.06 224.045 192.599 223.616 193.23 223.363C193.861 223.109 194.556 223.043 195.225 223.172C195.895 223.301 196.511 223.62 196.994 224.088" stroke="#263238" stroke-width="1.25474" stroke-linecap="round" stroke-linejoin="round"/>
<path d="M195.95 224.755C195.866 224.469 195.824 224.173 195.825 223.875C195.825 223.213 196.028 222.567 196.407 222.016C196.787 221.466 197.326 221.037 197.957 220.784C198.588 220.531 199.282 220.465 199.952 220.594C200.622 220.723 201.237 221.041 201.72 221.509" stroke="#263238" stroke-width="1.25474" stroke-linecap="round" stroke-linejoin="round"/>
<path d="M198.496 223.208C198.412 222.922 198.37 222.626 198.371 222.328C198.369 221.666 198.57 221.017 198.949 220.466C199.328 219.914 199.867 219.484 200.498 219.229C201.13 218.975 201.825 218.908 202.496 219.036C203.166 219.165 203.783 219.484 204.266 219.952" stroke="#263238" stroke-width="1.25474" stroke-linecap="round" stroke-linejoin="round"/>
<path d="M249.166 148.468H176.855C167.882 147.801 167.339 151.259 167.339 151.259L153.774 216.16H243.052C243.521 212.915 250.564 164.919 251.89 157.164C253.277 149.136 249.166 148.468 249.166 148.468Z" fill="white" stroke="#263238" stroke-width="1.25474" stroke-linecap="round" stroke-linejoin="round"/>
<path d="M249.166 148.468H249.03C248.509 148.468 246.557 148.974 245.368 154.151C244.178 159.327 237.386 203.815 235.507 216.161H243.083C243.552 212.915 250.596 164.919 251.921 157.164C253.277 149.136 249.166 148.468 249.166 148.468Z" fill="#263238" stroke="#263238" stroke-width="1.25474" stroke-linecap="round" stroke-linejoin="round"/>
<path d="M131.914 216.161H216.068C215.63 203.411 213.981 157.437 212.729 151.734C211.289 145.101 207.689 144.06 202.649 143.706C197.609 143.352 193.864 144.616 183.784 144.616C173.704 144.616 163.958 143.605 163.958 143.605C163.958 143.605 160.004 143.251 157.844 143.251C155.684 143.251 154.244 144.647 151.364 144.647C146.193 144.71 141.022 144.477 135.879 143.949C130.474 143.251 123.994 146.042 122.919 151.279C121.98 155.829 119.789 204.119 119.236 216.565H131.893L131.914 216.161Z" fill="#F8970F" stroke="#263238" stroke-width="1.25474" stroke-linecap="round" stroke-linejoin="round"/>
<path d="M156.216 150.733C156.216 150.733 159.19 164.565 167.506 168.013" stroke="#263238" stroke-width="1.25474" stroke-linecap="round" stroke-linejoin="round"/>
<path d="M148.484 148.428C148.484 148.428 144.31 157.073 150.268 169.742" stroke="#263238" stroke-width="1.25474" stroke-linecap="round" stroke-linejoin="round"/>
<path d="M197.828 166.294C197.828 166.294 188.323 189.903 167.506 200.853" stroke="#263238" stroke-width="1.25474" stroke-linecap="round" stroke-linejoin="round"/>
<path d="M158.584 135.547C158.584 135.547 159.304 145.314 160.379 150.895C161.454 156.476 167.579 159.995 174.424 157.872C181.269 155.748 184.139 151.249 184.504 148.104C184.869 144.96 184.859 133.11 184.859 133.11C184.859 133.11 174.038 140.087 158.584 135.547Z" fill="white" stroke="#263238" stroke-width="1.25474" stroke-linecap="round" stroke-linejoin="round"/>
<path d="M195.523 79.9775C195.523 79.9775 196.503 78.7137 193.895 74.9221C191.286 71.1305 185.088 68.6028 185.088 68.6028L189.001 73.6583C189.001 73.6583 177.92 67.976 173.349 67.976C168.779 67.976 157.343 69.5532 157.343 69.5532L162.883 70.8171C162.883 70.8171 149.193 74.9221 147.566 76.8128C145.938 78.7036 138.112 85.033 139.74 85.033C141.368 85.033 149.517 83.7691 149.517 83.7691C149.517 83.7691 141.368 91.3522 141.368 94.5068C141.368 97.6614 148.536 112.828 148.536 112.828C148.536 112.828 153.43 121.361 155.058 117.246C156.685 113.131 154.077 103.354 154.411 102.403C154.745 101.453 173.641 99.8757 177.878 99.8757C182.114 99.8757 181.467 109.673 183.095 111.25C184.723 112.828 192.59 115.659 193.863 115.659C195.136 115.659 197.453 114.718 197.453 113.455C197.533 110.749 198.084 108.076 199.081 105.548C200.385 102.383 202.013 99.542 202.336 95.7505C202.66 91.9589 200.385 83.4354 200.385 83.4354H203.317C203.317 83.4354 200.416 78.7137 195.523 79.9775Z" fill="#263238" stroke="#263238" stroke-width="1.25474" stroke-linecap="round" stroke-linejoin="round"/>
<path d="M150.216 110.603C150.216 110.603 148.578 104.608 145.646 108.713C143.757 111.362 148.578 121.978 151.186 122.615C153.795 123.252 150.216 110.603 150.216 110.603Z" fill="white" stroke="#263238" stroke-width="1.25474" stroke-linecap="round" stroke-linejoin="round"/>
<path d="M150.216 98.6118C150.216 98.6118 150.216 121.675 151.844 127.357C153.471 133.039 159.993 141.573 169.447 141.573C178.9 141.573 185.422 136.831 188.03 133.363C190.639 129.895 191.933 122.938 191.933 122.938C191.933 122.938 194.875 125.153 198.454 121.038C202.033 116.923 202.555 109.622 201.063 108.723C198.454 107.145 195.522 109.036 194.218 110.3L191.609 112.828C191.609 112.828 187.373 109.986 187.373 106.195C187.373 102.403 188.03 95.4572 188.03 95.4572L185.088 97.3479L185.422 94.8202C185.422 94.8202 184.764 95.4572 180.851 95.4572C176.939 95.4572 167.485 96.0841 167.485 96.0841L172.379 89.7648C172.379 89.7648 162.925 93.8799 159.669 95.7706C156.414 97.6613 150.216 98.6118 150.216 98.6118Z" fill="white" stroke="#263238" stroke-width="1.25474" stroke-linecap="round" stroke-linejoin="round"/>
<path d="M162.466 112.453C162.466 114.162 161.767 115.557 160.901 115.557C160.035 115.557 159.336 114.162 159.336 112.453C159.336 110.745 160.035 109.349 160.901 109.349C161.767 109.349 162.466 110.745 162.466 112.453Z" fill="#263238"/>
<path d="M177.554 112.878C177.554 114.587 176.855 115.972 175.989 115.972C175.123 115.972 174.424 114.587 174.424 112.878C174.424 111.169 175.123 109.774 175.989 109.774C176.855 109.774 177.554 111.159 177.554 112.878Z" fill="#263238"/>
<path d="M165.075 119.784C165.075 119.784 165.075 124.223 170.751 123.161" stroke="#263238" stroke-width="1.25474" stroke-linecap="round" stroke-linejoin="round"/>
<path d="M163.332 127.792C163.332 127.792 167.913 130.532 174.246 127.579" stroke="#263238" stroke-width="1.25474" stroke-linecap="round" stroke-linejoin="round"/>
<path d="M155.256 106.458C155.814 105.474 156.704 104.705 157.778 104.282C158.851 103.858 160.042 103.806 161.151 104.132" stroke="#263238" stroke-width="1.25474" stroke-linecap="round" stroke-linejoin="round"/>
<path d="M172.932 104.132C172.932 104.132 178.149 102.656 180.131 106.043" stroke="#263238" stroke-width="1.25474" stroke-linecap="round" stroke-linejoin="round"/>
<path d="M123.566 149.267L109.104 187.86C109.104 187.86 99.8382 194.382 98.8469 196.07C96.3531 200.286 99.5982 206.272 102.593 209.396C107.309 214.3 116.899 214.998 122.638 211.358C126.404 208.972 128.616 204.118 130.036 200.125L131.559 166.213" fill="#F8970F"/>
<path d="M123.566 149.267L109.104 187.86C109.104 187.86 99.8382 194.382 98.8469 196.07C96.3531 200.286 99.5982 206.272 102.593 209.396C107.309 214.3 116.899 214.998 122.638 211.358C126.404 208.972 128.616 204.118 130.036 200.125L131.559 166.213" stroke="#3274B8" stroke-width="1.25474" stroke-linecap="round" stroke-linejoin="round"/>
<path d="M102.843 191.247C102.843 191.247 110.262 185.333 122.481 192.097" stroke="#263238" stroke-width="1.25474" stroke-linecap="round" stroke-linejoin="round"/>
<path d="M109.25 194.139L119.048 196.161C119.048 196.161 128.439 192.451 129.264 196.576C130.088 200.701 123.733 201.945 122.022 201.945C120.311 201.945 116.064 201.53 114.363 201.945C112.662 202.359 110.534 204.412 106.704 204.826C106.704 204.826 96.061 208.952 91.8038 206.474C87.5465 203.997 90.9481 195.352 96.4889 192.451C102.03 189.549 109.25 194.139 109.25 194.139Z" fill="white" stroke="#263238" stroke-width="1.25474" stroke-linecap="round" stroke-linejoin="round"/>
<path d="M87.4317 197.193C87.4317 197.193 83.2579 194.786 81.9432 197.85C80.6285 200.913 76.799 208.021 79.1885 207.384C81.578 206.747 87.4317 197.193 87.4317 197.193Z" fill="white" stroke="#263238" stroke-width="1.25474" stroke-linecap="round" stroke-linejoin="round"/>
<path d="M93.9323 192.906C93.9323 192.906 87.0664 192.188 86.263 194.139C84.7813 197.769 82.8613 207.758 85.8456 208.577C88.8298 209.396 89.675 203.219 91.3759 199.478C92.3681 197.341 93.2219 195.146 93.9323 192.906Z" fill="white" stroke="#263238" stroke-width="1.25474" stroke-linecap="round" stroke-linejoin="round"/>
<path d="M97.7617 188.78C97.7617 188.78 92.6488 188.366 90.948 191.672C89.2471 194.978 88.2559 208.193 89.9045 208.193C91.5532 208.193 91.1358 209.497 93.6922 204.149C94.9444 201.53 96.8226 192.916 96.8226 192.916L97.7617 188.78Z" fill="white" stroke="#263238" stroke-width="1.25474" stroke-linecap="round" stroke-linejoin="round"/>
<path d="M110.481 195.261C110.481 195.261 103.699 189.66 101.915 188.699C100.13 187.739 98.9198 187.345 96.9269 189.084C94.9339 190.823 94.5374 197 92.9513 200.863C91.3653 204.725 89.7584 208.769 91.7513 208.769C93.7443 208.769 95.5391 207.809 97.1251 205.736C98.7112 203.663 101.716 196.08 101.716 196.08" fill="white"/>
<path d="M110.481 195.261C110.481 195.261 103.699 189.66 101.915 188.699C100.13 187.739 98.9198 187.345 96.9269 189.084C94.9339 190.823 94.5374 197 92.9513 200.863C91.3653 204.725 89.7584 208.769 91.7513 208.769C93.7443 208.769 95.5391 207.809 97.1251 205.736C98.7112 203.663 101.716 196.08 101.716 196.08" stroke="#263238" stroke-width="1.25474" stroke-linecap="round" stroke-linejoin="round"/>
<path d="M100.715 199.892C100.715 199.892 103.104 200.903 106.495 198.729L100.715 199.892Z" fill="white"/>
<path d="M100.715 199.892C100.715 199.892 103.104 200.903 106.495 198.729" stroke="#263238" stroke-width="1.25474" stroke-linecap="round" stroke-linejoin="round"/>
<path d="M200.98 143.433C200.98 143.433 209.129 141.917 213.084 145.759C217.038 149.601 228.422 178.417 232.388 188.224C236.353 198.032 240.307 204.968 239.222 209.851C238.137 214.735 229.831 216.474 223.748 216.828C216.83 217.222 212.27 212.986 212.27 211.59C212.27 210.195 209.745 207.061 214.43 196.242L211.185 173.22" fill="#F8970F"/>
<path d="M200.98 143.433C200.98 143.433 209.129 141.917 213.084 145.759C217.038 149.601 228.422 178.417 232.388 188.224C236.353 198.032 240.307 204.968 239.222 209.851C238.137 214.735 229.831 216.474 223.748 216.828C216.83 217.222 212.27 212.986 212.27 211.59C212.27 210.195 209.745 207.061 214.43 196.242L211.185 173.22" stroke="#3274B8" stroke-width="1.25474" stroke-linecap="round" stroke-linejoin="round"/>
<path d="M222.245 197.799C222.245 197.799 215.4 194.918 214.252 194.918C213.292 196.045 212.732 197.442 212.656 198.901C212.656 201.116 212.885 210.185 214.022 210.63C215.16 211.075 218.593 209.083 220.878 205.989C223.163 202.895 223.612 198.456 222.245 197.799Z" fill="white" stroke="#263238" stroke-width="1.25474" stroke-linecap="round" stroke-linejoin="round"/>
<path d="M217.226 185.424L213.344 215.928L214.732 220.812L217.017 216.605L221.129 185.848C221.184 185.353 221.036 184.856 220.715 184.466C220.395 184.075 219.928 183.824 219.417 183.765C219.161 183.731 218.899 183.748 218.649 183.813C218.399 183.879 218.165 183.992 217.961 184.147C217.757 184.301 217.586 184.494 217.46 184.713C217.334 184.932 217.254 185.174 217.226 185.424Z" fill="white" stroke="#263238" stroke-width="1.25474" stroke-linecap="round" stroke-linejoin="round"/>
<path d="M216.997 216.605L213.344 215.938L214.711 220.811L216.997 216.605Z" fill="white" stroke="#263238" stroke-width="1.25474" stroke-linecap="round" stroke-linejoin="round"/>
<path d="M219.397 183.765C219.141 183.734 218.881 183.753 218.633 183.821C218.384 183.888 218.152 184.003 217.95 184.158C217.748 184.314 217.58 184.506 217.456 184.725C217.331 184.944 217.253 185.185 217.226 185.434L216.725 189.377L220.534 190.115L221.108 185.848C221.164 185.353 221.015 184.856 220.695 184.466C220.374 184.075 219.908 183.824 219.397 183.765Z" fill="white" stroke="#263238" stroke-width="1.25474" stroke-linecap="round" stroke-linejoin="round"/>
<path d="M214.252 194.918C213.115 194.918 210.83 197.799 209.463 199.346C208.096 200.893 208.545 204.21 209.682 206.869C210.819 209.528 211.289 214.391 212.656 214.614C214.023 214.836 215.171 213.512 215.171 211.075C215.171 208.638 214.711 203.552 214.711 203.552" fill="white"/>
<path d="M214.252 194.918C213.115 194.918 210.83 197.799 209.463 199.346C208.096 200.893 208.545 204.21 209.682 206.869C210.819 209.528 211.289 214.391 212.656 214.614C214.023 214.836 215.171 213.512 215.171 211.075C215.171 208.638 214.711 203.552 214.711 203.552" stroke="#263238" stroke-width="1.25474" stroke-linecap="round" stroke-linejoin="round"/>
<path d="M229.549 210.63C229.549 210.63 231.156 214.836 229.33 217.05C227.504 219.264 221.556 218.375 220.419 217.495C219.282 216.615 225.448 215.058 229.549 210.63Z" fill="white" stroke="#263238" stroke-width="1.25474" stroke-linecap="round" stroke-linejoin="round"/>
<path d="M228.871 206.656C229.477 207.305 229.884 208.106 230.044 208.967C230.205 209.829 230.113 210.717 229.779 211.53C228.641 214.401 224.561 216.838 221.556 217.283C218.551 217.728 216.078 216.171 217.456 215.261C218.833 214.351 225.668 209.973 228.871 206.656Z" fill="white" stroke="#263238" stroke-width="1.25474" stroke-linecap="round" stroke-linejoin="round"/>
<path d="M226.127 201.783C226.127 201.783 228.871 204.21 228.871 206.646C228.871 209.083 222.245 214.836 219.052 215.938C215.859 217.04 214.252 215.938 215.171 213.916C216.089 211.894 225.219 201.975 225.219 201.975C225.219 201.975 224.76 201.338 226.127 201.783Z" fill="white" stroke="#263238" stroke-width="1.25474" stroke-linecap="round" stroke-linejoin="round"/>
<path d="M218.364 201.783C218.364 201.783 213.345 210.185 212.656 212.844C211.967 215.503 214.482 215.503 216.079 214.391C217.675 213.279 225.219 204.432 226.127 201.783C227.035 199.134 225.449 196.252 222.475 196.727C219.501 197.203 218.364 201.783 218.364 201.783Z" fill="white" stroke="#263238" stroke-width="1.25474" stroke-linecap="round" stroke-linejoin="round"/>
<path d="M177.45 215.422H93.1184L60.9385 232.267H149.287L177.45 215.422Z" fill="white" stroke="#263238" stroke-width="1.25474" stroke-linecap="round" stroke-linejoin="round"/>
<path d="M98.6379 219.831H160.901" stroke="#263238" stroke-width="1.25474" stroke-linecap="round" stroke-linejoin="round"/>
<path d="M94.0991 222.965H156.362" stroke="#263238" stroke-width="1.25474" stroke-linecap="round" stroke-linejoin="round"/>
<path d="M89.55 226.11H151.823" stroke="#263238" stroke-width="1.25474" stroke-linecap="round" stroke-linejoin="round"/>
<path d="M161.224 219.831L143.392 228.314" stroke="#263238" stroke-width="1.25474" stroke-linecap="round" stroke-linejoin="round"/>
<path d="M151.499 219.831L133.667 228.314" stroke="#263238" stroke-width="1.25474" stroke-linecap="round" stroke-linejoin="round"/>
<path d="M45.8501 173.493H134.209L149.287 232.267H60.9384L45.8501 173.493Z" fill="#263238" stroke="#263238" stroke-width="1.25474" stroke-linecap="round" stroke-linejoin="round"/>
<path d="M60.9277 236.443H149.287V232.267H60.9277V236.443Z" fill="#E1E1E1" stroke="#E1E1E1" stroke-width="1.25474" stroke-linecap="round" stroke-linejoin="round"/>
<path d="M44.8691 173.493H133.228L148.317 232.267H59.9574L44.8691 173.493Z" fill="#F1F1F1" stroke="#E1E1E1" stroke-width="1.25474" stroke-linecap="round" stroke-linejoin="round"/>
<path d="M149.287 232.267L177.45 215.422V218.88L149.287 236.443V232.267Z" fill="#E1E1E1" stroke="#263238" stroke-width="1.25474" stroke-linecap="round" stroke-linejoin="round"/>
<path d="M100.433 201.095C100.572 201.972 100.446 202.869 100.069 203.677C99.6922 204.485 99.0815 205.17 98.3108 205.648C97.5402 206.127 96.6429 206.378 95.7277 206.372C94.8125 206.366 93.9189 206.102 93.1553 205.613C92.3917 205.124 91.791 204.431 91.4261 203.618C91.0612 202.805 90.9478 201.906 91.0997 201.032C91.2516 200.157 91.6622 199.344 92.2817 198.691C92.9012 198.039 93.7029 197.574 94.5896 197.354C95.876 197.103 97.2127 197.356 98.3075 198.057C99.4024 198.758 100.166 199.85 100.433 201.095Z" stroke="#263238" stroke-width="1.25474" stroke-linecap="round" stroke-linejoin="round"/>
</svg>
