<svg width="48" height="48" viewBox="0 0 48 48" fill="none" xmlns="http://www.w3.org/2000/svg">
<path fill-rule="evenodd" clip-rule="evenodd" d="M33.9421 16.1983C33.0439 16.6806 32.7368 18.0758 33.3464 18.9038C33.5143 19.1318 34.4984 20.148 35.5334 21.1618L37.415 23.0053L21.3427 23.0762C5.38611 23.1465 5.26755 23.1492 4.86521 23.4399C4.28186 23.8613 3.9065 24.677 4.02033 25.2761C4.1465 25.9408 4.73028 26.5835 5.3663 26.758C5.71238 26.853 11.3546 26.9035 21.675 26.904L37.4545 26.9048L35.2982 29.0673C33.0549 31.3171 32.8273 31.6698 33.048 32.5553C33.3457 33.7507 34.5966 34.3447 35.6512 33.7916C36.2673 33.4684 43.686 26.0323 43.8644 25.5591C44.2353 24.5754 44.1139 24.4115 39.9395 20.2652C37.7941 18.1344 35.8644 16.2997 35.6512 16.1884C35.1627 15.9335 34.4275 15.9377 33.9421 16.1983Z" fill="#1676D8"/>
</svg>
