<svg width="60" height="60" viewBox="0 0 60 60" fill="none" xmlns="http://www.w3.org/2000/svg">
<circle cx="30" cy="30" r="30" fill="#1676D8"/>
<path fill-rule="evenodd" clip-rule="evenodd" d="M15.3026 16.6909C14.9432 16.8224 14.5055 17.1688 14.3301 17.4609C13.9857 18.0349 13.8621 36.3136 14.1973 37.0927C14.6198 38.0746 15.8921 38.3054 20.8787 38.3054H25.6812V38.9725C25.6812 40.0622 24.0175 41.2164 21.8458 41.6337C20.7276 41.8485 20.3469 42.3875 20.8969 42.9782C21.4487 43.5714 38.5913 43.5714 39.143 42.9782C39.693 42.3875 39.3124 41.8485 38.1942 41.6337C36.0224 41.2164 34.3587 40.0622 34.3587 38.9725V38.3054H39.1613C44.1478 38.3054 45.4202 38.0746 45.8427 37.0927C45.9447 36.8552 46.0285 32.4215 46.0285 27.2401C46.0285 18.3631 45.9956 17.783 45.4567 17.1896L44.8848 16.5596L30.4206 16.506C22.4391 16.4764 15.6635 16.5594 15.3026 16.6909ZM44.3507 18.4492C44.4507 18.6814 44.5324 21.8032 44.5324 25.3865V31.9017H30.02H15.5076V25.3865C15.5076 21.8032 15.5893 18.6814 15.6892 18.4492C15.8514 18.0725 17.3939 18.0271 30.02 18.0271C42.646 18.0271 44.1885 18.0725 44.3507 18.4492ZM27.5948 22.0836C25.7991 23.5599 25.4837 24.1021 26.101 24.6528C26.5394 25.0434 26.7171 24.9578 28.2249 23.6301C29.8919 22.162 30.2459 21.4147 29.4096 21.1284C29.1211 21.0297 28.4431 21.3864 27.5948 22.0836ZM30.3072 24.1344C26.0427 27.9101 26.128 27.8151 26.5741 28.2946C26.7818 28.5177 27.0891 28.6999 27.2572 28.6999C27.6274 28.6999 33.6888 23.4302 34.1053 22.7461C34.3883 22.2816 34 21.4958 33.4874 21.4958C33.3773 21.4958 31.9464 22.6831 30.3072 24.1344ZM44.5324 34.5481C44.5324 36.9115 45.9258 36.7045 30.02 36.7045C14.1141 36.7045 15.5076 36.9115 15.5076 34.5481V33.2358H30.02H44.5324V34.5481ZM28.999 34.6751C28.7318 34.9622 28.7623 35.1447 29.1334 35.4755C29.7136 35.9929 30.1821 36.0164 30.8766 35.5636C31.6313 35.0716 31.2028 34.3031 30.1741 34.3031C29.7183 34.3031 29.1893 34.4704 28.999 34.6751ZM32.8626 39.3367C32.8626 39.976 33.0984 40.6353 33.4829 41.071L34.1029 41.7741H30.02H25.937L26.557 41.071C26.9415 40.6353 27.1773 39.976 27.1773 39.3367V38.3054H30.02H32.8626V39.3367Z" fill="#FCFCFC"/>
</svg>
