<svg width="48" height="48" viewBox="0 0 48 48" fill="none" xmlns="http://www.w3.org/2000/svg">
<path fill-rule="evenodd" clip-rule="evenodd" d="M14.0579 31.8017C14.9561 31.3194 15.2632 29.9242 14.6536 29.0962C14.4857 28.8682 13.5016 27.852 12.4666 26.8382L10.585 24.9947L26.6573 24.9238C42.6139 24.8535 42.7325 24.8508 43.1348 24.5601C43.7181 24.1387 44.0935 23.323 43.9797 22.7239C43.8535 22.0592 43.2697 21.4165 42.6337 21.242C42.2876 21.147 36.6454 21.0965 26.325 21.096L10.5455 21.0952L12.7018 18.9327C14.9451 16.6829 15.1727 16.3302 14.952 15.4447C14.6543 14.2493 13.4034 13.6553 12.3488 14.2084C11.7327 14.5316 4.31401 21.9677 4.13559 22.4409C3.76468 23.4246 3.88612 23.5885 8.06055 27.7348C10.2059 29.8656 12.1356 31.7003 12.3488 31.8116C12.8373 32.0665 13.5725 32.0623 14.0579 31.8017Z" fill="#1676D8"/>
</svg>
