<svg width="200" height="299" viewBox="0 0 200 299" fill="none" xmlns="http://www.w3.org/2000/svg">
<path fill-rule="evenodd" clip-rule="evenodd" d="M90.1194 68.7076C116.151 71.472 122.553 109.392 140.47 130.273C152.242 143.992 168.731 151.501 175.758 168.511C185.426 191.914 196.341 218.454 186.275 241.154C175.236 266.049 150.105 282.491 124.341 284.459C99.8353 286.331 79.3102 267.499 59.8294 250.812C41.4965 235.108 23.5719 217.877 18.1625 193.508C12.4162 167.622 17.6462 140.849 30.479 118.592C44.2905 94.6381 63.7084 65.9028 90.1194 68.7076Z" fill="#3274B8" fill-opacity="0.13"/>
<path d="M37.5208 13.8094C37.5208 13.8094 41.2443 41.7864 44.8786 49.2658C46.7438 53.1121 63.4549 74.6626 63.4549 74.6626L72.6094 61.5892L55.1028 42.4745L45.1666 13.314L37.5208 13.8094Z" fill="#FFBF9D"/>
<path d="M37.7954 6.18601C37.7954 5.98646 37.2811 3.70894 37.7954 3.06903C37.9755 2.87884 38.1983 2.73463 38.4452 2.64844C38.6922 2.56226 38.9561 2.53661 39.2149 2.57362C39.4363 2.02525 39.8347 1.56731 40.3463 1.27316C40.9102 1.08965 41.5174 1.08965 42.0812 1.27316L42.7258 0.839673C42.9366 0.652645 43.195 0.527912 43.4722 0.479326C43.7494 0.430741 44.0346 0.460203 44.2961 0.564443C44.7549 0.922702 45.3131 1.12944 45.8939 1.15619C46.7373 1.15619 47.807 3.47499 48.3968 4.59655C48.9865 5.71811 49.8094 7.18371 48.7191 8.84885C47.5515 10.5303 46.2828 12.1388 44.9201 13.6654L37.9669 14.4016C37.9669 14.4016 37.0274 13.5553 36.8971 11.0644C36.8626 9.3939 37.1682 7.73386 37.7954 6.18601Z" fill="#FFBF9D"/>
<path d="M39.1875 2.56641C39.3798 2.98495 39.5336 3.42025 39.6469 3.86686C39.8938 4.67879 40.2161 5.80723 40.5589 7.05952L40.6824 7.52053C40.6995 7.56716 40.711 7.61567 40.7167 7.66503C40.7184 7.72721 40.7042 7.78879 40.6755 7.84393C40.6314 7.937 40.5595 8.01397 40.4698 8.06411C40.1879 8.21177 39.8757 8.29185 39.5578 8.29806C39.2607 8.31633 38.9674 8.22313 38.7349 8.03659C38.5435 7.88323 38.381 7.69683 38.2549 7.48613C38.0782 7.19169 37.9421 6.87458 37.8503 6.54347C37.7886 6.3164 37.7749 6.17879 37.7955 6.17879C37.816 6.17879 37.9669 6.68796 38.4263 7.37604C38.5326 7.5805 38.6919 7.75238 38.8874 7.8735C39.0829 7.99461 39.3075 8.06047 39.5372 8.06411C39.8067 8.05334 40.0708 7.98533 40.3121 7.86457C40.3569 7.83717 40.3945 7.79943 40.4218 7.75448C40.4218 7.70631 40.4218 7.75448 40.4218 7.62374C40.4218 7.49301 40.3395 7.32099 40.2915 7.16274C39.9555 5.91732 39.6606 4.782 39.4618 3.95631C39.3168 3.50528 39.2248 3.03883 39.1875 2.56641Z" fill="#FF9A6C"/>
<path d="M42.0539 1.27295C42.1746 1.63886 42.2528 2.0175 42.2871 2.40139C42.3968 3.08946 42.534 4.08717 42.6642 5.15368C42.6734 5.1933 42.6849 5.23236 42.6985 5.27065C42.842 5.80703 42.842 6.37189 42.6985 6.90827C42.6325 7.13481 42.5095 7.34052 42.3414 7.5056C42.1733 7.67068 41.9657 7.7896 41.7385 7.85093C41.4412 7.9226 41.1297 7.90828 40.8402 7.80965C40.6414 7.74084 40.5454 7.67203 40.5522 7.65827C40.5591 7.64451 40.6688 7.65827 40.8676 7.69955C41.1392 7.74886 41.4184 7.73473 41.6837 7.65827C41.8691 7.59535 42.036 7.48682 42.1689 7.3426C42.3019 7.19837 42.3967 7.02303 42.4448 6.83258C42.5488 6.33789 42.53 5.82512 42.3899 5.33946V5.23625C42.2597 4.14909 42.1637 3.17203 42.1019 2.48395C42.0337 2.08408 42.0176 1.677 42.0539 1.27295Z" fill="#FF9A6C"/>
<path d="M44.2689 0.564209C44.2792 1.14271 44.2356 1.72092 44.1386 2.29127V2.24999C44.4197 3.13073 44.8243 4.31421 45.174 5.63531C45.2563 5.9243 45.3386 6.20641 45.4209 6.48164V6.54357V6.59173C45.2601 6.86984 45.0484 7.11497 44.7969 7.31421C44.5574 7.50701 44.2604 7.61362 43.9534 7.61696C43.8124 7.61552 43.6734 7.58268 43.5465 7.52081C43.4196 7.45893 43.308 7.36957 43.2197 7.25916C43.0765 7.08403 42.963 6.88644 42.8837 6.6743C42.7675 6.38236 42.687 6.07739 42.6437 5.76605C42.6437 5.55274 42.6437 5.42889 42.6437 5.42889C42.6437 5.42889 42.7466 5.90366 43.062 6.59861C43.2197 6.92201 43.4872 7.38302 43.9603 7.36926C44.2224 7.32729 44.4704 7.22208 44.683 7.06267C44.8956 6.90326 45.0665 6.69443 45.1809 6.45412V6.56421L44.934 5.71788C44.5432 4.40366 44.2072 3.19953 43.9672 2.27752V2.23623C44.0178 1.67097 44.1188 1.11141 44.2689 0.564209Z" fill="#FF9A6C"/>
<path d="M44.8929 13.6721C44.8929 13.6721 48.6643 9.02074 48.6918 8.85561C48.7192 8.69047 47.8141 3.35102 46.95 2.37396C46.086 1.39689 44.8929 0.172119 44.8929 0.172119C44.8929 0.172119 43.5214 0.406065 44.0631 2.4634C44.6048 4.52074 45.2837 6.59184 45.2837 6.59184L44.022 8.20882C44.022 8.20882 39.551 9.08267 39.5168 13.3074" fill="#FFBF9D"/>
<path d="M39.517 13.3073C39.4987 13.1312 39.4987 12.9537 39.517 12.7775C39.5213 12.5637 39.5512 12.3512 39.6061 12.1445C39.6619 11.8597 39.7445 11.581 39.853 11.3119C40.1754 10.5863 40.6641 9.94741 41.2793 9.44725C42.0801 8.78942 43.0172 8.31927 44.0222 8.0711L43.9468 8.11927L45.2154 6.5023V6.62615C44.8931 5.64908 44.5708 4.61697 44.2622 3.52294C44.0864 2.9628 43.9535 2.39004 43.8645 1.80964C43.8327 1.49341 43.8701 1.17404 43.9742 0.873856C44.0855 0.554552 44.3101 0.287556 44.6051 0.123853C44.7066 0.068485 44.8149 0.026839 44.9273 0H45.0028L45.0508 0.0550471L46.1616 1.25918L46.7102 1.84404C46.8992 2.03267 47.0713 2.23758 47.2245 2.45642C47.4763 2.91351 47.6742 3.39842 47.8142 3.90138C47.9651 4.38303 48.0817 4.8578 48.1914 5.32569C48.4108 6.25459 48.5891 7.1422 48.7263 7.98165C48.7263 8.19496 48.788 8.40137 48.8223 8.60091V8.76606V8.86239C48.8067 8.89817 48.7883 8.93268 48.7674 8.9656C48.7057 9.06193 48.6508 9.13761 48.5891 9.22018L47.9034 10.1078C47.0051 11.2294 46.2645 12.1239 45.7502 12.7362L45.1468 13.4243C45.08 13.5081 45.0066 13.5863 44.9273 13.6583C44.9273 13.6583 44.9822 13.555 45.1056 13.3899L45.6611 12.6537L47.7182 9.97018L48.404 9.07569L48.5686 8.84175H48.6371C48.5685 8.84175 48.5891 8.84175 48.5823 8.84175V8.69725L48.4794 8.08486C48.3285 7.25229 48.1434 6.37156 47.924 5.44954C47.8074 4.98853 47.6908 4.52065 47.54 4.0734C47.4056 3.59461 47.2169 3.13288 46.9777 2.69725C46.827 2.49103 46.6596 2.29771 46.4771 2.11927L45.9422 1.54129L44.8382 0.350919L44.9616 0.392202C44.8805 0.412142 44.8022 0.442195 44.7285 0.481654C44.5082 0.629374 44.3353 0.837946 44.2307 1.08216C44.126 1.32637 44.0941 1.59577 44.1388 1.8578C44.2245 2.41895 44.3505 2.97315 44.5159 3.51605C44.8176 4.60321 45.1331 5.6422 45.4485 6.61238V6.67431L45.3936 6.69495L44.1113 8.30504H44.0222C43.0554 8.53163 42.1482 8.96333 41.3616 9.5711C40.7762 10.0509 40.3072 10.6579 39.9901 11.3463C39.7475 11.9764 39.5884 12.6357 39.517 13.3073Z" fill="#FF9A6C"/>
<path d="M91.4331 202.08L114.364 224.835L106.368 233.098L82.6215 215.436L91.4331 202.08Z" fill="#FFBF9D"/>
<path d="M105.154 232.968L104.002 232.094C107.488 229.019 109.874 224.884 110.798 220.321L118.944 224.615L105.23 249C102.994 247.631 105.154 232.968 105.154 232.968Z" fill="#455A64"/>
<path d="M118.944 224.615L116.956 223.569L104.544 247.383C104.544 247.383 104.414 248.718 105.23 249L118.944 224.615Z" fill="#E0E0E0"/>
<path d="M105.326 232.638C105.449 232.693 105.84 232.129 106.553 231.743C107.266 231.358 107.925 231.31 107.966 231.172C108.007 231.035 107.184 230.856 106.327 231.337C105.47 231.819 105.202 232.603 105.326 232.638Z" fill="#263238"/>
<path d="M112.814 225.963C112.99 226.049 113.192 226.063 113.379 226.003C113.565 225.943 113.721 225.813 113.815 225.64C113.862 225.557 113.893 225.465 113.903 225.369C113.913 225.274 113.903 225.177 113.874 225.086C113.845 224.995 113.797 224.91 113.734 224.839C113.671 224.767 113.593 224.709 113.506 224.67C113.331 224.584 113.129 224.57 112.944 224.63C112.759 224.691 112.604 224.821 112.512 224.993C112.464 225.075 112.433 225.167 112.423 225.262C112.412 225.357 112.421 225.453 112.449 225.545C112.478 225.636 112.525 225.72 112.588 225.792C112.65 225.864 112.727 225.923 112.814 225.963Z" fill="#E0E0E0"/>
<path d="M105.346 232.383C105.346 232.383 105.518 232.245 105.751 231.949C106.107 231.529 106.343 231.021 106.437 230.477C106.461 230.294 106.461 230.109 106.437 229.927C106.424 229.717 106.36 229.514 106.251 229.335C106.179 229.225 106.073 229.141 105.95 229.094C105.827 229.047 105.693 229.04 105.566 229.073C105.436 229.107 105.316 229.169 105.212 229.253C105.108 229.337 105.023 229.442 104.962 229.562C104.723 230.024 104.619 230.544 104.663 231.063C104.706 231.582 104.896 232.078 105.209 232.493L105.477 232.225C105.302 232.105 105.116 232.003 104.921 231.922C104.4 231.705 103.831 231.628 103.272 231.701C102.712 231.773 102.181 231.992 101.733 232.335C101.611 232.421 101.51 232.534 101.438 232.665C101.4 232.739 101.381 232.82 101.381 232.902C101.381 232.985 101.4 233.066 101.438 233.14C101.502 233.255 101.588 233.357 101.692 233.438C101.795 233.52 101.914 233.58 102.041 233.615C102.452 233.745 102.892 233.757 103.31 233.649C103.891 233.491 104.43 233.204 104.887 232.81C105.209 232.548 105.381 232.404 105.367 232.383C105.162 232.452 104.97 232.554 104.798 232.686C104.336 233.014 103.814 233.248 103.262 233.374C102.894 233.45 102.513 233.426 102.158 233.305C101.986 233.254 101.841 233.138 101.753 232.982C101.691 232.851 101.753 232.741 101.952 232.596C102.353 232.301 102.823 232.115 103.317 232.056C103.811 231.997 104.311 232.067 104.77 232.259C104.942 232.328 105.105 232.416 105.257 232.521C105.298 232.551 105.349 232.563 105.399 232.555C105.449 232.547 105.494 232.52 105.525 232.479C105.55 232.447 105.563 232.407 105.563 232.366C105.563 232.325 105.55 232.285 105.525 232.252C105.258 231.89 105.094 231.462 105.049 231.014C105.005 230.566 105.081 230.114 105.271 229.706C105.435 229.355 105.861 229.238 106.018 229.493C106.172 229.787 106.236 230.119 106.203 230.449C106.133 230.956 105.945 231.44 105.655 231.86C105.527 232.018 105.423 232.195 105.346 232.383Z" fill="#263238"/>
<path d="M104.832 235.225C105.281 234.874 105.76 234.566 106.265 234.302C106.809 234.122 107.369 233.996 107.938 233.924C107.649 233.816 107.34 233.77 107.031 233.789C106.723 233.808 106.422 233.891 106.148 234.034C105.857 234.127 105.589 234.282 105.362 234.487C105.135 234.692 104.954 234.944 104.832 235.225Z" fill="#263238"/>
<path d="M104.667 237.372C104.729 237.433 105.271 237 106.039 236.718C106.807 236.436 107.527 236.394 107.527 236.305C106.995 236.159 106.429 236.208 105.929 236.443C105.412 236.592 104.965 236.922 104.667 237.372Z" fill="#263238"/>
<path d="M97.5838 188.064L129.381 190.404L128.867 201.592L99.7849 203.539L97.5838 188.064Z" fill="#FFBF9D"/>
<path d="M127.886 202.259L126.467 202.342C127.027 197.825 126.092 193.248 123.806 189.316L132.631 187.335L138.419 214.073C135.847 214.493 127.886 202.259 127.886 202.259Z" fill="#455A64"/>
<path d="M132.631 187.335L130.471 187.816L136.842 213.323C136.842 213.323 137.617 214.397 138.419 214.073L132.631 187.335Z" fill="#E0E0E0"/>
<path d="M127.797 201.901C127.927 201.867 127.845 201.213 128.119 200.463C128.394 199.713 128.867 199.259 128.805 199.149C128.743 199.039 128.023 199.411 127.701 200.305C127.379 201.2 127.68 201.957 127.797 201.901Z" fill="#263238"/>
<path d="M128.976 192.214C129.07 192.195 129.158 192.158 129.237 192.103C129.315 192.049 129.381 191.979 129.431 191.897C129.48 191.815 129.513 191.724 129.525 191.63C129.538 191.535 129.531 191.438 129.504 191.347C129.486 191.254 129.449 191.165 129.395 191.087C129.341 191.009 129.271 190.943 129.191 190.894C129.111 190.844 129.021 190.811 128.927 190.798C128.833 190.785 128.738 190.791 128.647 190.817C128.555 190.839 128.469 190.88 128.392 190.936C128.316 190.992 128.252 191.063 128.203 191.144C128.154 191.225 128.121 191.315 128.107 191.409C128.092 191.503 128.096 191.599 128.119 191.691C128.138 191.783 128.176 191.871 128.23 191.948C128.284 192.025 128.354 192.09 128.434 192.139C128.515 192.188 128.604 192.22 128.697 192.233C128.791 192.246 128.886 192.239 128.976 192.214Z" fill="#E0E0E0"/>
<path d="M127.681 201.722C127.712 201.531 127.712 201.336 127.681 201.144C127.667 200.605 127.513 200.078 127.235 199.617C127.133 199.466 127.01 199.329 126.871 199.211C126.723 199.063 126.542 198.952 126.343 198.888C126.217 198.853 126.083 198.859 125.96 198.905C125.837 198.951 125.731 199.034 125.658 199.142C125.586 199.25 125.538 199.372 125.517 199.501C125.496 199.629 125.501 199.76 125.534 199.885C125.666 200.382 125.932 200.833 126.302 201.188C126.672 201.544 127.132 201.79 127.633 201.901V201.537C127.427 201.551 127.224 201.593 127.029 201.661C126.511 201.829 126.047 202.134 125.685 202.543C125.324 202.951 125.077 203.45 124.972 203.986C124.937 204.126 124.937 204.273 124.972 204.413C124.993 204.492 125.032 204.565 125.085 204.627C125.139 204.689 125.205 204.738 125.28 204.771C125.523 204.868 125.793 204.868 126.035 204.771C126.425 204.599 126.758 204.32 126.995 203.966C127.323 203.48 127.535 202.924 127.612 202.342C127.668 202.14 127.695 201.932 127.694 201.722C127.584 201.902 127.508 202.1 127.468 202.307C127.342 202.849 127.109 203.359 126.782 203.807C126.559 204.097 126.26 204.319 125.918 204.447C125.755 204.512 125.574 204.512 125.411 204.447C125.28 204.385 125.26 204.261 125.308 204.034C125.407 203.556 125.631 203.112 125.958 202.749C126.285 202.387 126.702 202.118 127.166 201.97C127.341 201.918 127.52 201.881 127.701 201.86C127.75 201.86 127.797 201.841 127.832 201.806C127.867 201.771 127.886 201.724 127.886 201.674C127.886 201.625 127.867 201.578 127.832 201.543C127.797 201.508 127.75 201.489 127.701 201.489C127.268 201.39 126.869 201.179 126.544 200.875C126.218 200.572 125.979 200.188 125.85 199.761C125.74 199.397 125.98 199.039 126.261 199.128C126.563 199.251 126.824 199.456 127.015 199.72C127.293 200.132 127.471 200.603 127.537 201.096C127.549 201.312 127.598 201.523 127.681 201.722Z" fill="#263238"/>
<path d="M129.114 204.172C129.222 203.629 129.378 203.097 129.58 202.582C129.867 202.107 130.196 201.658 130.561 201.241C130.561 201.165 129.758 201.543 129.313 202.452C129.161 202.708 129.065 202.994 129.031 203.29C128.996 203.587 129.025 203.887 129.114 204.172Z" fill="#263238"/>
<path d="M130.423 205.83C130.513 205.83 130.636 205.142 131.034 204.454C131.431 203.766 131.918 203.271 131.863 203.209C131.809 203.147 131.178 203.539 130.773 204.317C130.475 204.761 130.35 205.3 130.423 205.83Z" fill="#263238"/>
<path d="M70.7652 119.002C71.0326 119.456 72.2944 133.734 72.2944 133.734C72.2944 133.734 64.7994 156.984 61.1033 168.034C57.6747 178.355 55.309 191.092 58.3604 196.933C61.4119 202.775 90.5895 222.289 90.5895 222.289L102.309 211.885L79.9539 188.436L89.4375 144.076L85.0626 115.651L70.7652 119.002Z" fill="#263238"/>
<path d="M105.826 110.938C105.826 110.938 115.509 126.282 116.112 134.291C116.798 143.47 110.771 153.812 107.801 160.218C105.058 166.101 94.9165 186.475 94.9165 186.475L118.368 188.725C118.368 188.725 119.74 198.812 116.873 204.833C116.873 204.833 87.113 204.186 82.3335 203.89C77.554 203.594 70.7379 200.959 70.8956 192.234C71.0533 183.509 80.578 152.883 80.578 152.883V147.674L79.1106 141.241L75.3528 117.915L92.6948 111.035L105.826 110.938Z" fill="#263238"/>
<path opacity="0.3" d="M71.6702 127.796L71.2587 123.014L91.2613 111.564L107.41 111.516L112.114 123.44C112.114 123.44 98.6329 118.287 94.6763 118.624C90.7196 118.961 72.0473 131.243 72.0473 131.243L71.6702 127.796Z" fill="black"/>
<path d="M77.7598 140.615C77.7598 140.615 77.8352 140.711 77.9929 140.883L78.6787 141.661L81.4696 144.612V144.551C81.1336 146.436 80.7084 148.803 80.2147 151.576C78.9941 156.255 77.4718 162.165 75.682 168.908C74.8043 172.287 73.8717 175.865 72.9048 179.608C72.4111 181.479 71.9105 183.39 71.4031 185.34C70.9077 187.335 70.6636 189.386 70.6762 191.443C70.6607 193.295 70.9527 195.136 71.5403 196.892C71.8409 197.755 72.271 198.568 72.8157 199.301C73.3603 200.012 73.9915 200.652 74.6946 201.206C76.0647 202.278 77.6265 203.077 79.2958 203.56C80.103 203.801 80.9367 203.942 81.7781 203.979L84.2056 204.041L101.198 204.502L112.65 204.784L115.763 204.846H116.586C116.677 204.852 116.769 204.852 116.86 204.846H116.586L115.776 204.805L112.663 204.681L101.212 204.282L84.2193 203.745L81.7987 203.677C80.9827 203.638 80.1744 203.499 79.3918 203.264C77.768 202.794 76.2499 202.013 74.9209 200.966C74.2416 200.429 73.6313 199.809 73.1037 199.122C72.5829 198.416 72.1692 197.637 71.8763 196.81C71.3095 195.087 71.0269 193.284 71.0397 191.47C71.0206 189.445 71.251 187.425 71.7254 185.456C72.2328 183.516 72.7334 181.603 73.2134 179.739L75.9563 169.025L80.3998 151.665C80.8661 148.913 81.2638 146.512 81.5861 144.626V144.585L78.7404 141.681L77.9929 140.931L77.7598 140.615Z" fill="#455A64"/>
<path d="M94.7656 186.323C94.0288 187.398 93.3623 188.519 92.7702 189.681C92.0733 190.786 91.448 191.935 90.8981 193.121C91.7522 192.128 92.4843 191.035 93.0787 189.867C93.7781 188.756 94.3443 187.567 94.7656 186.323Z" fill="#455A64"/>
<path d="M103.296 124.941C102.646 125 102.001 125.097 101.362 125.23C99.8119 125.459 98.2453 125.558 96.6786 125.525C95.1114 125.477 93.5513 125.293 92.0157 124.975C91.3833 124.809 90.7423 124.678 90.0957 124.583C90.6847 124.876 91.3094 125.092 91.954 125.223C95.045 126.015 98.2735 126.105 101.403 125.484C102.055 125.386 102.691 125.203 103.296 124.941Z" fill="#455A64"/>
<path d="M91.5288 133.431C90.9164 133.856 90.3448 134.338 89.8214 134.869C88.5175 136.094 87.277 137.384 86.1047 138.736C84.9316 140.092 83.8306 141.509 82.8064 142.982C82.3553 143.573 81.9626 144.206 81.6338 144.874C82.1304 144.324 82.5886 143.74 83.0052 143.126C83.835 142.039 85.0007 140.553 86.3653 138.998C87.7299 137.443 89.0328 136.046 89.9928 135.069C90.5414 134.559 91.0546 134.012 91.5288 133.431Z" fill="#455A64"/>
<path d="M82.354 142.246C82.3267 141.975 82.2645 141.709 82.1689 141.454C82.0043 140.883 81.8054 140.175 81.5654 139.342C81.0511 137.553 80.3791 135.076 79.7551 132.31C79.1311 129.544 78.6579 127.019 78.3837 125.181C78.2396 124.321 78.1162 123.599 78.0134 123.007C77.9862 122.738 77.9287 122.472 77.8419 122.216C77.8162 122.486 77.8162 122.758 77.8419 123.028C77.8899 123.551 77.9722 124.301 78.0956 125.223C78.3494 127.067 78.7814 129.613 79.4054 132.386C80.0294 135.158 80.7768 137.642 81.3186 139.411C81.6066 140.298 81.8534 141.014 82.0043 141.475C82.0931 141.744 82.2103 142.002 82.354 142.246Z" fill="#455A64"/>
<path d="M131.445 104.876C131.445 104.876 132.268 77.8696 131.37 72.2687C130.231 65.1884 120.508 61.5966 115.255 60.4407C110.003 59.2847 100.958 61.1288 100.958 61.1288C100.958 61.1288 102.185 107.567 102.501 107.918C102.816 108.269 109.475 119.14 109.475 119.14C109.475 119.14 128.675 118.143 130.465 114.957C132.254 111.771 131.445 104.876 131.445 104.876Z" fill="#455A64"/>
<path d="M71.9721 28.7617C70.9778 33.7227 71.7595 36.6058 69.4281 39.4957C68.2412 40.9331 66.7145 42.0494 64.9873 42.7429C63.2601 43.4364 61.3874 43.6849 59.5399 43.4658C59.5576 44.3244 59.8247 45.159 60.3084 45.8674C60.7921 46.5758 61.4713 47.1271 62.2628 47.4537C63.0542 47.7803 63.9235 47.8679 64.7639 47.7059C65.6043 47.5439 66.3793 47.1392 66.9937 46.5415C66.0166 48.0662 64.8836 49.4844 63.6131 50.7732C63.8463 52.4452 65.5949 53.6218 67.2749 53.5668C68.1125 53.491 68.9239 53.234 69.6531 52.8136C70.3823 52.3931 71.012 51.819 71.499 51.131C71.3588 51.9566 71.0531 52.7451 70.6005 53.4488C70.1479 54.1525 69.5578 54.7567 68.8658 55.225C70.7308 56.9486 73.1805 57.8939 75.7159 57.8684C78.2513 57.8428 80.6816 56.8483 82.5117 55.0874L71.9721 28.7617Z" fill="#263238"/>
<path d="M107.253 34.6996C105.051 31.2593 103.522 27.4542 101.033 24.2272C98.5439 21.0001 91.4329 17.6423 87.3186 18.0345L93.9358 48.0414C95.0193 51.8189 91.9815 56.257 95.8559 57.351C97.433 57.4061 106.361 56.7662 108.014 53.8212L106.546 51.8189C107.009 52.1413 107.547 52.3385 108.108 52.3915C108.669 52.4446 109.234 52.3516 109.749 52.1217C111.12 51.5093 111.998 50.2295 112.821 49.0116C111.027 48.059 109.585 46.5541 108.706 44.718C109.406 45.2873 110.228 45.6851 111.108 45.8798C111.988 46.0745 112.9 46.0607 113.774 45.8396C114.628 45.6076 115.383 45.1025 115.925 44.4009C116.467 43.6994 116.766 42.8396 116.777 41.9519C112.67 41.2983 109.461 38.1194 107.253 34.6996Z" fill="#263238"/>
<path d="M96.6033 30.2269C96.137 28.8508 96.3908 27.3645 96.233 25.9265C95.897 22.7682 93.4901 20.1535 90.5758 18.8255C87.9015 17.5939 84.5689 17.7246 81.2568 18.6742C78.9593 19.2856 76.8828 20.541 75.2704 22.2934C74.2424 23.4865 73.5142 24.9094 73.1467 26.4429C72.7792 27.9765 72.7833 29.576 73.1584 31.1076L89.2798 29.3255C90.6729 30.7003 92.2774 31.841 94.0319 32.704C94.5506 32.9531 95.1243 33.0644 95.6982 33.0274C95.9839 33.0023 96.2565 32.8957 96.4837 32.7201C96.711 32.5445 96.8834 32.3073 96.9805 32.0365C97.0366 31.4091 96.9053 30.7792 96.6033 30.2269Z" fill="#263238"/>
<path d="M80.763 23.1054L94.6627 26.5458C95.3149 26.6097 95.9191 26.9178 96.355 27.4088C96.7909 27.8997 97.0264 28.5375 97.0147 29.1949L95.801 59.6077C95.7137 61.6832 94.9501 63.6726 93.6272 65.2706L92.2558 66.9564C91.5257 67.8473 90.5858 68.5417 89.5211 68.9767C88.4565 69.4118 87.3006 69.5738 86.1578 69.4482C85.0151 69.3225 83.9216 68.9131 82.9761 68.257C82.0306 67.6009 81.2629 66.7188 80.7425 65.6903C80.6103 65.4357 80.5112 65.1651 80.4476 64.8853C80.3998 64.6581 80.3654 64.4284 80.3447 64.1972L80.1802 61.2247C80.1322 58.5137 80.1802 55.7614 80.1802 55.782C80.1802 55.8027 74.4749 54.86 73.2612 47.3944C72.6577 43.6857 72.8223 37.5963 73.1103 32.6215C73.3778 28.1628 76.3127 22.6513 80.763 23.1054Z" fill="#FFBF9D"/>
<path d="M76.0454 38.7733C76.0466 39.0154 76.1393 39.248 76.3048 39.4242C76.4702 39.6004 76.6961 39.7071 76.9369 39.7228C77.0581 39.7312 77.1799 39.7154 77.295 39.6762C77.4101 39.6371 77.5164 39.5754 77.6076 39.4947C77.6988 39.4141 77.7731 39.3161 77.8263 39.2064C77.8795 39.0968 77.9105 38.9776 77.9175 38.8558C77.9193 38.6057 77.8235 38.3647 77.6504 38.1847C77.4774 38.0046 77.2409 37.8997 76.9917 37.8925C76.8719 37.8879 76.7524 37.9071 76.64 37.9488C76.5276 37.9906 76.4245 38.0542 76.3366 38.136C76.2487 38.2178 76.1778 38.3162 76.1278 38.4256C76.0778 38.5349 76.0498 38.653 76.0454 38.7733Z" fill="#263238"/>
<path d="M74.4406 35.8006C74.564 35.9244 75.284 35.3877 76.3126 35.3877C77.3412 35.3877 78.0886 35.8969 78.1984 35.7662C78.3081 35.6354 78.1366 35.491 77.8075 35.2501C77.3624 34.942 76.8327 34.7809 76.292 34.7891C75.7566 34.7871 75.2347 34.9584 74.804 35.2777C74.4886 35.5185 74.3857 35.7455 74.4406 35.8006Z" fill="#263238"/>
<path d="M85.0829 38.711C85.0827 38.9606 85.1792 39.2005 85.3519 39.3802C85.5246 39.5599 85.76 39.6653 86.0086 39.6743C86.1299 39.6827 86.2516 39.6668 86.3668 39.6277C86.4819 39.5885 86.5881 39.5269 86.6793 39.4462C86.7705 39.3656 86.8449 39.2676 86.8981 39.1579C86.9513 39.0482 86.9823 38.9291 86.9892 38.8073C86.9911 38.5571 86.8953 38.3162 86.7222 38.1361C86.5492 37.9561 86.3127 37.8512 86.0635 37.844C85.942 37.8346 85.8199 37.8498 85.7044 37.8886C85.5889 37.9274 85.4823 37.989 85.3909 38.0698C85.2995 38.1506 85.2251 38.249 85.1722 38.3591C85.1193 38.4692 85.089 38.5889 85.0829 38.711Z" fill="#263238"/>
<path d="M84.1918 35.89C84.3084 36.0139 85.0284 35.4772 86.057 35.4703C87.0856 35.4634 87.8399 35.9863 87.9496 35.8556C88.0593 35.7249 87.881 35.5735 87.5519 35.3396C87.1072 35.0306 86.5772 34.8694 86.0364 34.8785C85.5032 34.8775 84.9838 35.0488 84.5552 35.3671C84.2398 35.5941 84.1301 35.835 84.1918 35.89Z" fill="#263238"/>
<path d="M80.8454 43.6099C80.3021 43.4421 79.7401 43.3427 79.1723 43.3141C78.9117 43.3141 78.6648 43.2384 78.6168 43.0595C78.595 42.7867 78.6547 42.5136 78.7883 42.2751C79.0351 41.642 79.2888 40.9677 79.5563 40.2728C80.6192 37.4104 81.394 35.0641 81.2775 35.0228C81.1609 34.9815 80.2077 37.259 79.138 40.1214L78.4043 42.1375C78.2418 42.4556 78.1957 42.8208 78.274 43.1696C78.3137 43.2615 78.3729 43.3436 78.4475 43.4101C78.5222 43.4767 78.6104 43.5261 78.706 43.5549C78.8516 43.593 79.0012 43.6138 79.1517 43.6168C79.7145 43.6824 80.2832 43.6801 80.8454 43.6099Z" fill="#263238"/>
<path d="M80.18 55.8028C83.6842 55.8424 87.1308 54.9063 90.1367 53.0986C90.1367 53.0986 87.5995 58.3762 80.1457 57.7087L80.18 55.8028Z" fill="#FF9A6C"/>
<path d="M83.8558 31.9128C83.9587 32.188 84.9804 32.0573 86.1873 32.1949C87.3942 32.3325 88.3679 32.6628 88.5256 32.4082C88.601 32.2912 88.4296 32.0229 88.0319 31.7201C87.5097 31.3841 86.9147 31.1788 86.297 31.1215C85.6802 31.0503 85.0553 31.1257 84.473 31.3417C84.0341 31.555 83.7941 31.7752 83.8558 31.9128Z" fill="#263238"/>
<path d="M74.7216 31.2936C74.9067 31.5276 75.613 31.2936 76.4633 31.2936C77.3136 31.2936 78.0336 31.445 78.1982 31.1973C78.2668 31.0803 78.157 30.8464 77.8416 30.6262C77.4171 30.3619 76.924 30.2299 76.4247 30.2471C75.9254 30.2642 75.4425 30.4297 75.037 30.7225C74.7421 30.9427 74.6393 31.1835 74.7216 31.2936Z" fill="#263238"/>
<path d="M99.2433 28.1493C97.9405 23.8144 91.8032 17.7663 87.3049 18.014L80.0567 22.2319C80.2738 23.4636 80.8176 24.614 81.6308 25.562C82.4441 26.5101 83.4969 27.2208 84.6785 27.6195C85.9471 28.0254 87.4694 28.1562 88.21 29.264C88.9506 30.3718 88.4912 32.0163 89.1906 33.1791C90.1643 34.7892 92.8798 34.7548 93.5998 36.4956C93.9152 37.2594 93.737 38.1608 94.0661 38.9108C94.4981 39.9222 97.001 41.2227 98.0502 40.9062C99.0993 40.5897 98.633 41.4704 99.0993 40.5897C100.203 38.4704 100.574 34.9819 100.354 32.9176C100.183 31.288 99.8098 29.6862 99.2433 28.1493Z" fill="#263238"/>
<path d="M94.9577 41.7451C94.9577 41.1877 95.5954 39.8735 96.144 39.784C97.6046 39.5501 100.258 39.6602 100.258 43.3827C100.313 48.4744 95.2045 47.5111 95.1977 47.3322C95.1908 47.1533 94.9645 43.6648 94.9577 41.7451Z" fill="#FFBF9D"/>
<path d="M96.7474 45.3852C96.7474 45.3852 96.8366 45.4471 96.9806 45.5159C97.2011 45.6019 97.4458 45.6019 97.6663 45.5159C97.9907 45.3026 98.2531 45.0069 98.4265 44.6588C98.6 44.3107 98.6784 43.9227 98.6537 43.5342C98.6683 43.0975 98.579 42.6635 98.3932 42.2682C98.3463 42.1046 98.2588 41.9556 98.1389 41.8353C98.0189 41.7149 97.8705 41.6271 97.7074 41.5801C97.6064 41.5531 97.499 41.5633 97.4047 41.6087C97.3104 41.6541 97.2354 41.7318 97.1931 41.8278C97.1246 41.9723 97.1931 42.0687 97.1314 42.0824C97.0697 42.0962 97.0217 41.9998 97.0629 41.7865C97.0864 41.6592 97.1545 41.5446 97.2549 41.4631C97.3947 41.3591 97.5688 41.3124 97.7417 41.3324C97.9505 41.3712 98.1458 41.463 98.3091 41.5991C98.4724 41.7353 98.5981 41.9111 98.6743 42.1099C98.8946 42.5492 99.0052 43.0357 98.9966 43.5274C98.9966 44.5526 98.4617 45.5159 97.728 45.7361C97.5924 45.777 97.4495 45.7872 97.3095 45.7657C97.1695 45.7443 97.0361 45.6919 96.9189 45.6122C96.7543 45.509 96.7269 45.392 96.7474 45.3852Z" fill="#FF9A6C"/>
<path d="M81.5864 20.7458C81.0447 22.81 77.8218 25.3421 76.3886 26.9384C73.6457 29.9247 73.104 30.9224 72.8914 37.7962C71.822 35.4929 71.409 32.9375 71.6982 30.4132C72.0851 27.3905 73.4427 24.5765 75.5657 22.3971C77.4858 20.5325 78.9601 20.2641 81.5933 20.7458" fill="#263238"/>
<path d="M119.068 38.6082C119.068 38.6082 118.732 38.7389 118.115 38.9109C117.24 39.1398 116.332 39.2051 115.434 39.1036C114.103 38.9411 112.821 38.5029 111.669 37.8169C110.271 36.9487 109.03 35.8482 108 34.5623C106.956 33.2763 105.987 31.9299 105.1 30.5302L102.892 27.0898L101.376 24.7985C101.202 24.5081 101.003 24.2341 100.78 23.9797C100.911 24.2902 101.072 24.5874 101.26 24.8674L102.679 27.2206L104.825 30.6609C105.704 32.0818 106.673 33.4446 107.726 34.7412C108.785 36.0551 110.064 37.1749 111.504 38.0508C112.7 38.7449 114.031 39.1698 115.406 39.2962C116.332 39.3807 117.265 39.2753 118.149 38.9866C118.386 38.9081 118.615 38.8091 118.835 38.6907C118.999 38.6701 119.075 38.6219 119.068 38.6082Z" fill="#263238"/>
<path d="M60.8154 39.2542C60.8154 39.2542 60.8839 39.3162 61.0279 39.3987C61.2459 39.5298 61.4754 39.6404 61.7137 39.729C62.5722 40.0626 63.4882 40.2217 64.4086 40.1969C65.7857 40.1654 67.128 39.7561 68.2898 39.0134C68.972 38.5664 69.5708 38.0029 70.059 37.3483C70.5656 36.6397 70.9718 35.8639 71.2658 35.0432C71.786 33.4776 72.1512 31.8643 72.3561 30.2267C72.5389 28.8999 72.8301 27.5904 73.227 26.3116C73.6162 25.1404 74.2055 24.046 74.9688 23.0776C74.9688 23.0776 74.8933 23.1258 74.7699 23.2497C74.5905 23.4217 74.4254 23.6081 74.2762 23.807C73.7214 24.5408 73.2863 25.3583 72.987 26.229C72.551 27.5116 72.232 28.8312 72.0338 30.1717C71.8132 31.8076 71.4436 33.4199 70.9298 34.9882C70.6501 35.7768 70.2624 36.5225 69.7778 37.2038C69.3194 37.8313 68.7555 38.3738 68.1115 38.807C67.0027 39.5303 65.7226 39.9458 64.4017 40.0111C63.5081 40.06 62.6132 39.9434 61.7617 39.6671C61.1651 39.4056 60.8359 39.2198 60.8154 39.2542Z" fill="#263238"/>
<path d="M103.447 22.2801C103.406 22.2113 102.308 23.1058 100.286 24.0897C97.6466 25.3646 94.7825 26.1036 91.858 26.264C90.2515 26.3411 88.6414 26.2372 87.0579 25.9544C85.7627 25.7542 84.5036 25.3647 83.3207 24.7984C82.2354 24.2619 81.2947 23.4714 80.5778 22.4934C80.5778 22.4934 80.5778 22.5828 80.6875 22.7273C80.8041 22.9425 80.9419 23.1454 81.099 23.3328C81.6823 24.0322 82.4007 24.6056 83.211 25.0186C84.4017 25.6346 85.6812 26.0595 87.0031 26.2778C88.6088 26.5865 90.2456 26.702 91.8786 26.6218C94.85 26.4655 97.7549 25.68 100.402 24.3168C101.197 23.9123 101.962 23.4525 102.692 22.9406C102.965 22.7462 103.218 22.5249 103.447 22.2801Z" fill="#455A64"/>
<path d="M103.879 27.2752C103.879 27.2201 103.042 27.7155 101.65 28.3004C97.994 29.8337 93.9602 30.2176 90.082 29.4013C88.6077 29.0917 87.7231 28.7545 87.7025 28.8165C87.6819 28.8784 87.9014 28.9403 88.2991 29.0986C88.8603 29.326 89.438 29.51 90.0271 29.649C93.9487 30.6211 98.0831 30.2281 101.753 28.5344C102.304 28.2853 102.836 27.9956 103.344 27.6674C103.68 27.4403 103.892 27.3371 103.879 27.2752Z" fill="#455A64"/>
<path d="M109.44 39.5233C109.44 39.4476 108.267 39.5233 106.43 39.2205C104.046 38.742 101.753 37.8898 99.6341 36.6953C97.1243 35.3192 94.9848 33.8536 93.3802 32.8765C92.5848 32.3742 91.9265 31.9889 91.4671 31.7343C91.2362 31.5868 90.9902 31.4645 90.7333 31.3696C90.9407 31.5586 91.1711 31.7205 91.4191 31.8513L93.2705 33.0898C94.834 34.1219 96.9597 35.6288 99.4901 37.0118C101.64 38.2264 103.983 39.0576 106.416 39.4682C107.156 39.5781 107.904 39.6241 108.651 39.6059C108.917 39.6105 109.181 39.5828 109.44 39.5233Z" fill="#455A64"/>
<path d="M111.559 41.9864C109.842 41.9419 108.127 41.811 106.423 41.5942C104.738 41.2584 103.072 40.8359 101.431 40.3281C101.851 40.6259 102.313 40.8579 102.802 41.0162C103.955 41.4497 105.147 41.7678 106.361 41.9657C107.576 42.1665 108.807 42.2448 110.037 42.1997C110.552 42.2092 111.066 42.1372 111.559 41.9864Z" fill="#455A64"/>
<path d="M84.4177 46.6033C84.3479 46.1455 84.2116 45.7004 84.0131 45.2822C83.972 45.179 83.9103 45.0689 83.8074 45.0552C83.7538 45.0383 83.6964 45.0383 83.6428 45.0552L80.8314 46.1698C80.938 46.5766 81.1245 46.9579 81.3799 47.2914C81.6677 47.7244 82.0931 48.047 82.5868 48.2065C82.8357 48.2771 83.0983 48.2832 83.3501 48.2242C83.602 48.1653 83.8348 48.0432 84.0268 47.8694C84.1786 47.6987 84.292 47.4974 84.3594 47.279C84.4269 47.0605 84.4467 46.8301 84.4177 46.6033Z" fill="#FF9A6C"/>
<path d="M82.0316 48.1309C82.0316 48.1309 82.107 48.2341 82.299 48.3029C82.5822 48.394 82.8867 48.394 83.1699 48.3029C83.5972 48.1778 83.9726 47.9171 84.2397 47.5598C84.3815 47.32 84.4664 47.0506 84.4878 46.7726C84.5092 46.4946 84.4665 46.2154 84.3631 45.9566C84.2736 45.6901 84.1391 45.441 83.9654 45.2203C83.9179 45.1475 83.8546 45.0863 83.7802 45.0414C83.7317 45.0196 83.6791 45.0083 83.6259 45.0083C83.5727 45.0083 83.5202 45.0196 83.4716 45.0414L83.1288 45.1722L81.9973 45.64C81.6348 45.7613 81.291 45.9327 80.9756 46.1492C81.356 46.1177 81.7288 46.0248 82.0796 45.874L83.2453 45.4818L83.5676 45.3648C83.6156 45.3648 83.6225 45.3648 83.6156 45.3648C83.6477 45.3851 83.6737 45.4136 83.6911 45.4474C83.8324 45.6413 83.9456 45.8545 84.0271 46.0804C84.1107 46.29 84.1485 46.5153 84.1379 46.7408C84.1272 46.9664 84.0684 47.187 83.9654 47.3877C83.747 47.6991 83.4415 47.9385 83.0876 48.0758C82.7459 48.1834 82.3826 48.2024 82.0316 48.1309Z" fill="#263238"/>
<path d="M77.5405 62.6354C77.0605 63.0827 63.586 80.5942 64.6077 86.8143C65.6295 93.0345 66.2809 95.0712 66.8569 99.5506C68.2284 110.353 66.4935 116.174 66.9803 120.991C67.4672 125.807 69.8947 127.658 70.3678 127.369C70.841 127.08 84.5966 117.585 91.9545 114.035C105.264 107.622 108.062 120.785 111.155 120.427C114.247 120.069 114.762 118.693 114.762 118.693C114.762 118.693 110.304 118.232 109.77 115.892C109.235 113.553 102.995 91.6309 102.995 91.6309L106.231 62.5529L97.3786 59.3052L81.7372 61.0529L77.5405 62.6354Z" fill="#FF725E"/>
<path d="M82.6006 62.243C81.9242 61.6453 81.0466 61.3281 80.1457 61.3554C78.5479 61.3554 73.693 60.1582 73.693 60.1582L68.3375 55.8508C63.9077 56.9999 53.6218 67.2453 56.3647 70.3485L63.4071 77.5045L64.9089 84.4953L76.2508 70.6857L82.6006 62.243Z" fill="#FF725E"/>
<path d="M80.1599 61.0523C80.1599 61.0523 73.5358 68.0294 74.6124 71.2977C75.689 74.5661 78.665 73.2037 81.3874 72.3092C88.2789 70.0455 95.7876 59.4629 95.7876 59.4629L80.1599 61.0523Z" fill="#FFBF9D"/>
<path d="M64.7856 85.4518C64.7856 85.4518 61.1719 77.6009 63.8942 70.555C66.6165 63.5092 72.1229 56.9725 80.1802 55.8027V57.461C80.1802 57.461 67.6451 67.1491 66.4039 73.3348C65.1628 79.5206 65.4165 79.6514 65.4165 79.6514L64.7856 85.4518Z" fill="#455A64"/>
<path d="M68.2623 71.1057C68.0978 71.3149 67.9639 71.5466 67.8646 71.7938C67.6246 72.2342 67.316 72.8947 66.9732 73.7204C66.0923 75.8885 65.453 78.1476 65.0668 80.4566C64.6834 82.768 64.5615 85.1155 64.7034 87.4543C64.7583 88.3488 64.8405 89.0713 64.9228 89.5667C64.9416 89.8272 64.9946 90.084 65.0806 90.3305C65.1423 90.3305 65.0051 89.2227 64.9571 87.4406C64.8917 85.1238 65.0455 82.8061 65.4166 80.5185C65.7991 78.2318 66.4008 75.9874 67.2132 73.8167C67.8372 72.1241 68.3172 71.1332 68.2623 71.1057Z" fill="#263238"/>
<path d="M99.1748 104.202C99.0712 104.164 98.9627 104.14 98.8525 104.133C98.546 104.088 98.2365 104.067 97.9268 104.071C96.7784 104.089 95.6435 104.323 94.5804 104.759C93.0194 105.442 91.5772 106.372 90.3084 107.511C88.8409 108.75 87.3666 110.264 85.7209 111.674C82.983 114.219 79.9401 116.413 76.6624 118.204C75.6573 118.719 74.6249 119.178 73.5698 119.58C73.173 119.704 72.7838 119.851 72.4041 120.021C72.512 120.018 72.6187 119.997 72.7195 119.959C72.9252 119.91 73.2269 119.828 73.6178 119.711C74.6989 119.356 75.755 118.928 76.779 118.431C80.114 116.699 83.2022 114.526 85.9609 111.97C87.6135 110.518 89.0878 109.025 90.5209 107.793C91.7581 106.665 93.1622 105.737 94.6833 105.041C95.7114 104.584 96.8116 104.311 97.9336 104.236C98.7291 104.167 99.1679 104.236 99.1748 104.202Z" fill="#263238"/>
<path d="M125.521 70.8645C125.337 72.9727 124.699 75.0156 123.648 76.8507C122.49 78.915 114.569 87.2475 113.363 86.6076C112.156 85.9677 118.766 71.9173 118.766 71.9173L125.521 70.8645Z" fill="#263238"/>
<path d="M118.931 73.9814C119.383 74.3048 142.67 89.4906 143.212 94.1626C143.555 97.1282 141.34 100.514 138.186 102.667C133.811 105.647 123.251 112.39 123.251 112.39L117.422 106.885C117.422 106.885 128.291 97.7337 129.594 95.6145L110.393 84.2062L118.931 73.9814Z" fill="#FFBF9D"/>
<path d="M134.291 92.8832C134.007 92.7828 133.701 92.7614 133.406 92.8213C132.677 92.8921 131.974 93.1273 131.349 93.5094C130.73 93.8812 130.199 94.3836 129.792 94.9819C129.49 95.4429 129.394 95.7731 129.436 95.7869C130.03 95.0261 130.737 94.3623 131.534 93.819C132.398 93.3639 133.328 93.0482 134.291 92.8832Z" fill="#FF9A6C"/>
<path d="M102.102 61.0527C102.102 61.0527 107.197 62.0298 110.331 63.5642C113.465 65.0986 125.534 70.8784 125.534 70.8784C122.843 72.0874 120.467 73.9056 118.594 76.1904C115.762 79.8234 113.389 86.6009 113.389 86.6009L103.789 81.3991L102.102 61.0527Z" fill="#FF725E"/>
<path d="M101.691 56.656C101.691 56.656 96.6034 55.8647 95.8216 60.8533C95.0399 65.8418 96.0685 74.8143 97.1382 79.1078C98.208 83.4014 104.16 89.6491 104.16 89.6491L104.407 83.1262C102.217 78.6178 101.182 73.6324 101.397 68.6216C101.794 60.3647 102.082 58.6239 103.454 58.0597C104.825 57.4954 107.856 62.4909 107.856 62.4909L109.372 63.0344C109.372 63.0344 107.548 56.3739 101.691 56.656Z" fill="#455A64"/>
<path d="M108.857 114.894L100.059 92.8139L113.63 81.0066L116.86 81.1236L128.215 105.179L112.588 117.702L109.879 117.536L108.857 114.894Z" fill="#263238"/>
<path d="M113.403 116.553C113.318 116.241 113.201 115.939 113.054 115.651L111.984 113.243C111.079 111.179 109.838 108.426 108.514 105.268C107.191 102.11 106.045 99.2888 105.223 97.2246C104.825 96.2406 104.496 95.4149 104.242 94.775C104.138 94.4683 104.002 94.1732 103.837 93.8943C103.901 94.2116 103.993 94.5225 104.112 94.8232C104.304 95.4149 104.605 96.2681 104.989 97.314C105.751 99.3782 106.868 102.275 108.192 105.406C109.515 108.536 110.791 111.337 111.758 113.346C112.238 114.351 112.642 115.156 112.93 115.713C113.059 116.008 113.218 116.29 113.403 116.553Z" fill="#455A64"/>
<path d="M117.394 106.886C117.394 106.886 113.746 104.636 113.205 104.175C112.663 103.714 109.296 103.879 108.679 103.232C108.062 102.585 106.683 102.998 107.129 104.574C107.575 106.149 109.872 107.574 111.593 107.409C111.593 107.409 106.32 110.161 106.292 110.966C106.253 111.344 106.348 111.723 106.562 112.037C106.775 112.351 107.093 112.579 107.458 112.679C107.458 112.679 105.682 114.241 108.027 115.548C108.027 115.548 107.259 116.863 109.508 117.723C109.508 117.723 108.974 118.659 110.654 119.188C112.334 119.718 113.973 120.509 115.131 119.347C116.29 118.184 122.53 112.899 122.53 112.899L129.395 107.842L126.652 98.6907L117.394 106.886Z" fill="#FFBF9D"/>
<path d="M110.949 111.737C110.341 111.834 109.748 112.002 109.18 112.239C108.581 112.37 107.999 112.568 107.445 112.831C108.071 112.912 108.707 112.826 109.289 112.583C109.905 112.447 110.476 112.156 110.949 111.737Z" fill="#FF9A6C"/>
<path d="M112.204 115.335C111.54 115.199 110.858 115.178 110.188 115.273C109.513 115.25 108.839 115.348 108.199 115.562C108.86 115.702 109.54 115.726 110.208 115.631C110.886 115.655 111.562 115.555 112.204 115.335Z" fill="#FF9A6C"/>
<path d="M112.656 117.764C112.166 117.547 111.635 117.441 111.1 117.454C110.574 117.356 110.033 117.375 109.516 117.509C110.006 117.724 110.538 117.827 111.072 117.813C111.597 117.915 112.138 117.898 112.656 117.764Z" fill="#FF9A6C"/>
<path d="M112.594 110.779C112.642 110.69 112.306 110.422 112.204 109.933C112.101 109.445 112.272 109.052 112.204 108.997C112.135 108.942 112.053 109.039 111.95 109.224C111.832 109.468 111.8 109.745 111.861 110.009C111.917 110.28 112.065 110.523 112.279 110.697C112.437 110.807 112.594 110.821 112.594 110.779Z" fill="#FF9A6C"/>
<path d="M113.651 113.512C113.712 113.436 113.445 113.12 113.363 112.645C113.28 112.17 113.404 111.778 113.315 111.73C113.225 111.681 112.889 112.094 113.006 112.714C113.123 113.333 113.603 113.601 113.651 113.512Z" fill="#FF9A6C"/>
<path d="M114.603 116.862C114.651 116.773 114.315 116.525 114.178 116.057C114.041 115.59 114.178 115.204 114.062 115.156C113.945 115.108 113.918 115.211 113.842 115.404C113.762 115.652 113.762 115.919 113.842 116.168C113.92 116.419 114.079 116.637 114.295 116.787C114.452 116.897 114.583 116.904 114.603 116.862Z" fill="#FF9A6C"/>
<path d="M109.378 63.1787C109.296 62.5567 109.101 61.9551 108.802 61.4035C108.173 60.0159 107.235 58.7919 106.06 57.8255C105.692 57.5528 105.259 57.3841 104.805 57.3369C104.369 57.3108 103.937 57.424 103.57 57.6603C102.97 58.0487 102.524 58.6352 102.309 59.3186C102.163 59.7651 102.069 60.2268 102.027 60.6947C102.027 61.0113 101.986 61.1902 102.027 61.197C102.069 61.2039 102.171 60.509 102.562 59.4356C102.78 58.8298 103.193 58.3142 103.735 57.97C104.045 57.7786 104.407 57.6896 104.77 57.7154C105.164 57.7605 105.538 57.9101 105.854 58.1489C106.485 58.6434 107.044 59.2248 107.513 59.8759C107.915 60.403 108.272 60.9622 108.583 61.548C109.111 62.5181 109.324 63.1993 109.378 63.1787Z" fill="#263238"/>
<path d="M104.126 58.0391C104.064 58.1216 105.045 58.8579 105.902 60.0689C106.759 61.2799 107.109 62.429 107.246 62.429C107.091 61.5106 106.73 60.6396 106.189 59.8825C105.649 59.1254 104.943 58.5019 104.126 58.0597V58.0391Z" fill="#263238"/>
<path d="M106.948 86.0951C107.034 86.0209 105.799 84.6921 104.642 82.8304C103.486 80.9687 102.84 79.3093 102.732 79.343C103.415 81.9264 104.879 84.269 106.948 86.0883V86.0951Z" fill="#263238"/>
<path d="M101.006 92.6632L114.082 81.0278L116.304 81.1035L103.303 92.7457L101.006 92.6632Z" fill="white"/>
</svg>
