<svg width="60" height="60" viewBox="0 0 60 60" fill="#FF69B4" xmlns="http://www.w3.org/2000/svg">
<circle cx="30" cy="30" r="30" fill="#FF69B4"/>
<path fill-rule="evenodd" clip-rule="evenodd" d="M42.7775 20.5892C42.6406 20.6466 39.6952 23.4804 34.2773 28.7675L25.9867 36.858L22.2758 33.2293C19.7626 30.7717 18.4877 29.5652 18.3255 29.491C17.4998 29.1128 16.4984 29.7443 16.5002 30.6419C16.5012 31.1664 16.3767 31.0304 20.9195 35.472C23.7957 38.2842 25.2894 39.7042 25.4526 39.7816C25.7732 39.9335 26.2617 39.9334 26.582 39.7813C26.7479 39.7025 29.62 36.9363 35.607 31.0892C42.486 24.3709 44.4148 22.4558 44.5095 22.2498C44.7948 21.6295 44.5355 20.9228 43.9079 20.6102C43.631 20.4724 43.0807 20.4621 42.7775 20.5892Z" fill="#FCFCFC"/>
</svg>
