<svg width="70" height="70" viewBox="0 0 70 70" fill="none" xmlns="http://www.w3.org/2000/svg">
<path d="M70 35C70 26.2664 66.7347 17.8482 60.8455 11.3989C54.9563 4.94965 46.8686 0.935169 38.1709 0.143931C29.4731 -0.647307 20.7938 1.84187 13.8375 7.1226C6.88119 12.4033 2.15051 20.094 0.57454 28.6843C-1.00143 37.2746 0.691199 46.1437 5.32 53.5499C9.9488 60.956 17.1793 66.364 25.5915 68.7117C34.0037 71.0594 42.9897 70.1773 50.7847 66.2385C58.5797 62.2997 64.6205 55.5889 67.7207 47.424L62.6962 45.5162C60.0721 52.4273 54.9589 58.1077 48.3608 61.4416C41.7628 64.7756 34.1567 65.5223 27.0362 63.5351C19.9158 61.5478 13.7956 56.9703 9.87755 50.7014C5.95953 44.4325 4.52682 36.9253 5.86079 29.6541C7.19476 22.3829 11.199 15.8732 17.0871 11.4034C22.9753 6.93351 30.3218 4.82657 37.684 5.4963C45.0461 6.16604 51.8919 9.56407 56.8768 15.023C61.8617 20.482 64.6255 27.6075 64.6255 35H70Z" fill="#D9D9D9"/>
<path d="M67.5487 41.136L58.2363 47.9633L68.8051 52.6145L67.5487 41.136ZM60.7679 59.0266L64.8388 49.7764L63.0082 48.9708L58.9374 58.221L60.7679 59.0266Z" fill="#D9D9D9"/>
</svg>
