<svg width="20" height="20" viewBox="0 0 20 20" fill="currentColor" xmlns="http://www.w3.org/2000/svg">
<g clip-path="url(#clip0_838_4582)">
<path d="M13.9585 0.208496H6.04183H4.79183H0.208496V6.3335V7.5835V12.4585V13.7085V19.8335H4.79183H6.04183H13.9585H15.2085H19.7918V13.6668V12.4168V7.5835V6.3335V0.208496H15.2085H13.9585ZM6.04183 1.4585H13.9585V6.3335H10.6252H9.37516H6.04183V1.4585ZM1.4585 1.4585H4.79183V6.3335H1.4585V1.4585ZM1.4585 7.5835H4.79183H6.04183H9.37516V12.4585H6.04183H4.79183H1.4585V7.5835ZM4.79183 18.5418H1.4585V13.6668H4.79183V18.5418ZM13.9585 18.5418H6.04183V13.6668H9.37516H10.6252H13.9585V18.5418ZM18.5418 18.5418H15.2085V13.6668H18.5418V18.5418ZM18.5418 12.4168H15.2085H13.9585H10.6252V7.5835H13.9585H15.2085H18.5418V12.4168ZM18.5418 1.4585V6.3335H15.2085V1.4585H18.5418Z" fill="#currentColor"/>
</g>
<defs>
<clipPath id="clip0_838_4582">
<rect width="20" height="20" fill="white"/>
</clipPath>
</defs>
</svg>
