<svg width="20" height="20" viewBox="0 0 20 20" fill="currentColor" xmlns="http://www.w3.org/2000/svg">
<path d="M18.2245 1.19248L11.2919 0.031201C10.1254 -0.164176 9.00887 0.578441 8.80313 1.68676L8.63825 2.57503C8.55614 2.58657 8.47423 2.60216 8.39286 2.62287L1.59325 4.35372C1.03896 4.49481 0.575654 4.83253 0.288747 5.30463C0.00183907 5.77676 -0.0744093 6.32679 0.074142 6.85336L3.07322 17.4864C3.22173 18.013 3.57723 18.4531 4.07421 18.7257C4.40526 18.9073 4.77259 19 5.14489 19C5.33149 19 5.51937 18.9767 5.70445 18.9296L12.5041 17.1987C13.0583 17.0576 13.5217 16.7199 13.8086 16.2478C13.8938 16.1075 13.96 15.9603 14.0077 15.809L15.4662 16.0533C15.5919 16.0743 15.7169 16.0845 15.8403 16.0845C16.8627 16.0845 17.7715 15.3866 17.955 14.3977L19.9671 3.55685C20.1729 2.44857 19.3911 1.38793 18.2245 1.19248ZM12.7937 14.957C12.8612 15.1963 12.8558 15.33 12.7937 15.4322C12.6632 15.6468 12.2519 15.7448 12 15.809L5.50002 17.5751C5.00001 17.5751 5.00001 17.5751 5.00001 17.5751C5.00001 17.5751 4.56751 17.3394 4.50001 17.1001L1.5 6.52506C1.5 6.17503 1.5 6.65003 1.5 6.17503C1.63043 5.96043 1.74806 5.76419 2.00001 5.70003L8.92079 3.79082C8.83599 3.79082 9.00493 3.76941 8.92079 3.79082C9.09001 3.79082 9.28671 3.70829 9.43718 3.79082C9.38758 3.76976 9.80103 4.08205 9.80103 4.35372L12.7937 14.957ZM11.7176 6.52506C11.7118 6.5566 11.7219 6.49325 11.7176 6.52506C11.6744 6.51778 11.7601 6.52506 11.7176 6.52506ZM18.5 3.5L16.5 14C16.4065 14.5038 15.9965 14.769 15.4662 14.6803L14.0077 14.3977L13.0154 11.1262C12.96 11.1549 13.0748 11.1157 13.0154 11.1262L11.7176 6.52506C11.7112 6.50238 11.7323 6.52506 11.7176 6.52506L11.0241 4.06602C10.8755 3.53945 10.52 3.0993 10.0231 2.82674C9.95072 2.78707 9.8765 2.76791 9.80103 2.73678L10.1567 1.68676C10.5 1 10.7617 1.24662 11.2919 1.33542L17.955 2.57503C18.4854 2.66387 18.5935 2.99621 18.5 3.5Z" fill="currentColor"/>
</svg>
