<svg width="20" height="20" viewBox="0 0 20 20" fill="currentColor" xmlns="http://www.w3.org/2000/svg">
<g clip-path="url(#clip0_838_4505)">
<path d="M8.74939 0C3.92625 0 0.000488281 3.19585 0.000488281 7.12411C0.000488281 9.11386 1.00036 10.9799 2.76639 12.3222C2.20521 13.1946 1.42781 14.1557 0.475429 14.392C0.174217 14.4669 -0.0270083 14.7519 0.00423781 15.0606C0.0342341 15.3706 0.289202 15.6093 0.599163 15.623C0.614162 15.623 0.669155 15.6255 0.757894 15.6255C1.40656 15.6255 3.9 15.5218 6.7284 14.0545C7.37332 14.1832 8.05198 14.2482 8.74939 14.2482C13.5725 14.2482 17.4983 11.0524 17.4983 7.12411C17.4983 3.19585 13.5725 0 8.74939 0ZM8.74939 12.9984C8.06198 12.9984 7.39831 12.9271 6.77464 12.7859C6.62841 12.7522 6.47343 12.7734 6.3397 12.8459C5.12985 13.4983 3.97124 13.8733 3.01886 14.0882C3.46006 13.5733 3.82876 12.9984 4.14247 12.4672C4.31245 12.1797 4.22496 11.8098 3.94624 11.6273C2.23271 10.5049 1.25033 8.86389 1.25033 7.12411C1.25033 3.88451 4.61366 1.24984 8.74939 1.24984C12.8851 1.24984 16.2485 3.88451 16.2485 7.12411C16.2485 10.3625 12.8851 12.9984 8.74939 12.9984Z" fill="currentColor"/>
<path d="M19.5266 18.7554C18.8117 18.5741 18.1206 17.998 17.4694 17.0393C19.0842 15.7895 19.9978 14.0685 19.9978 12.2362C19.9978 11.3675 19.7904 10.5114 19.3817 9.694C19.2267 9.38404 18.848 9.2628 18.543 9.41528C18.2343 9.57027 18.1093 9.94522 18.263 10.2539C18.5843 10.8963 18.748 11.5625 18.748 12.2362C18.748 13.821 17.8481 15.3208 16.2795 16.3507C15.9996 16.5331 15.9146 16.9043 16.0858 17.1918C16.3945 17.713 16.7132 18.1617 17.0457 18.5391C16.1971 18.3629 15.1809 18.0442 14.1198 17.473C13.9886 17.4018 13.8336 17.3818 13.6886 17.413C11.1764 17.9655 8.47052 17.3118 6.77573 15.817C6.51451 15.587 6.12081 15.6133 5.89334 15.872C5.66462 16.1307 5.68961 16.5256 5.94833 16.7544C7.88684 18.4617 10.8952 19.2316 13.7311 18.6804C16.0058 19.8502 18.0493 20.0002 18.9505 20.0002C19.2367 20.0002 19.4066 19.9852 19.4341 19.9827C19.7366 19.954 19.9753 19.7115 19.9978 19.409C20.0203 19.1053 19.8216 18.8304 19.5266 18.7554Z" fill="currentColor"/>
</g>
<defs>
<clipPath id="clip0_838_4505">
<rect width="20" height="20" fill="white"/>
</clipPath>
</defs>
</svg>
